# Blender 4.1.1
# www.blender.org
mtllib Boitier.mtl
o Cube
v -0.034305 -0.064262 0.064262
v -0.034305 0.064262 0.064262
v -0.034305 -0.064262 -0.064262
v -0.034305 0.064262 -0.064262
v 0.034305 0.064262 -0.064262
v 0.034305 -0.064262 -0.064262
v 0.034305 -0.064262 0.064262
v 0.034305 0.064262 0.064262
vn -1.0000 -0.0000 -0.0000
vn -0.0000 -0.0000 -1.0000
vn -0.0000 -0.0000 1.0000
vn -0.0000 -1.0000 -0.0000
vn -0.0000 1.0000 -0.0000
vt 0.001953 0.001953
vt 0.361996 0.001953
vt 0.361996 0.362005
vt 0.001953 0.362005
vt 0.977051 0.265016
vt 0.713989 0.265016
vt 0.713989 0.001953
vt 0.977051 0.001953
vt 0.368469 0.734985
vt 0.631531 0.734985
vt 0.631531 0.998047
vt 0.368469 0.998047
vt 0.637999 0.998047
vt 0.637999 0.734985
vt 0.901061 0.734985
vt 0.901061 0.998047
vt 0.444460 0.001953
vt 0.707521 0.001953
vt 0.707521 0.265016
vt 0.444460 0.265016
s 1
usemtl Boite_Fusibles
f 1/1/1 2/2/1 4/3/1 3/4/1
f 3/5/2 4/6/2 5/7/2 6/8/2
f 7/9/3 8/10/3 2/11/3 1/12/3
f 3/13/4 6/14/4 7/15/4 1/16/4
f 5/17/5 4/18/5 2/19/5 8/20/5
