# Blender 4.1.1
# www.blender.org
mtllib Bouton_Simon.mtl
o Bouton_Simon
v 0.000000 -0.021675 -0.058047
v 0.000000 -0.008535 -0.036811
v 0.034119 -0.021675 -0.046961
v 0.021637 -0.008535 -0.029781
v 0.055206 -0.021675 -0.017938
v 0.035009 -0.008535 -0.011375
v 0.055206 -0.021675 0.017938
v 0.035009 -0.008535 0.011375
v 0.034119 -0.021675 0.046961
v 0.021637 -0.008535 0.029781
v 0.000000 -0.021675 0.058047
v 0.000000 -0.008535 0.036811
v -0.034120 -0.021675 0.046961
v -0.021637 -0.008535 0.029781
v -0.055207 -0.021675 0.017938
v -0.035010 -0.008535 0.011375
v -0.055207 -0.021675 -0.017938
v -0.035010 -0.008535 -0.011375
v -0.034120 -0.021675 -0.046961
v -0.021637 -0.008535 -0.029781
v 0.002015 0.017638 -0.002774
v 0.000000 0.017638 -0.003429
v 0.003260 0.017638 -0.001059
v 0.003260 0.017638 0.001059
v 0.002015 0.017638 0.002774
v 0.000000 0.017638 0.003429
v -0.002016 0.017638 0.002774
v -0.003261 0.017638 0.001059
v -0.003261 0.017638 -0.001059
v -0.002016 0.017638 -0.002774
v 0.000000 -0.009369 -0.051471
v 0.030254 -0.009369 -0.041641
v 0.048952 -0.009369 -0.015905
v 0.048952 -0.009369 0.015905
v 0.030254 -0.009369 0.041641
v 0.000000 -0.009369 0.051471
v -0.030254 -0.009369 0.041641
v -0.048952 -0.009369 0.015905
v -0.048952 -0.009369 -0.015905
v -0.030254 -0.009369 -0.041641
v 0.017678 0.002800 -0.024332
v 0.000000 0.002800 -0.030076
v 0.028603 0.002800 -0.009294
v -0.017678 0.002800 -0.024332
v 0.028603 0.002800 0.009294
v 0.017678 0.002800 0.024332
v 0.000000 0.002800 0.030076
v -0.017678 0.002800 0.024332
v -0.028604 0.002800 0.009294
v -0.028604 0.002800 -0.009294
v 0.000000 0.007044 -0.026158
v -0.015376 0.007044 -0.021162
v 0.015375 0.007044 -0.021162
v 0.024878 0.007044 -0.008083
v 0.024878 0.007044 0.008083
v 0.015375 0.007044 0.021162
v 0.000000 0.007044 0.026158
v -0.015376 0.007044 0.021162
v -0.024878 0.007044 0.008083
v -0.024878 0.007044 -0.008083
v 0.000000 0.011784 -0.020105
v -0.011817 0.011784 -0.016265
v 0.011817 0.011784 -0.016265
v 0.019120 0.011784 -0.006213
v 0.019120 0.011784 0.006213
v 0.011817 0.011784 0.016265
v 0.000000 0.011784 0.020105
v -0.011817 0.011784 0.016265
v -0.019121 0.011784 0.006213
v -0.019121 0.011784 -0.006213
v 0.024114 -0.004520 -0.033190
v 0.026945 -0.004427 -0.037087
v 0.025518 -0.003561 -0.035123
v 0.000000 -0.004427 -0.045842
v 0.000000 -0.004520 -0.041025
v 0.000000 -0.003561 -0.043414
v 0.039017 -0.004520 -0.012677
v 0.043598 -0.004427 -0.014166
v 0.041289 -0.003561 -0.013416
v 0.039017 -0.004520 0.012677
v 0.043598 -0.004427 0.014166
v 0.041289 -0.003561 0.013416
v 0.024114 -0.004520 0.033190
v 0.026945 -0.004427 0.037087
v 0.025518 -0.003561 0.035123
v 0.000000 -0.004520 0.041025
v 0.000000 -0.004427 0.045842
v 0.000000 -0.003561 0.043414
v -0.024114 -0.004520 0.033190
v -0.026945 -0.004427 0.037087
v -0.025518 -0.003561 0.035123
v -0.039018 -0.004520 0.012677
v -0.043598 -0.004427 0.014166
v -0.041289 -0.003561 0.013416
v -0.039018 -0.004520 -0.012677
v -0.043598 -0.004427 -0.014166
v -0.041289 -0.003561 -0.013416
v -0.024114 -0.004520 -0.033190
v -0.026945 -0.004427 -0.037087
v -0.025518 -0.003561 -0.035123
v 0.019783 -0.002610 -0.027230
v 0.032010 -0.002610 -0.010401
v 0.032010 -0.002610 0.010401
v 0.019783 -0.002610 0.027230
v 0.000000 -0.002610 0.033658
v -0.019784 -0.002610 0.027230
v -0.032011 -0.002610 0.010401
v -0.032011 -0.002610 -0.010401
v 0.000000 -0.002610 -0.033658
v -0.019784 -0.002610 -0.027230
v 0.000000 0.015433 -0.013779
v -0.008099 0.015433 -0.011148
v 0.008099 0.015433 -0.011148
v 0.013104 0.015433 -0.004258
v 0.013104 0.015433 0.004258
v 0.008099 0.015433 0.011148
v 0.000000 0.015433 0.013779
v -0.008099 0.015433 0.011148
v -0.013105 0.015433 0.004258
v -0.013105 0.015433 -0.004258
vn -0.4681 0.6047 -0.6443
vn -0.3137 0.8457 -0.4317
vn -0.0000 0.8457 -0.5336
vn -0.0000 0.6047 -0.7964
vn -0.4055 0.7240 0.5581
vn -0.6560 0.7240 0.2132
vn -0.4881 0.8583 0.1586
vn -0.3017 0.8583 0.4152
vn -0.6560 0.7240 -0.2132
vn -0.4055 0.7240 -0.5581
vn -0.3017 0.8583 -0.4152
vn -0.4881 0.8583 -0.1586
vn -0.0000 0.7240 -0.6898
vn -0.0000 0.8583 -0.5132
vn 0.4054 0.7240 -0.5581
vn 0.3017 0.8582 -0.4152
vn 0.6560 0.7240 -0.2132
vn 0.4882 0.8582 -0.1586
vn 0.6560 0.7240 0.2132
vn 0.4882 0.8582 0.1586
vn 0.4054 0.7240 0.5581
vn 0.3017 0.8582 0.4152
vn 0.3661 0.9229 0.1189
vn 0.3661 0.9229 -0.1189
vn 0.1192 0.9921 -0.0387
vn 0.1192 0.9921 0.0387
vn -0.0000 0.7240 0.6898
vn -0.0000 0.8583 0.5132
vn -0.0000 -0.4515 -0.8923
vn 0.5245 -0.4515 -0.7219
vn 0.8486 -0.4515 -0.2757
vn 0.8486 -0.4515 0.2757
vn 0.5245 -0.4515 0.7219
vn -0.0000 -0.4515 0.8923
vn -0.5245 -0.4515 0.7219
vn -0.8486 -0.4514 0.2757
vn -0.8486 -0.4514 -0.2757
vn -0.5245 -0.4515 -0.7219
vn 0.4681 0.6047 -0.6443
vn 0.3137 0.8457 -0.4317
vn 0.5075 0.8457 -0.1649
vn 0.7575 0.6047 -0.2461
vn 0.5075 0.8457 0.1649
vn 0.7575 0.6047 0.2461
vn 0.3137 0.8457 0.4317
vn 0.4681 0.6047 0.6443
vn -0.0000 0.8457 0.5336
vn -0.0000 0.6047 0.7964
vn -0.3137 0.8457 0.4317
vn -0.4681 0.6047 0.6443
vn -0.5075 0.8457 0.1649
vn -0.7574 0.6048 0.2461
vn -0.5075 0.8457 -0.1649
vn -0.7574 0.6048 -0.2461
vn 0.2263 0.9229 -0.3114
vn 0.0737 0.9921 -0.1014
vn -0.3661 0.9229 -0.1190
vn -0.3661 0.9229 0.1190
vn -0.1192 0.9921 0.0387
vn -0.1192 0.9921 -0.0387
vn -0.0000 0.9229 0.3849
vn 0.2263 0.9229 0.3114
vn 0.0737 0.9921 0.1014
vn -0.0000 0.9921 0.1254
vn -0.2263 0.9229 -0.3114
vn -0.0737 0.9921 -0.1014
vn -0.2263 0.9229 0.3114
vn -0.0737 0.9921 0.1014
vn -0.0000 0.9229 -0.3849
vn -0.0000 0.9921 -0.1254
vn 0.5065 0.5074 -0.6971
vn -0.0000 0.5074 -0.8617
vn -0.0000 0.6096 -0.7927
vn 0.4660 0.6096 -0.6413
vn 0.5065 0.5074 0.6971
vn 0.8195 0.5074 0.2663
vn 0.7539 0.6096 0.2450
vn 0.4660 0.6096 0.6413
vn -0.8195 0.5074 0.2663
vn -0.5065 0.5074 0.6971
vn -0.4659 0.6096 0.6413
vn -0.7539 0.6096 0.2450
vn -0.5065 0.5074 -0.6971
vn -0.4659 0.6096 -0.6413
vn -0.0000 0.5074 0.8617
vn -0.0000 0.6096 0.7927
vn -0.8195 0.5074 -0.2663
vn -0.7539 0.6096 -0.2450
vn 0.8195 0.5074 -0.2663
vn 0.7539 0.6096 -0.2450
vn -0.0000 0.7273 -0.6863
vn 0.4034 0.7273 -0.5552
vn 0.6527 0.7273 0.2121
vn 0.4034 0.7273 0.5552
vn -0.4034 0.7273 0.5552
vn -0.6527 0.7273 0.2121
vn -0.4034 0.7273 -0.5552
vn -0.0000 0.7273 0.6863
vn -0.6527 0.7273 -0.2121
vn 0.6527 0.7273 -0.2121
vn -0.0000 0.8223 -0.5690
vn 0.3344 0.8223 -0.4603
vn 0.5411 0.8224 0.1758
vn 0.3344 0.8223 0.4603
vn -0.3344 0.8224 0.4603
vn -0.5411 0.8224 0.1758
vn -0.3344 0.8224 -0.4603
vn -0.0000 0.8223 0.5690
vn -0.5411 0.8224 -0.1758
vn 0.5411 0.8224 -0.1758
vn -0.0000 0.9987 -0.0512
vn 0.0301 0.9987 -0.0414
vn 0.0487 0.9987 -0.0158
vn 0.0487 0.9987 0.0158
vn 0.0301 0.9987 0.0414
vn -0.0000 0.9987 0.0512
vn -0.0301 0.9987 0.0414
vn -0.0486 0.9987 0.0158
vn -0.0486 0.9987 -0.0158
vn -0.0301 0.9987 -0.0414
vn 0.8396 0.4698 0.2728
vn 0.8396 0.4698 -0.2728
vn 0.5189 0.4698 -0.7142
vn -0.8396 0.4698 -0.2728
vn -0.8396 0.4698 0.2728
vn -0.0000 0.4698 0.8828
vn 0.5189 0.4698 0.7142
vn -0.5189 0.4698 -0.7142
vn -0.5189 0.4698 0.7142
vn -0.0000 0.4698 -0.8828
vt 0.588675 0.066072
vt 0.589339 0.058555
vt 0.617574 0.054399
vt 0.620376 0.061405
vt 0.359205 0.127615
vt 0.381877 0.130953
vt 0.382343 0.136797
vt 0.357075 0.133077
vt 0.610604 0.304507
vt 0.633276 0.301169
vt 0.635406 0.306631
vt 0.610138 0.310351
vt 0.638436 0.035282
vt 0.615763 0.038620
vt 0.613633 0.033158
vt 0.638901 0.029438
vt 0.442270 0.663957
vt 0.464942 0.660619
vt 0.467072 0.666081
vt 0.441805 0.669801
vt 0.163749 0.040998
vt 0.185544 0.048079
vt 0.185025 0.053919
vt 0.160735 0.046027
vt 0.312572 0.947989
vt 0.335245 0.951327
vt 0.335710 0.957171
vt 0.310443 0.953451
vt 0.355174 0.038620
vt 0.332501 0.035282
vt 0.332036 0.029438
vt 0.357303 0.033158
vt 0.451404 0.832092
vt 0.459891 0.830842
vt 0.458183 0.841365
vt 0.456072 0.841676
vt 0.590565 0.047578
vt 0.613237 0.044240
vt 0.615367 0.049702
vt 0.590099 0.053422
vt 0.181965 0.175094
vt 0.147596 0.186261
vt 0.113228 0.175094
vt 0.091987 0.145858
vt 0.091987 0.109721
vt 0.113228 0.080486
vt 0.147596 0.069319
vt 0.181965 0.080486
vt 0.203206 0.109721
vt 0.203206 0.145858
vt 0.352065 0.144779
vt 0.354868 0.137773
vt 0.383102 0.141930
vt 0.383767 0.149446
vt 0.593783 0.501626
vt 0.590980 0.508632
vt 0.562746 0.504476
vt 0.562081 0.496959
vt 0.464006 0.778243
vt 0.463341 0.785760
vt 0.435107 0.789917
vt 0.432305 0.782911
vt 0.608714 0.323001
vt 0.609379 0.315484
vt 0.637613 0.311327
vt 0.640415 0.318334
vt 0.640325 0.016788
vt 0.639661 0.024305
vt 0.611426 0.028461
vt 0.608624 0.021455
vt 0.440380 0.682451
vt 0.441045 0.674935
vt 0.469279 0.670778
vt 0.472082 0.677784
vt 0.153840 0.056727
vt 0.157774 0.050288
vt 0.184916 0.059107
vt 0.184315 0.066629
vt 0.305433 0.965154
vt 0.308236 0.958148
vt 0.336470 0.962304
vt 0.337135 0.969821
vt 0.362313 0.021455
vt 0.359510 0.028461
vt 0.331276 0.024305
vt 0.330611 0.016788
vt 0.462116 0.796737
vt 0.439444 0.800075
vt 0.437314 0.794613
vt 0.462582 0.790893
vt 0.379651 0.096847
vt 0.371165 0.095598
vt 0.375832 0.086014
vt 0.377944 0.086325
vt 0.333019 0.917222
vt 0.324533 0.915972
vt 0.329200 0.906388
vt 0.331312 0.906699
vt 0.627723 0.070637
vt 0.636210 0.069387
vt 0.634502 0.079910
vt 0.632391 0.080220
vt 0.334727 0.069387
vt 0.343213 0.070637
vt 0.338546 0.080221
vt 0.336434 0.079910
vt 0.452982 0.628603
vt 0.444496 0.629852
vt 0.446203 0.619330
vt 0.448315 0.619019
vt 0.601277 0.012223
vt 0.592790 0.013473
vt 0.594498 0.002950
vt 0.596609 0.002639
vt 0.189052 0.014082
vt 0.180893 0.011432
vt 0.187098 0.002763
vt 0.189128 0.003422
vt 0.621316 0.269152
vt 0.612829 0.270402
vt 0.614537 0.259879
vt 0.616648 0.259568
vt 0.333794 0.901693
vt 0.334151 0.903797
vt 0.333203 0.905709
vt 0.327674 0.904895
vt 0.327318 0.902791
vt 0.328266 0.900879
vt 0.330157 0.899889
vt 0.332269 0.900200
vt 0.566196 0.549558
vt 0.574683 0.550808
vt 0.570016 0.560392
vt 0.567904 0.560081
vt 0.588675 0.080126
vt 0.624427 0.074863
vt 0.366363 0.007997
vt 0.330611 0.002734
vt 0.301383 0.978612
vt 0.337135 0.983875
vt 0.440380 0.696506
vt 0.476132 0.691242
vt 0.640325 0.002734
vt 0.604573 0.007997
vt 0.608714 0.337055
vt 0.644466 0.331792
vt 0.464006 0.764189
vt 0.428254 0.769452
vt 0.348015 0.158238
vt 0.383767 0.163501
vt 0.597833 0.488168
vt 0.562081 0.482905
vt 0.563968 0.522214
vt 0.584698 0.525266
vt 0.582657 0.531475
vt 0.564133 0.528748
vt 0.631331 0.294694
vt 0.610600 0.297746
vt 0.610766 0.291212
vt 0.629289 0.288485
vt 0.186677 0.041414
vt 0.166749 0.034939
vt 0.169800 0.029159
vt 0.187607 0.034945
vt 0.611291 0.037765
vt 0.590561 0.040817
vt 0.590726 0.034283
vt 0.609250 0.031556
vt 0.462997 0.654144
vt 0.442267 0.657196
vt 0.442432 0.650662
vt 0.460956 0.647935
vt 0.332498 0.042043
vt 0.353228 0.045095
vt 0.351187 0.051304
vt 0.332663 0.048577
vt 0.617709 0.045095
vt 0.638439 0.042043
vt 0.638274 0.048577
vt 0.619750 0.051304
vt 0.335248 0.944566
vt 0.314518 0.941514
vt 0.316559 0.935305
vt 0.335083 0.938032
vt 0.381880 0.124192
vt 0.361150 0.121140
vt 0.363191 0.114931
vt 0.381715 0.117658
vt 0.441389 0.806550
vt 0.462119 0.803498
vt 0.461954 0.810032
vt 0.443431 0.812759
vt 0.580622 0.536926
vt 0.564511 0.534554
vt 0.611143 0.285406
vt 0.627254 0.283034
vt 0.172717 0.024125
vt 0.188205 0.029157
vt 0.591104 0.028477
vt 0.607215 0.026105
vt 0.442810 0.644857
vt 0.458921 0.642485
vt 0.349152 0.056755
vt 0.333041 0.054383
vt 0.637896 0.054383
vt 0.621785 0.056755
vt 0.318594 0.929854
vt 0.334705 0.932226
vt 0.365226 0.109480
vt 0.381337 0.111852
vt 0.461577 0.815838
vt 0.445466 0.818210
vt 0.577663 0.544083
vt 0.565281 0.542260
vt 0.611914 0.277700
vt 0.624296 0.275877
vt 0.176831 0.017564
vt 0.188734 0.021431
vt 0.591874 0.020771
vt 0.604257 0.018948
vt 0.443580 0.637151
vt 0.455963 0.635328
vt 0.346194 0.063912
vt 0.333811 0.062089
vt 0.637126 0.062089
vt 0.624743 0.063912
vt 0.321552 0.922697
vt 0.333935 0.924520
vt 0.368185 0.102323
vt 0.380567 0.104146
vt 0.460806 0.823544
vt 0.448424 0.825367
vt 0.589870 0.510980
vt 0.563132 0.507043
vt 0.588773 0.513329
vt 0.563505 0.509609
vt 0.355977 0.135426
vt 0.382716 0.139362
vt 0.462956 0.788327
vt 0.436217 0.792264
vt 0.609764 0.312917
vt 0.636503 0.308980
vt 0.639275 0.026872
vt 0.612536 0.030809
vt 0.441431 0.672367
vt 0.468170 0.668431
vt 0.159261 0.048159
vt 0.184965 0.056511
vt 0.309345 0.955800
vt 0.336084 0.959737
vt 0.358401 0.030809
vt 0.331662 0.026872
vt 0.589725 0.055988
vt 0.616464 0.052051
vt 0.586643 0.518791
vt 0.563971 0.515453
s 1
usemtl Material.001
f 40/1/1 99/2/2 74/3/3 31/4/4
f 4/5/5 6/6/6 77/7/7 71/8/8
f 8/9/9 10/10/10 83/11/11 80/12/12
f 10/13/10 12/14/13 86/15/14 83/16/11
f 12/17/13 14/18/15 89/19/16 86/20/14
f 14/21/15 16/22/17 92/23/18 89/24/16
f 16/25/17 18/26/19 95/27/20 92/28/18
f 18/29/19 20/30/21 98/31/22 95/32/20
f 115/33/23 114/34/24 23/35/25 24/36/26
f 20/37/21 2/38/27 75/39/28 98/40/22
f 1/41/29 3/42/30 5/43/31 7/44/32 9/45/33 11/46/34 13/47/35 15/48/36 17/49/37 19/50/38
f 32/51/39 72/52/40 78/53/41 33/54/42
f 31/55/4 74/56/3 72/57/40 32/58/39
f 33/59/42 78/60/41 81/61/43 34/62/44
f 34/63/44 81/64/43 84/65/45 35/66/46
f 35/67/46 84/68/45 87/69/47 36/70/48
f 36/71/48 87/72/47 90/73/49 37/74/50
f 37/75/50 90/76/49 93/77/51 38/78/52
f 38/79/52 93/80/51 96/81/53 39/82/54
f 39/83/54 96/84/53 99/85/2 40/86/1
f 6/87/6 8/88/9 80/89/12 77/90/7
f 114/91/24 113/92/55 21/93/56 23/94/25
f 120/95/57 119/96/58 28/97/59 29/98/60
f 117/99/61 116/100/62 25/101/63 26/102/64
f 112/103/65 120/104/57 29/105/60 30/106/66
f 118/107/67 117/108/61 26/109/64 27/110/68
f 111/111/69 112/112/65 30/113/66 22/114/70
f 119/115/58 118/116/67 27/117/68 28/118/59
f 116/119/62 115/120/23 24/121/26 25/122/63
f 21/123/56 22/124/70 30/125/66 29/98/60 28/97/59 27/126/68 26/127/64 25/128/63 24/129/26 23/130/25
f 113/131/55 111/132/69 22/133/70 21/134/56
f 19/135/38 40/1/1 31/4/4 1/136/29
f 17/137/37 39/83/54 40/86/1 19/138/38
f 15/139/36 38/79/52 39/82/54 17/140/37
f 13/47/35 37/75/50 38/78/52 15/48/36
f 11/141/34 36/71/48 37/74/50 13/142/35
f 9/143/33 35/67/46 36/70/48 11/144/34
f 7/145/32 34/63/44 35/66/46 9/146/33
f 5/147/31 33/59/42 34/62/44 7/148/32
f 3/149/30 32/51/39 33/54/42 5/150/31
f 1/151/29 31/55/4 32/58/39 3/152/30
f 101/153/71 109/154/72 42/155/73 41/156/74
f 104/157/75 103/158/76 45/159/77 46/160/78
f 107/161/79 106/162/80 48/163/81 49/164/82
f 109/165/72 110/166/83 44/167/84 42/168/73
f 106/169/80 105/170/85 47/171/86 48/172/81
f 110/173/83 108/174/87 50/175/88 44/176/84
f 105/177/85 104/178/75 46/179/78 47/180/86
f 108/181/87 107/182/79 49/183/82 50/184/88
f 102/185/89 101/186/71 41/187/74 43/188/90
f 103/189/76 102/190/89 43/191/90 45/192/77
f 41/156/74 42/155/73 51/193/91 53/194/92
f 46/160/78 45/159/77 55/195/93 56/196/94
f 49/164/82 48/163/81 58/197/95 59/198/96
f 42/168/73 44/167/84 52/199/97 51/200/91
f 48/172/81 47/171/86 57/201/98 58/202/95
f 44/176/84 50/175/88 60/203/99 52/204/97
f 47/180/86 46/179/78 56/205/94 57/206/98
f 50/184/88 49/183/82 59/207/96 60/208/99
f 43/188/90 41/187/74 53/209/92 54/210/100
f 45/192/77 43/191/90 54/211/100 55/212/93
f 53/194/92 51/193/91 61/213/101 63/214/102
f 56/196/94 55/195/93 65/215/103 66/216/104
f 59/198/96 58/197/95 68/217/105 69/218/106
f 51/200/91 52/199/97 62/219/107 61/220/101
f 58/202/95 57/201/98 67/221/108 68/222/105
f 52/204/97 60/203/99 70/223/109 62/224/107
f 57/206/98 56/205/94 66/225/104 67/226/108
f 60/208/99 59/207/96 69/227/106 70/228/109
f 54/210/100 53/209/92 63/229/102 64/230/110
f 55/212/93 54/211/100 64/231/110 65/232/103
f 72/57/40 74/56/3 76/233/111 73/234/112
f 73/234/112 76/233/111 75/235/28 71/236/8
f 78/53/41 72/52/40 73/237/112 79/238/113
f 79/238/113 73/237/112 71/8/8 77/7/7
f 81/61/43 78/60/41 79/239/113 82/240/114
f 82/240/114 79/239/113 77/90/7 80/89/12
f 84/65/45 81/64/43 82/241/114 85/242/115
f 85/242/115 82/241/114 80/12/12 83/11/11
f 87/69/47 84/68/45 85/243/115 88/244/116
f 88/244/116 85/243/115 83/16/11 86/15/14
f 90/73/49 87/72/47 88/245/116 91/246/117
f 91/246/117 88/245/116 86/20/14 89/19/16
f 93/77/51 90/76/49 91/247/117 94/248/118
f 94/248/118 91/247/117 89/24/16 92/23/18
f 96/81/53 93/80/51 94/249/118 97/250/119
f 97/250/119 94/249/118 92/28/18 95/27/20
f 99/85/2 96/84/53 97/251/119 100/252/120
f 100/252/120 97/251/119 95/32/20 98/31/22
f 74/3/3 99/2/2 100/253/120 76/254/111
f 76/254/111 100/253/120 98/40/22 75/39/28
f 2/255/27 4/256/5 71/236/8 75/235/28
f 8/88/121 6/87/122 102/190/89 103/189/76
f 6/6/122 4/5/123 101/186/71 102/185/89
f 18/26/124 16/25/125 107/182/79 108/181/87
f 12/14/126 10/13/127 104/178/75 105/177/85
f 20/30/128 18/29/124 108/174/87 110/173/83
f 14/18/129 12/17/126 105/170/85 106/169/80
f 2/38/130 20/37/128 110/166/83 109/165/72
f 16/22/125 14/21/129 106/162/80 107/161/79
f 10/10/127 8/9/121 103/158/76 104/157/75
f 4/256/123 2/255/130 109/154/72 101/153/71
f 63/214/102 61/213/101 111/132/69 113/131/55
f 66/216/104 65/215/103 115/120/23 116/119/62
f 69/218/106 68/217/105 118/116/67 119/115/58
f 61/220/101 62/219/107 112/112/65 111/111/69
f 68/222/105 67/221/108 117/108/61 118/107/67
f 62/224/107 70/223/109 120/104/57 112/103/65
f 67/226/108 66/225/104 116/100/62 117/99/61
f 70/228/109 69/227/106 119/96/58 120/95/57
f 64/230/110 63/229/102 113/92/55 114/91/24
f 65/232/103 64/231/110 114/34/24 115/33/23
