# Blender 4.1.1
# www.blender.org
mtllib Bouton_Petit.mtl
o Bouton_Petit
v -0.000000 -0.011018 -0.028624
v -0.000000 0.000248 -0.021396
v 0.016825 -0.011018 -0.023157
v 0.012577 0.000248 -0.017310
v 0.027224 -0.011018 -0.008845
v 0.020349 0.000248 -0.006612
v 0.027224 -0.011018 0.008845
v 0.020349 0.000248 0.006612
v 0.016825 -0.011018 0.023157
v 0.012577 0.000248 0.017310
v -0.000000 -0.011018 0.028624
v -0.000000 0.000248 0.021396
v -0.016825 -0.011018 0.023157
v -0.012576 0.000248 0.017310
v -0.027223 -0.011018 0.008845
v -0.020348 0.000248 0.006612
v -0.027223 -0.011018 -0.008845
v -0.020348 0.000248 -0.006612
v -0.016825 -0.011018 -0.023157
v -0.012576 0.000248 -0.017310
v 0.015285 -0.003449 -0.021038
v -0.000000 -0.003449 -0.026004
v 0.024732 -0.003449 -0.008036
v 0.024732 -0.003449 0.008036
v 0.015285 -0.003449 0.021038
v -0.000000 -0.003449 0.026004
v -0.015285 -0.003449 0.021038
v -0.024731 -0.003449 0.008036
v -0.024731 -0.003449 -0.008036
v -0.015285 -0.003449 -0.021038
v -0.000000 0.000248 -0.022327
v 0.013124 0.000248 -0.018063
v 0.021235 0.000248 -0.006899
v 0.021235 0.000248 0.006899
v 0.013124 0.000248 0.018063
v -0.000000 0.000248 0.022327
v -0.013123 0.000248 0.018063
v -0.021234 0.000248 0.006899
v -0.021234 0.000248 -0.006899
v -0.013123 0.000248 -0.018063
v 0.012051 0.005023 -0.016586
v 0.012577 0.004173 -0.017310
v 0.012412 0.004774 -0.017083
v -0.000000 0.004173 -0.021396
v -0.000000 0.005023 -0.020501
v -0.000000 0.004774 -0.021116
v 0.019498 0.005023 -0.006335
v 0.020349 0.004173 -0.006612
v 0.020083 0.004774 -0.006525
v 0.019498 0.005023 0.006335
v 0.020349 0.004173 0.006612
v 0.020083 0.004774 0.006525
v 0.012051 0.005023 0.016586
v 0.012577 0.004173 0.017310
v 0.012412 0.004774 0.017083
v -0.000000 0.005023 0.020501
v -0.000000 0.004173 0.021396
v -0.000000 0.004774 0.021116
v -0.012050 0.005023 0.016586
v -0.012576 0.004173 0.017310
v -0.012411 0.004774 0.017083
v -0.019498 0.005023 0.006335
v -0.020348 0.004173 0.006612
v -0.020082 0.004774 0.006525
v -0.019498 0.005023 -0.006335
v -0.020348 0.004173 -0.006612
v -0.020082 0.004774 -0.006525
v -0.012050 0.005023 -0.016586
v -0.012576 0.004173 -0.017310
v -0.012411 0.004774 -0.017083
vn -0.0000 -0.5148 -0.8573
vn -0.0000 0.5106 -0.8598
vn 0.5054 0.5106 -0.6956
vn 0.5039 -0.5148 -0.6936
vn 0.8177 0.5106 -0.2657
vn 0.8154 -0.5148 -0.2649
vn 0.8177 0.5106 0.2657
vn 0.8154 -0.5148 0.2649
vn 0.5054 0.5106 0.6956
vn 0.5039 -0.5148 0.6936
vn -0.0000 0.5106 0.8598
vn -0.0000 -0.5148 0.8573
vn -0.5054 0.5106 0.6956
vn -0.5039 -0.5148 0.6936
vn -0.8177 0.5106 0.2657
vn -0.8154 -0.5148 0.2649
vn -0.8177 0.5106 -0.2657
vn -0.8154 -0.5148 -0.2649
vn 0.9511 -0.0000 0.3090
vn 0.9511 -0.0000 -0.3090
vn 0.9304 0.2075 -0.3023
vn 0.9304 0.2075 0.3023
vn -0.5054 0.5106 -0.6956
vn -0.5039 -0.5148 -0.6936
vn -0.0000 0.7052 -0.7090
vn 0.4167 0.7052 -0.5736
vn 0.6743 0.7052 -0.2191
vn 0.6743 0.7052 0.2191
vn 0.4167 0.7052 0.5736
vn -0.0000 0.7052 0.7090
vn -0.4167 0.7052 0.5736
vn -0.6743 0.7052 0.2191
vn -0.6743 0.7052 -0.2191
vn -0.4167 0.7052 -0.5736
vn 0.5878 -0.0000 -0.8090
vn 0.5750 0.2075 -0.7914
vn -0.9511 -0.0000 -0.3090
vn -0.9511 -0.0000 0.3090
vn -0.9304 0.2075 0.3023
vn -0.9304 0.2075 -0.3023
vn -0.0000 -0.0000 1.0000
vn 0.5878 -0.0000 0.8090
vn 0.5750 0.2074 0.7914
vn -0.0000 0.2077 0.9782
vn 0.1337 0.9738 -0.1841
vn -0.0000 0.9738 -0.2275
vn -0.1338 0.9738 -0.1841
vn -0.2166 0.9737 -0.0704
vn -0.2166 0.9737 0.0704
vn -0.1338 0.9738 0.1841
vn -0.0000 0.9738 0.2275
vn 0.1337 0.9738 0.1841
vn 0.2163 0.9738 0.0703
vn 0.2163 0.9738 -0.0703
vn -0.5878 -0.0000 -0.8090
vn -0.5750 0.2073 -0.7914
vn -0.5878 -0.0000 0.8090
vn -0.5750 0.2073 0.7914
vn -0.0000 -0.0000 -1.0000
vn -0.0000 0.2077 -0.9782
vn -0.0000 1.0000 -0.0000
vn -0.0000 0.6900 -0.7238
vn 0.4254 0.6900 -0.5856
vn 0.6884 0.6899 -0.2237
vn 0.6884 0.6899 0.2237
vn 0.4254 0.6900 0.5856
vn -0.0000 0.6900 0.7238
vn -0.4254 0.6901 0.5855
vn -0.6884 0.6900 0.2237
vn -0.6884 0.6899 -0.2237
vn -0.4254 0.6901 -0.5856
vt 0.169536 0.002656
vt 0.169536 0.010724
vt 0.153430 0.012360
vt 0.151807 0.004457
vt 0.229083 0.634957
vt 0.230706 0.627054
vt 0.246811 0.628690
vt 0.246811 0.636758
vt 0.196756 0.467942
vt 0.196756 0.459873
vt 0.212862 0.458237
vt 0.214485 0.466140
vt 0.375552 0.335424
vt 0.375552 0.327356
vt 0.391658 0.325719
vt 0.393281 0.333623
vt 0.182265 0.586973
vt 0.180643 0.594877
vt 0.164537 0.593240
vt 0.164537 0.585172
vt 0.251150 0.420959
vt 0.251150 0.412891
vt 0.267255 0.411255
vt 0.268878 0.419158
vt 0.242879 0.315868
vt 0.244502 0.307964
vt 0.260608 0.309601
vt 0.260608 0.317669
vt 0.134212 0.769283
vt 0.132507 0.761397
vt 0.147904 0.756395
vt 0.151160 0.763777
vt 0.210827 0.452395
vt 0.197575 0.453741
vt 0.197175 0.449808
vt 0.210427 0.448462
vt 0.871654 0.938933
vt 0.868556 0.946382
vt 0.853056 0.941709
vt 0.854592 0.933789
vt 0.179298 0.614218
vt 0.180921 0.606314
vt 0.197027 0.607951
vt 0.197027 0.616019
vt 0.178582 0.783700
vt 0.178582 0.801520
vt 0.168107 0.815936
vt 0.151160 0.821443
vt 0.134212 0.815936
vt 0.123738 0.801520
vt 0.123738 0.783700
vt 0.168107 0.769283
vt 0.168915 0.015939
vt 0.155087 0.017344
vt 0.232362 0.622070
vt 0.246191 0.623475
vt 0.197377 0.454658
vt 0.211205 0.453253
vt 0.376173 0.322140
vt 0.390001 0.320735
vt 0.178986 0.599860
vt 0.165157 0.598456
vt 0.251770 0.407676
vt 0.265599 0.406271
vt 0.246158 0.302981
vt 0.259987 0.304386
vt 0.132012 0.756169
vt 0.145231 0.751873
vt 0.865980 0.950960
vt 0.852672 0.946947
vt 0.182578 0.601330
vt 0.196406 0.602735
vt 0.245993 0.622558
vt 0.232741 0.621212
vt 0.233141 0.617278
vt 0.246392 0.618625
vt 0.144680 0.751114
vt 0.132012 0.755231
vt 0.130790 0.751470
vt 0.143458 0.747354
vt 0.165356 0.599372
vt 0.178607 0.600719
vt 0.178208 0.604652
vt 0.164956 0.603306
vt 0.832110 0.967683
vt 0.839390 0.957200
vt 0.851442 0.952998
vt 0.863661 0.956682
vt 0.871382 0.966846
vt 0.871654 0.979606
vt 0.864374 0.990089
vt 0.852322 0.994291
vt 0.840102 0.990606
vt 0.832382 0.980443
vt 0.852692 0.947885
vt 0.865445 0.951730
vt 0.864304 0.955515
vt 0.851551 0.951670
vt 0.265220 0.405413
vt 0.251968 0.406759
vt 0.251569 0.402826
vt 0.264820 0.401479
vt 0.196208 0.601819
vt 0.182956 0.600472
vt 0.183356 0.596539
vt 0.196607 0.597885
vt 0.259789 0.303469
vt 0.246537 0.302122
vt 0.246937 0.298189
vt 0.260188 0.299535
vt 0.389623 0.319877
vt 0.376371 0.321223
vt 0.375971 0.317290
vt 0.389223 0.315944
vt 0.168717 0.016856
vt 0.155465 0.018202
vt 0.155865 0.022136
vt 0.169117 0.020789
vt 0.169097 0.021457
vt 0.156019 0.022786
vt 0.168971 0.022114
vt 0.156274 0.023404
vt 0.233294 0.616628
vt 0.246373 0.617957
vt 0.233549 0.616011
vt 0.246247 0.617301
vt 0.197195 0.449140
vt 0.210273 0.447811
vt 0.197321 0.448484
vt 0.210018 0.447194
vt 0.375991 0.316622
vt 0.389070 0.315294
vt 0.376117 0.315966
vt 0.388815 0.314676
vt 0.178054 0.605302
vt 0.164976 0.603974
vt 0.177799 0.605920
vt 0.165101 0.604630
vt 0.251588 0.402158
vt 0.264667 0.400829
vt 0.251714 0.401501
vt 0.264412 0.400211
vt 0.247090 0.297539
vt 0.260169 0.298867
vt 0.247345 0.296921
vt 0.260043 0.298211
vt 0.130668 0.750813
vt 0.143171 0.746751
vt 0.130652 0.750146
vt 0.142791 0.746202
vt 0.864029 0.956125
vt 0.851443 0.952330
vt 0.183509 0.595888
vt 0.196588 0.597217
vt 0.183764 0.595271
vt 0.196462 0.596561
s 1
usemtl Material.001
f 1/1/1 22/2/2 21/3/3 3/4/4
f 3/5/4 21/6/3 23/7/5 5/8/6
f 5/9/6 23/10/5 24/11/7 7/12/8
f 7/13/8 24/14/7 25/15/9 9/16/10
f 9/17/10 25/18/9 26/19/11 11/20/12
f 11/21/12 26/22/11 27/23/13 13/24/14
f 13/25/14 27/26/13 28/27/15 15/28/16
f 15/29/16 28/30/15 29/31/17 17/32/18
f 8/33/19 6/34/20 48/35/21 51/36/22
f 17/37/18 29/38/17 30/39/23 19/40/24
f 19/41/24 30/42/23 22/43/2 1/44/1
f 1/45/1 3/46/4 5/47/6 7/48/8 9/49/10 11/50/12 13/51/14 15/29/16 17/32/18 19/52/24
f 31/53/25 32/54/26 21/3/3 22/2/2
f 32/55/26 33/56/27 23/7/5 21/6/3
f 33/57/27 34/58/28 24/11/7 23/10/5
f 34/59/28 35/60/29 25/15/9 24/14/7
f 35/61/29 36/62/30 26/19/11 25/18/9
f 36/63/30 37/64/31 27/23/13 26/22/11
f 37/65/31 38/66/32 28/27/15 27/26/13
f 38/67/32 39/68/33 29/31/17 28/30/15
f 39/69/33 40/70/34 30/39/23 29/38/17
f 40/71/34 31/72/25 22/43/2 30/42/23
f 6/73/20 4/74/35 42/75/36 48/76/21
f 18/77/37 16/78/38 63/79/39 66/80/40
f 12/81/41 10/82/42 54/83/43 57/84/44
f 41/85/45 45/86/46 68/87/47 65/88/48 62/89/49 59/90/50 56/91/51 53/92/52 50/93/53 47/94/54
f 20/95/55 18/96/37 66/97/40 69/98/56
f 14/99/57 12/100/41 57/101/44 60/102/58
f 2/103/59 20/104/55 69/105/56 44/106/60
f 16/107/38 14/108/57 60/109/58 63/110/39
f 10/111/42 8/112/19 51/113/22 54/114/43
f 20/104/61 2/103/61 31/72/61 40/71/61
f 18/96/61 20/95/61 40/70/61 39/69/61
f 16/78/61 18/77/61 39/68/61 38/67/61
f 14/108/61 16/107/61 38/66/61 37/65/61
f 12/100/61 14/99/61 37/64/61 36/63/61
f 10/82/61 12/81/61 36/62/61 35/61/61
f 8/112/61 10/111/61 35/60/61 34/59/61
f 6/34/61 8/33/61 34/58/61 33/57/61
f 4/74/61 6/73/61 33/56/61 32/55/61
f 2/115/61 4/116/61 32/54/61 31/53/61
f 42/117/36 44/118/60 46/119/62 43/120/63
f 43/120/63 46/119/62 45/121/46 41/122/45
f 48/76/21 42/75/36 43/123/63 49/124/64
f 49/124/64 43/123/63 41/125/45 47/126/54
f 51/36/22 48/35/21 49/127/64 52/128/65
f 52/128/65 49/127/64 47/129/54 50/130/53
f 54/114/43 51/113/22 52/131/65 55/132/66
f 55/132/66 52/131/65 50/133/53 53/134/52
f 57/84/44 54/83/43 55/135/66 58/136/67
f 58/136/67 55/135/66 53/137/52 56/138/51
f 60/102/58 57/101/44 58/139/67 61/140/68
f 61/140/68 58/139/67 56/141/51 59/142/50
f 63/110/39 60/109/58 61/143/68 64/144/69
f 64/144/69 61/143/68 59/145/50 62/146/49
f 66/80/40 63/79/39 64/147/69 67/148/70
f 67/148/70 64/147/69 62/149/49 65/150/48
f 69/98/56 66/97/40 67/151/70 70/152/71
f 70/152/71 67/151/70 65/88/48 68/87/47
f 44/106/60 69/105/56 70/153/71 46/154/62
f 46/154/62 70/153/71 68/155/47 45/156/46
f 4/116/35 2/115/59 44/118/60 42/117/36
