# Blender 4.1.1
# www.blender.org
mtllib Slider.mtl
o Slider
v 0.000006 -0.001263 -0.063794
v -0.063786 -0.001263 0.000000
v 0.000006 -0.001263 0.063794
v 0.063798 -0.001263 0.000000
v 0.000006 -0.014036 -0.063794
v -0.063786 -0.014036 0.000000
v 0.000006 -0.014036 0.063794
v 0.063798 -0.014036 0.000000
v -0.058737 -0.001263 -0.063169
v -0.061391 -0.001263 -0.061396
v -0.063164 -0.001263 -0.058742
v -0.063787 -0.001263 -0.055611
v -0.058024 -0.001263 -0.058029
v -0.055606 -0.001263 -0.063792
v -0.063787 -0.014036 -0.055611
v -0.063164 -0.014036 -0.058742
v -0.061391 -0.014036 -0.061396
v -0.058737 -0.014036 -0.063169
v -0.055606 -0.014036 -0.063792
v -0.063164 -0.001263 0.058740
v -0.061391 -0.001263 0.061394
v -0.058737 -0.001263 0.063168
v -0.055606 -0.001263 0.063791
v -0.058024 -0.001263 0.058028
v -0.063787 -0.001263 0.055610
v -0.055606 -0.014036 0.063791
v -0.058737 -0.014036 0.063168
v -0.061391 -0.014036 0.061394
v -0.063164 -0.014036 0.058740
v -0.063787 -0.014036 0.055610
v 0.058748 -0.001263 0.063168
v 0.061402 -0.001263 0.061394
v 0.063175 -0.001263 0.058740
v 0.063798 -0.001263 0.055610
v 0.058035 -0.001263 0.058028
v 0.055617 -0.001263 0.063791
v 0.063798 -0.014036 0.055610
v 0.063175 -0.014036 0.058740
v 0.061402 -0.014036 0.061394
v 0.058748 -0.014036 0.063168
v 0.055617 -0.014036 0.063791
v 0.063175 -0.001263 -0.058742
v 0.061402 -0.001263 -0.061396
v 0.058748 -0.001263 -0.063169
v 0.055617 -0.001263 -0.063792
v 0.058035 -0.001263 -0.058029
v 0.063798 -0.001263 -0.055611
v 0.055617 -0.014036 -0.063792
v 0.058748 -0.014036 -0.063169
v 0.061402 -0.014036 -0.061396
v 0.063175 -0.014036 -0.058742
v 0.063798 -0.014036 -0.055611
v -0.000001 -0.009830 -0.039601
v -0.000001 -0.009834 0.000000
v -0.005558 -0.009831 -0.039773
v -0.005439 -0.009831 0.000000
v -0.005558 -0.009831 0.039774
v -0.000001 -0.009830 0.039599
v 0.005529 -0.009831 0.039774
v 0.005430 -0.009831 0.000000
v 0.005529 -0.009831 -0.039773
v -0.000003 -0.001632 -0.039945
v -0.000003 -0.001438 -0.040081
v -0.000003 -0.001309 -0.040280
v -0.000003 -0.001263 -0.040513
v -0.000003 -0.001863 -0.039891
v -0.005684 -0.001631 -0.039946
v -0.005761 -0.001437 -0.040080
v -0.005875 -0.001309 -0.040277
v -0.006008 -0.001263 -0.040510
v -0.005654 -0.001863 -0.039894
v -0.005664 -0.001631 0.000000
v -0.005742 -0.001437 0.000000
v -0.005857 -0.001308 0.000000
v -0.005990 -0.001263 0.000000
v -0.005632 -0.001863 0.000000
v -0.005684 -0.001631 0.039947
v -0.005761 -0.001437 0.040081
v -0.005875 -0.001309 0.040279
v -0.006008 -0.001263 0.040511
v -0.005654 -0.001863 0.039896
v -0.000003 -0.001632 0.039944
v -0.000003 -0.001438 0.040080
v -0.000003 -0.001309 0.040279
v -0.000003 -0.001263 0.040512
v -0.000003 -0.001863 0.039890
v 0.005654 -0.001631 0.039947
v 0.005731 -0.001437 0.040081
v 0.005845 -0.001309 0.040279
v 0.005978 -0.001263 0.040511
v 0.005624 -0.001863 0.039896
v 0.005652 -0.001631 0.000000
v 0.005730 -0.001437 0.000000
v 0.005844 -0.001309 0.000000
v 0.005978 -0.001263 0.000000
v 0.005620 -0.001863 0.000000
v 0.005654 -0.001631 -0.039946
v 0.005731 -0.001437 -0.040080
v 0.005845 -0.001309 -0.040277
v 0.005978 -0.001263 -0.040510
v 0.005624 -0.001863 -0.039894
v 0.022023 0.001231 0.011865
v 0.022092 0.000570 0.011686
v 0.022123 0.000281 0.011065
v 0.022770 0.000568 0.011008
v 0.022991 0.001240 0.010885
v 0.022707 0.001236 0.011578
v 0.022123 0.000281 -0.011065
v 0.022092 0.000570 -0.011686
v 0.022023 0.001231 -0.011865
v 0.022707 0.001236 -0.011578
v 0.022991 0.001240 -0.010885
v 0.022770 0.000568 -0.011009
v 0.020515 0.016304 0.008299
v 0.020540 0.016035 0.009036
v 0.020606 0.015355 0.009427
v 0.021292 0.015350 0.009141
v 0.021576 0.015345 0.008450
v 0.021230 0.016028 0.008340
v 0.020606 0.015355 -0.009427
v 0.020540 0.016035 -0.009037
v 0.020515 0.016304 -0.008300
v 0.021230 0.016028 -0.008340
v 0.021576 0.015345 -0.008451
v 0.021292 0.015350 -0.009141
v -0.021568 0.015345 0.008450
v -0.021284 0.015350 0.009141
v -0.020598 0.015355 0.009427
v -0.020533 0.016035 0.009036
v -0.020508 0.016304 0.008299
v -0.021223 0.016028 0.008340
v -0.020598 0.015355 -0.009427
v -0.021284 0.015350 -0.009141
v -0.021568 0.015345 -0.008451
v -0.021223 0.016028 -0.008340
v -0.020508 0.016304 -0.008300
v -0.020533 0.016035 -0.009037
v -0.022116 0.000281 0.011065
v -0.022084 0.000570 0.011686
v -0.022016 0.001231 0.011865
v -0.022700 0.001236 0.011578
v -0.022983 0.001240 0.010885
v -0.022762 0.000568 0.011008
v -0.022016 0.001231 -0.011865
v -0.022084 0.000570 -0.011686
v -0.022116 0.000281 -0.011065
v -0.022762 0.000568 -0.011009
v -0.022983 0.001240 -0.010885
v -0.022700 0.001236 -0.011578
v 0.022624 0.000703 0.011531
v 0.022624 0.000703 -0.011531
v 0.021107 0.015902 0.008920
v 0.021107 0.015902 -0.008920
v -0.021099 0.015902 0.008920
v -0.021099 0.015902 -0.008920
v -0.022617 0.000703 0.011531
v -0.022617 0.000703 -0.011531
v 0.019528 0.016304 -0.007352
v -0.019520 0.016304 -0.007352
v -0.019520 0.016304 0.007352
v 0.019528 0.016304 0.007352
v 0.017212 0.017414 -0.005036
v -0.017204 0.017414 -0.005036
v -0.017204 0.017414 0.005036
v 0.017212 0.017414 0.005036
v 0.001912 -0.020892 0.006681
v 0.001912 -0.020892 -0.006682
v 0.001912 0.001224 0.006681
v 0.001912 0.001224 -0.006682
v -0.001913 0.001224 0.006681
v -0.001913 0.001224 -0.006682
v -0.001913 -0.020892 0.006681
v -0.001913 -0.020892 -0.006682
vn -0.0000 1.0000 -0.0000
vn -0.0000 1.0000 0.0001
vn 0.0002 1.0000 0.0001
vn 0.0006 1.0000 -0.0000
vn 0.0002 1.0000 -0.0001
vn -0.0000 1.0000 -0.0001
vn -0.0002 1.0000 -0.0001
vn -0.0006 1.0000 -0.0000
vn -0.0002 1.0000 0.0001
vn -0.0107 -0.0000 -0.9999
vn -0.0000 -0.0000 -1.0000
vn -1.0000 -0.0000 -0.0000
vn -0.9999 -0.0000 -0.0106
vn -0.9999 -0.0000 0.0106
vn -0.0000 -0.0000 1.0000
vn -0.0107 -0.0000 0.9999
vn 0.0107 -0.0000 0.9999
vn 1.0000 -0.0000 -0.0000
vn 0.9999 -0.0000 0.0106
vn 0.9999 -0.0000 -0.0106
vn 0.0107 -0.0000 -0.9999
vn -0.9239 -0.0000 -0.3827
vn -0.7071 -0.0000 -0.7071
vn -0.3827 -0.0000 -0.9239
vn -0.3825 -0.0000 0.9240
vn -0.7072 -0.0000 0.7070
vn -0.9239 -0.0000 0.3827
vn -0.9999 -0.0000 0.0107
vn 0.9239 -0.0000 0.3827
vn 0.7072 -0.0000 0.7070
vn 0.3825 -0.0000 0.9240
vn 0.3827 -0.0000 -0.9239
vn 0.7071 -0.0000 -0.7071
vn 0.9239 -0.0000 -0.3827
vn 0.9999 -0.0000 -0.0107
vn -0.0000 -1.0000 -0.0000
vn -0.0000 1.0000 0.0003
vn -0.0000 0.9280 0.3726
vn -0.3662 0.9286 0.0606
vn -0.0001 1.0000 0.0001
vn -0.0000 0.7197 0.6943
vn -0.0002 0.7506 0.6608
vn -0.0000 0.4045 0.9145
vn 0.0001 0.4279 0.9038
vn -0.0000 0.0315 0.9995
vn 0.0152 0.0320 0.9994
vn -0.0001 0.4279 0.9038
vn -0.0151 0.0320 0.9994
vn 0.0002 0.7506 0.6608
vn 0.3658 0.9287 0.0606
vn 0.0001 1.0000 -0.0000
vn 0.9998 0.0219 -0.0017
vn 0.9614 0.2753 -0.0005
vn 0.9688 0.2478 -0.0000
vn 0.9998 0.0214 -0.0000
vn 0.8191 0.5736 -0.0004
vn 0.8594 0.5113 -0.0000
vn 0.5750 0.8181 -0.0000
vn 0.0008 1.0000 -0.0000
vn 0.9614 0.2753 0.0005
vn 0.9998 0.0218 0.0017
vn 0.8191 0.5736 0.0004
vn 0.3657 0.9288 -0.0606
vn 0.0001 1.0000 -0.0001
vn -0.0156 0.0320 -0.9994
vn -0.0005 0.4280 -0.9038
vn -0.0000 0.4044 -0.9146
vn -0.0000 0.0315 -0.9995
vn -0.0001 0.7506 -0.6608
vn -0.0000 0.7197 -0.6943
vn -0.0000 0.9279 -0.3727
vn -0.0000 1.0000 -0.0003
vn 0.0005 0.4281 -0.9037
vn 0.0156 0.0320 -0.9994
vn 0.0001 0.7506 -0.6607
vn -0.3661 0.9286 -0.0605
vn -0.0001 1.0000 -0.0000
vn -0.9998 0.0215 0.0012
vn -0.9615 0.2749 0.0001
vn -0.9689 0.2474 -0.0000
vn -0.9998 0.0211 -0.0000
vn -0.8193 0.5734 -0.0000
vn -0.8595 0.5111 -0.0000
vn -0.5752 0.8180 -0.0000
vn -0.0007 1.0000 -0.0000
vn -0.9614 0.2750 -0.0001
vn -0.9998 0.0216 -0.0012
vn -0.0156 0.0257 0.9995
vn -0.0000 0.0257 0.9997
vn 0.9998 0.0181 -0.0000
vn 0.9998 0.0181 -0.0018
vn 0.9998 0.0181 0.0018
vn -0.0000 0.0258 -0.9997
vn -0.0161 0.0258 -0.9995
vn 0.0162 0.0258 -0.9995
vn -0.9998 0.0179 -0.0000
vn -0.9998 0.0179 0.0013
vn -0.9998 0.0179 -0.0013
vn 0.0157 0.0257 0.9995
vn -0.0060 -0.9999 0.0125
vn -0.0061 -0.9999 -0.0123
vn 0.0060 -0.9999 -0.0123
vn 0.0062 -0.9999 0.0123
vn 0.9969 0.0766 -0.0164
vn 0.9933 0.1152 -0.0119
vn 0.9933 0.1152 0.0119
vn 0.9969 0.0766 0.0164
vn 0.0060 0.1859 0.9825
vn -0.0060 0.1859 0.9825
vn -0.0070 0.1487 0.9889
vn 0.0069 0.1486 0.9889
vn -0.0069 0.1487 -0.9889
vn -0.0060 0.1859 -0.9825
vn 0.0061 0.1859 -0.9825
vn 0.0070 0.1487 -0.9889
vn 0.0390 0.9925 -0.1156
vn -0.0390 0.9925 -0.1156
vn -0.0390 0.9925 0.1156
vn 0.0390 0.9925 0.1156
vn -0.9933 0.1152 -0.0119
vn -0.9969 0.0766 -0.0164
vn -0.9969 0.0766 0.0164
vn -0.9933 0.1152 0.0119
vn 0.0040 -0.9069 0.4214
vn -0.0040 -0.9069 0.4214
vn 0.0047 -0.2604 0.9655
vn -0.0048 -0.2604 0.9655
vn 0.9509 -0.3095 0.0100
vn 0.9509 -0.3095 -0.0100
vn 0.4048 -0.9144 0.0074
vn 0.4047 -0.9144 -0.0075
vn 0.3785 0.1821 0.9075
vn 0.3768 0.2048 0.9034
vn 0.9161 0.1424 0.3747
vn 0.9127 0.1662 0.3734
vn 0.0047 -0.2604 -0.9655
vn -0.0048 -0.2604 -0.9655
vn 0.0040 -0.9069 -0.4214
vn -0.0041 -0.9069 -0.4214
vn 0.9162 0.1424 -0.3747
vn 0.9127 0.1662 -0.3733
vn 0.3785 0.1821 -0.9075
vn 0.3768 0.2048 -0.9034
vn 0.0038 0.4985 0.8669
vn -0.0038 0.4977 0.8673
vn 0.0043 0.9395 0.3426
vn 0.0686 0.9846 0.1608
vn -0.0686 0.9847 0.1604
vn -0.0043 0.9395 0.3426
vn 0.3588 0.9334 0.0103
vn 0.3588 0.9334 -0.0103
vn 0.0686 0.9847 -0.1604
vn 0.8922 0.4515 0.0086
vn 0.8922 0.4515 -0.0085
vn 0.0043 0.9395 -0.3426
vn -0.0044 0.9395 -0.3426
vn -0.0686 0.9846 -0.1609
vn 0.0038 0.4977 -0.8673
vn -0.0039 0.4977 -0.8673
vn -0.3768 0.2048 0.9034
vn -0.3785 0.1821 0.9075
vn -0.9127 0.1663 0.3733
vn -0.9162 0.1425 0.3747
vn -0.8922 0.4515 0.0084
vn -0.8922 0.4515 -0.0084
vn -0.3588 0.9334 0.0103
vn -0.3588 0.9334 -0.0104
vn -0.9127 0.1662 -0.3733
vn -0.9161 0.1424 -0.3747
vn -0.3768 0.2048 -0.9034
vn -0.3785 0.1821 -0.9075
vn -0.4029 -0.9152 0.0074
vn -0.4048 -0.9144 -0.0074
vn -0.9509 -0.3095 0.0100
vn -0.9509 -0.3095 -0.0100
vn 0.3539 -0.1779 0.9182
vn 0.3697 -0.8511 0.3728
vn 0.9149 -0.2088 0.3455
vn 0.3696 -0.8511 -0.3728
vn 0.3539 -0.1780 -0.9182
vn 0.9149 -0.2088 -0.3454
vn 0.3064 0.9051 0.2948
vn 0.3165 0.4726 0.8225
vn 0.8399 0.4442 0.3118
vn 0.3166 0.4724 -0.8226
vn 0.3065 0.9051 -0.2946
vn 0.8398 0.4444 -0.3118
vn -0.8400 0.4440 0.3119
vn -0.3162 0.4728 0.8225
vn -0.3065 0.9050 0.2949
vn -0.3165 0.4726 -0.8225
vn -0.8398 0.4443 -0.3121
vn -0.3067 0.9051 -0.2945
vn -0.3695 -0.8512 0.3728
vn -0.3537 -0.1782 0.9182
vn -0.9149 -0.2088 0.3455
vn -0.3537 -0.1782 -0.9182
vn -0.3695 -0.8512 -0.3728
vn -0.9149 -0.2088 -0.3456
vn -0.0513 0.9871 -0.1520
vn 0.0513 0.9871 -0.1520
vn -0.0513 0.9871 0.1520
vn 0.0513 0.9871 0.1520
vt 0.841243 0.308365
vt 0.841315 0.348255
vt 0.835719 0.348438
vt 0.835763 0.308365
vt 0.835719 0.268290
vt 0.841315 0.268476
vt 0.846885 0.268310
vt 0.846714 0.308365
vt 0.846885 0.348418
vt 0.752836 0.196266
vt 0.765703 0.196266
vt 0.765703 0.252284
vt 0.752836 0.252284
vt 0.765703 0.127389
vt 0.765703 0.183405
vt 0.752836 0.183405
vt 0.752836 0.127389
vt 0.752836 0.071373
vt 0.765703 0.071373
vt 0.765703 0.002494
vt 0.765703 0.058512
vt 0.752836 0.058512
vt 0.752836 0.002494
vt 0.752836 0.446057
vt 0.765703 0.446057
vt 0.765703 0.502074
vt 0.752836 0.502074
vt 0.765703 0.377180
vt 0.765703 0.433195
vt 0.752836 0.433195
vt 0.752836 0.377180
vt 0.752836 0.321163
vt 0.765703 0.321163
vt 0.765703 0.308302
vt 0.752836 0.308302
vt 0.765703 0.186621
vt 0.752836 0.186621
vt 0.765703 0.189836
vt 0.752836 0.189836
vt 0.765703 0.193051
vt 0.752836 0.193051
vt 0.765703 0.061727
vt 0.752836 0.061727
vt 0.765703 0.064942
vt 0.752836 0.064942
vt 0.765703 0.068158
vt 0.752836 0.068158
vt 0.765703 0.436411
vt 0.752836 0.436411
vt 0.765703 0.439626
vt 0.752836 0.439626
vt 0.765703 0.442841
vt 0.752836 0.442841
vt 0.765703 0.311517
vt 0.752836 0.311517
vt 0.765703 0.314732
vt 0.752836 0.314732
vt 0.765703 0.317948
vt 0.752836 0.317948
vt 0.053600 0.008761
vt 0.047795 0.011197
vt 0.048422 0.008043
vt 0.050208 0.005370
vt 0.052881 0.003583
vt 0.774541 0.366813
vt 0.769364 0.367530
vt 0.768737 0.364377
vt 0.030473 0.187808
vt 0.032260 0.190482
vt 0.032887 0.193635
vt 0.032260 0.196789
vt 0.030473 0.199462
vt 0.774541 0.249918
vt 0.768737 0.252354
vt 0.769364 0.249201
vt 0.166390 0.264282
vt 0.167109 0.259104
vt 0.169782 0.260890
vt 0.171568 0.263564
vt 0.172195 0.266717
vt 0.016895 0.459525
vt 0.018681 0.462198
vt 0.019308 0.465352
vt 0.018681 0.468505
vt 0.016895 0.471179
vt 0.166384 0.381188
vt 0.172189 0.378753
vt 0.171561 0.381906
vt 0.169775 0.384580
vt 0.167101 0.386366
vt 0.564111 0.992156
vt 0.558933 0.992873
vt 0.558306 0.989720
vt 0.004937 0.990207
vt 0.003151 0.987533
vt 0.002524 0.984380
vt 0.003151 0.981226
vt 0.004937 0.978553
vt 0.564111 0.875252
vt 0.558306 0.877687
vt 0.558933 0.874534
vt 0.053603 0.125667
vt 0.052885 0.130845
vt 0.050212 0.129059
vt 0.048425 0.126386
vt 0.047798 0.123232
vt 0.002494 0.952023
vt 0.004280 0.954697
vt 0.004907 0.957850
vt 0.004280 0.961004
vt 0.002494 0.963677
vt 0.071246 0.067205
vt 0.071485 0.067205
vt 0.071487 0.073096
vt 0.071249 0.073230
vt 0.071724 0.067205
vt 0.071725 0.072981
vt 0.071963 0.067205
vt 0.071962 0.072903
vt 0.072201 0.067205
vt 0.072201 0.072873
vt 0.071962 0.061483
vt 0.072201 0.061513
vt 0.071725 0.061405
vt 0.071487 0.061290
vt 0.071248 0.061156
vt 0.827695 0.348553
vt 0.827460 0.348605
vt 0.827494 0.308365
vt 0.827729 0.308365
vt 0.827249 0.348740
vt 0.827283 0.308365
vt 0.827076 0.348939
vt 0.827110 0.308365
vt 0.826934 0.349173
vt 0.826968 0.308365
vt 0.827460 0.268123
vt 0.827695 0.268175
vt 0.827249 0.267988
vt 0.827076 0.267789
vt 0.826934 0.267555
vt 0.147791 0.317033
vt 0.148030 0.317003
vt 0.148027 0.322725
vt 0.147788 0.322725
vt 0.148267 0.316925
vt 0.148266 0.322725
vt 0.148505 0.316811
vt 0.148505 0.322725
vt 0.148743 0.316676
vt 0.148744 0.322725
vt 0.148029 0.328423
vt 0.147790 0.328393
vt 0.148266 0.328501
vt 0.148504 0.328615
vt 0.148743 0.328750
vt 0.617308 0.973891
vt 0.617073 0.973943
vt 0.617074 0.933704
vt 0.617309 0.933704
vt 0.616863 0.974078
vt 0.616863 0.933704
vt 0.616690 0.974277
vt 0.616690 0.933704
vt 0.616548 0.974511
vt 0.616548 0.933704
vt 0.617073 0.893468
vt 0.617309 0.893519
vt 0.616863 0.893333
vt 0.616690 0.893133
vt 0.616549 0.892899
vt 0.047795 0.067215
vt 0.768744 0.308365
vt 0.172195 0.322735
vt 0.558306 0.933704
vt 0.080227 0.061607
vt 0.080233 0.067207
vt 0.139757 0.322727
vt 0.139763 0.317126
vt 0.139763 0.328300
vt 0.625338 0.933704
vt 0.625335 0.973769
vt 0.625336 0.893641
vt 0.080228 0.072779
vt 0.684679 0.925325
vt 0.707714 0.923355
vt 0.710553 0.966504
vt 0.687655 0.967622
vt 0.684000 0.991517
vt 0.669194 0.987025
vt 0.672167 0.969123
vt 0.686346 0.969027
vt 0.672299 0.967648
vt 0.669596 0.927875
vt 0.683349 0.925603
vt 0.686306 0.967539
vt 0.709092 0.923339
vt 0.724007 0.922931
vt 0.726509 0.964925
vt 0.711902 0.966345
vt 0.534757 0.795634
vt 0.534757 0.760967
vt 0.544903 0.760967
vt 0.544903 0.795634
vt 0.662953 0.909640
vt 0.676471 0.902553
vt 0.683137 0.924134
vt 0.669183 0.926456
vt 0.686981 0.967570
vt 0.684005 0.925472
vt 0.687128 0.968865
vt 0.684724 0.991771
vt 0.687627 0.968391
vt 0.710649 0.967262
vt 0.686361 0.968268
vt 0.672301 0.968381
vt 0.711225 0.966402
vt 0.708401 0.923371
vt 0.683912 0.992317
vt 0.669002 0.987823
vt 0.711865 0.967127
vt 0.726606 0.965692
vt 0.671523 0.967674
vt 0.668854 0.927990
vt 0.670730 0.967752
vt 0.667978 0.928129
vt 0.670930 0.968579
vt 0.652887 0.969509
vt 0.652934 0.968693
vt 0.671330 0.969000
vt 0.668372 0.986814
vt 0.652113 0.968769
vt 0.652113 0.927306
vt 0.652894 0.927372
vt 0.727317 0.964861
vt 0.724833 0.922897
vt 0.669455 0.927163
vt 0.683284 0.924877
vt 0.668376 0.926740
vt 0.662206 0.909994
vt 0.668037 0.927312
vt 0.667978 0.928128
vt 0.652843 0.926616
vt 0.662622 0.908907
vt 0.676235 0.901791
vt 0.724011 0.922143
vt 0.708950 0.922556
vt 0.684538 0.924545
vt 0.707710 0.922593
vt 0.683938 0.924151
vt 0.677128 0.902168
vt 0.686977 0.968210
vt 0.711257 0.967016
vt 0.684515 0.992359
vt 0.671609 0.968337
vt 0.727248 0.965496
vt 0.652230 0.969410
vt 0.668369 0.987504
vt 0.668781 0.927345
vt 0.724684 0.922262
vt 0.662074 0.909332
vt 0.652226 0.926706
vt 0.683905 0.924829
vt 0.708351 0.922751
vt 0.676813 0.901636
vt 0.653841 0.928379
vt 0.653919 0.967583
vt 0.667135 0.928747
vt 0.669435 0.966674
vt 0.667135 0.928749
vt 0.532170 0.797967
vt 0.532170 0.758634
vt 0.532424 0.758380
vt 0.547235 0.758380
vt 0.547490 0.758634
vt 0.547489 0.797967
vt 0.547235 0.798221
vt 0.532424 0.798221
vt 0.000977 0.000977
s 1
usemtl Material.001
f 54/1/1 53/2/2 55/3/3
f 54/1/1 55/3/3 56/4/4
f 54/1/1 56/4/4 57/5/5
f 54/1/1 57/5/5 58/6/6
f 54/1/1 58/6/6 59/7/7
f 54/1/1 59/7/7 60/8/8
f 54/1/1 60/8/8 61/9/9
f 54/1/1 61/9/9 53/2/2
f 19/10/10 14/11/10 1/12/11 5/13/11
f 2/14/12 12/15/13 15/16/13 6/17/12
f 30/18/14 25/19/14 2/14/12 6/17/12
f 3/20/15 23/21/16 26/22/16 7/23/15
f 41/24/17 36/25/17 3/26/15 7/27/15
f 4/28/18 34/29/19 37/30/19 8/31/18
f 52/32/20 47/33/20 4/28/18 8/31/18
f 1/12/11 45/34/21 48/35/21 5/13/11
f 12/15/13 11/36/22 16/37/22 15/16/13
f 11/36/22 10/38/23 17/39/23 16/37/22
f 10/38/23 9/40/24 18/41/24 17/39/23
f 9/40/24 14/11/10 19/10/10 18/41/24
f 23/21/16 22/42/25 27/43/25 26/22/16
f 22/42/25 21/44/26 28/45/26 27/43/25
f 21/44/26 20/46/27 29/47/27 28/45/26
f 20/46/27 25/19/28 30/18/28 29/47/27
f 34/29/19 33/48/29 38/49/29 37/30/19
f 33/48/29 32/50/30 39/51/30 38/49/29
f 32/50/30 31/52/31 40/53/31 39/51/30
f 31/52/31 36/25/17 41/24/17 40/53/31
f 45/34/21 44/54/32 49/55/32 48/35/21
f 44/54/32 43/56/33 50/57/33 49/55/32
f 43/56/33 42/58/34 51/59/34 50/57/33
f 42/58/34 47/33/35 52/32/35 51/59/34
f 13/60/1 14/61/1 9/62/1
f 13/60/1 9/62/1 10/63/1
f 13/60/1 10/63/1 11/64/1
f 13/65/1 11/66/1 12/67/1
f 15/68/36 16/69/36 17/70/36 18/71/36 19/72/36
f 24/73/1 25/74/1 20/75/1
f 24/76/1 20/77/1 21/78/1
f 24/76/1 21/78/1 22/79/1
f 24/76/1 22/79/1 23/80/1
f 26/81/36 27/82/36 28/83/36 29/84/36 30/85/36
f 35/86/1 36/87/1 31/88/1
f 35/86/1 31/88/1 32/89/1
f 35/86/1 32/89/1 33/90/1
f 35/91/1 33/92/1 34/93/1
f 37/94/36 38/95/36 39/96/36 40/97/36 41/98/36
f 46/99/1 47/100/1 42/101/1
f 46/102/1 42/103/1 43/104/1
f 46/102/1 43/104/1 44/105/1
f 46/102/1 44/105/1 45/106/1
f 48/107/36 49/108/36 50/109/36 51/110/36 52/111/36
f 65/112/37 64/113/38 99/114/39 100/115/40
f 64/113/38 63/116/41 98/117/42 99/114/39
f 63/116/41 62/118/43 97/119/44 98/117/42
f 62/118/43 66/120/45 101/121/46 97/119/44
f 66/120/45 62/118/43 67/122/47 71/123/48
f 62/118/43 63/116/41 68/124/49 67/122/47
f 63/116/41 64/113/38 69/125/50 68/124/49
f 64/113/38 65/112/37 70/126/51 69/125/50
f 71/127/52 67/128/53 72/129/54 76/130/55
f 67/128/53 68/131/56 73/132/57 72/129/54
f 68/131/56 69/133/50 74/134/58 73/132/57
f 69/133/50 70/135/51 75/136/59 74/134/58
f 76/130/55 72/129/54 77/137/60 81/138/61
f 72/129/54 73/132/57 78/139/62 77/137/60
f 73/132/57 74/134/58 79/140/63 78/139/62
f 74/134/58 75/136/59 80/141/64 79/140/63
f 81/142/65 77/143/66 82/144/67 86/145/68
f 77/143/66 78/146/69 83/147/70 82/144/67
f 78/146/69 79/148/63 84/149/71 83/147/70
f 79/148/63 80/150/64 85/151/72 84/149/71
f 86/145/68 82/144/67 87/152/73 91/153/74
f 82/144/67 83/147/70 88/154/75 87/152/73
f 83/147/70 84/149/71 89/155/76 88/154/75
f 84/149/71 85/151/72 90/156/77 89/155/76
f 91/157/78 87/158/79 92/159/80 96/160/81
f 87/158/79 88/161/82 93/162/83 92/159/80
f 88/161/82 89/163/76 94/164/84 93/162/83
f 89/163/76 90/165/77 95/166/85 94/164/84
f 96/160/81 92/159/80 97/167/86 101/168/87
f 92/159/80 93/162/83 98/169/82 97/167/86
f 93/162/83 94/164/84 99/170/39 98/169/82
f 94/164/84 95/166/85 100/171/40 99/170/39
f 70/126/51 65/112/37 1/172/1 14/61/1 13/60/1
f 75/136/59 70/135/51 13/65/1 12/67/1 2/173/1
f 80/141/64 75/136/59 2/173/1 25/74/1 24/73/1
f 85/151/72 80/150/64 24/76/1 23/80/1 3/174/1
f 90/156/77 85/151/72 3/174/1 36/87/1 35/86/1
f 95/166/85 90/165/77 35/91/1 34/93/1 4/175/1
f 100/171/40 95/166/85 4/175/1 47/100/1 46/99/1
f 65/112/37 100/115/40 46/102/1 45/106/1 1/172/1
f 66/120/45 71/123/48 55/176/88 53/177/89
f 71/127/52 76/130/55 56/4/90 55/3/91
f 76/130/55 81/138/61 57/5/92 56/4/90
f 81/142/65 86/145/68 58/178/93 57/179/94
f 86/145/68 91/153/74 59/180/95 58/178/93
f 91/157/78 96/160/81 60/181/96 59/182/97
f 96/160/81 101/168/87 61/183/98 60/181/96
f 101/121/46 66/120/45 53/177/89 61/184/99
f 138/185/100 146/186/101 108/187/102 104/188/103
f 112/189/104 124/190/105 118/191/106 106/192/107
f 116/193/108 128/194/109 140/195/110 102/196/111
f 144/197/112 132/198/113 120/199/114 110/200/115
f 162/201/116 163/202/117 164/203/118 165/204/119
f 134/205/120 148/206/121 142/207/122 126/208/123
f 104/188/103 103/209/124 139/210/125 138/185/100
f 103/209/126 102/196/111 140/195/110 139/210/127
f 106/192/107 105/211/128 113/212/129 112/189/104
f 105/213/130 104/188/103 108/187/102 113/214/131
f 102/196/111 107/215/132 117/216/133 116/193/108
f 107/215/134 106/192/107 118/191/106 117/216/135
f 110/200/115 109/217/136 145/218/137 144/197/112
f 109/217/138 108/187/102 146/186/101 145/218/139
f 112/189/104 111/219/140 125/220/141 124/190/105
f 111/221/142 110/200/115 120/199/114 125/222/143
f 116/193/108 115/223/144 129/224/145 128/194/109
f 115/223/146 114/225/147 130/226/148 129/224/149
f 114/225/147 119/227/150 123/228/151 122/229/152
f 119/230/153 118/191/106 124/190/105 123/231/154
f 122/229/152 121/232/155 137/233/156 136/234/157
f 121/235/158 120/199/114 132/198/113 137/236/159
f 128/194/109 127/237/160 141/238/161 140/195/110
f 127/237/162 126/208/123 142/207/122 141/238/163
f 126/208/123 131/239/164 135/240/165 134/205/120
f 131/241/166 130/242/148 136/234/157 135/243/167
f 134/205/120 133/244/168 149/245/169 148/206/121
f 133/246/170 132/198/113 144/197/112 149/247/171
f 138/185/100 143/248/172 147/249/173 146/186/101
f 143/250/174 142/207/122 148/206/121 147/251/175
f 107/215/132 102/196/111 103/209/126 150/252/176
f 103/209/124 104/188/103 105/213/130 150/252/177
f 105/211/128 106/192/107 107/215/134 150/252/178
f 113/214/131 108/187/102 109/217/138 151/253/179
f 109/217/136 110/200/115 111/221/142 151/253/180
f 111/219/140 112/189/104 113/212/129 151/254/181
f 119/227/150 114/225/147 115/223/146 152/255/182
f 115/223/144 116/193/108 117/216/133 152/255/183
f 117/216/135 118/191/106 119/230/153 152/255/184
f 125/222/143 120/199/114 121/235/158 153/256/185
f 121/232/155 122/229/152 123/228/151 153/257/186
f 123/231/154 124/190/105 125/220/141 153/258/187
f 131/239/164 126/208/123 127/237/162 154/259/188
f 127/237/160 128/194/109 129/224/145 154/259/189
f 129/224/149 130/242/148 131/241/166 154/259/190
f 137/236/159 132/198/113 133/246/170 155/260/191
f 133/244/168 134/205/120 135/240/165 155/261/192
f 135/243/167 136/234/157 137/233/156 155/262/193
f 143/248/172 138/185/100 139/210/125 156/263/194
f 139/210/127 140/195/110 141/238/161 156/263/195
f 141/238/163 142/207/122 143/250/174 156/263/196
f 149/247/171 144/197/112 145/218/137 157/264/197
f 145/218/139 146/186/101 147/249/173 157/264/198
f 147/251/175 148/206/121 149/245/169 157/265/199
f 122/229/152 136/234/157 159/266/200 158/267/201
f 136/234/157 130/242/148 160/268/202 159/266/200
f 130/226/148 114/225/147 161/269/203 160/270/202
f 114/225/147 122/229/152 158/267/201 161/269/203
f 158/271/201 159/272/200 163/202/117 162/201/116
f 159/273/200 160/274/202 164/203/118 163/202/117
f 160/275/202 161/276/203 165/204/119 164/203/118
f 161/277/203 158/278/201 162/201/116 165/204/119
f 166/279/18 167/279/18 169/279/18 168/279/18
f 168/279/1 169/279/1 171/279/1 170/279/1
f 170/279/12 171/279/12 173/279/12 172/279/12
f 172/279/36 173/279/36 167/279/36 166/279/36
f 167/279/11 173/279/11 171/279/11 169/279/11
f 172/279/15 166/279/15 168/279/15 170/279/15
