# Blender 4.1.1
# www.blender.org
mtllib Cigarette.mtl
o Cylinder
v -0.014066 0.004499 0.000895
v 0.014066 0.004499 0.000895
v -0.014066 0.004499 -0.000895
v 0.014066 0.004499 -0.000895
v -0.014066 0.003814 -0.002548
v 0.014066 0.003814 -0.002548
v -0.014066 0.002548 -0.003814
v 0.014066 0.002548 -0.003814
v -0.014066 0.000895 -0.004499
v 0.014066 0.000895 -0.004499
v -0.014066 -0.000895 -0.004499
v 0.014066 -0.000895 -0.004499
v -0.014066 -0.002548 -0.003814
v 0.014066 -0.002548 -0.003814
v -0.014066 -0.003814 -0.002548
v 0.014066 -0.003814 -0.002548
v -0.014066 -0.004499 -0.000895
v 0.014066 -0.004499 -0.000895
v -0.014066 -0.004499 0.000895
v 0.014066 -0.004499 0.000895
v -0.014066 -0.003814 0.002548
v 0.014066 -0.003814 0.002548
v -0.014066 -0.002548 0.003814
v 0.014066 -0.002548 0.003814
v -0.014066 -0.000895 0.004499
v 0.014066 -0.000895 0.004499
v -0.014066 0.000895 0.004499
v 0.014066 0.000895 0.004499
v -0.014066 0.002548 0.003814
v 0.014066 0.002548 0.003814
v -0.014066 0.003814 0.002548
v 0.014066 0.003814 0.002548
v 0.014785 0.004499 -0.000895
v 0.014785 0.004499 0.000895
v 0.014785 0.003814 -0.002548
v 0.014785 0.002548 -0.003814
v 0.014785 0.000895 -0.004499
v 0.014785 -0.000895 -0.004499
v 0.014785 -0.002548 -0.003814
v 0.014785 -0.003814 -0.002548
v 0.014785 -0.004499 -0.000895
v 0.014785 -0.004499 0.000895
v 0.014785 -0.003814 0.002548
v 0.014785 -0.002548 0.003814
v 0.014785 -0.000895 0.004499
v 0.014785 0.000895 0.004499
v 0.014785 0.002548 0.003814
v 0.014785 0.003814 0.002548
v 0.023771 0.004499 -0.000895
v 0.023771 0.004499 0.000895
v 0.023771 0.003814 -0.002548
v 0.023771 0.002548 -0.003814
v 0.023771 0.000895 -0.004499
v 0.023771 -0.000895 -0.004499
v 0.023771 -0.002548 -0.003814
v 0.023771 -0.003814 -0.002548
v 0.023771 -0.004499 -0.000895
v 0.023771 -0.004499 0.000895
v 0.023771 -0.003814 0.002548
v 0.023771 -0.002548 0.003814
v 0.023771 -0.000895 0.004499
v 0.023771 0.000895 0.004499
v 0.023771 0.002548 0.003814
v 0.023771 0.003814 0.002548
v 0.084652 0.004234 -0.000842
v 0.084652 0.004234 0.000842
v 0.084652 0.003589 -0.002398
v 0.084652 0.002398 -0.003589
v 0.084652 0.000842 -0.004234
v 0.084652 -0.000842 -0.004234
v 0.084652 -0.002398 -0.003589
v 0.084652 -0.003589 -0.002398
v 0.084652 -0.004234 -0.000842
v 0.084652 -0.004234 0.000842
v 0.084652 -0.003589 0.002398
v 0.084652 -0.002398 0.003589
v 0.084652 -0.000842 0.004234
v 0.084652 0.000842 0.004234
v 0.084652 0.002398 0.003589
v 0.084652 0.003589 0.002398
v 0.084652 0.004499 -0.000895
v 0.084652 0.004499 0.000895
v 0.084652 0.003814 -0.002548
v 0.084652 0.002548 -0.003814
v 0.084652 0.000895 -0.004499
v 0.084652 -0.000895 -0.004499
v 0.084652 -0.002548 -0.003814
v 0.084652 -0.003814 -0.002548
v 0.084652 -0.004499 -0.000895
v 0.084652 -0.004499 0.000895
v 0.084652 -0.003814 0.002548
v 0.084652 -0.002548 0.003814
v 0.084652 -0.000895 0.004499
v 0.084652 0.000895 0.004499
v 0.084652 0.002548 0.003814
v 0.084652 0.003814 0.002548
v 0.084478 0.004234 -0.000842
v 0.084478 0.004234 0.000842
v 0.084478 0.003589 -0.002398
v 0.084478 0.002398 -0.003589
v 0.084478 0.000842 -0.004234
v 0.084478 -0.000842 -0.004234
v 0.084478 -0.002398 -0.003589
v 0.084478 -0.003589 -0.002398
v 0.084478 -0.004234 -0.000842
v 0.084478 -0.004234 0.000842
v 0.084478 -0.003589 0.002398
v 0.084478 -0.002398 0.003589
v 0.084478 -0.000842 0.004234
v 0.084478 0.000842 0.004234
v 0.084478 0.002398 0.003589
v 0.084478 0.003589 0.002398
vn -0.0000 0.9808 0.1951
vn -0.0000 0.9808 -0.1951
vn -0.0000 0.8315 -0.5556
vn -0.0000 0.5556 -0.8315
vn -0.0000 0.1951 -0.9808
vn -0.0000 -0.1951 -0.9808
vn -0.0000 -0.5556 -0.8315
vn -0.0000 -0.8315 -0.5556
vn -0.0000 -0.9808 -0.1951
vn -0.0000 -0.9808 0.1951
vn -0.0000 -0.8315 0.5556
vn -0.0000 -0.5556 0.8315
vn -0.0000 -0.1951 0.9808
vn -0.0000 0.1951 0.9808
vn -0.0000 0.5556 0.8315
vn -0.0000 0.8315 0.5556
vn -1.0000 -0.0000 -0.0000
vn 1.0000 -0.0000 -0.0000
vt 0.075106 0.000086
vt 0.075102 0.294788
vt 0.056382 0.294818
vt 0.056348 0.000093
vt 0.037664 0.294864
vt 0.037590 0.000101
vt 0.018948 0.294924
vt 0.018833 0.000110
vt 0.000229 0.294994
vt 0.000075 0.000120
vt 0.300270 0.000121
vt 0.300143 0.295148
vt 0.281353 0.295096
vt 0.281501 0.000112
vt 0.262570 0.295039
vt 0.262734 0.000105
vt 0.243795 0.294983
vt 0.243967 0.000097
vt 0.225028 0.294930
vt 0.225201 0.000090
vt 0.206269 0.294882
vt 0.206435 0.000084
vt 0.187516 0.294842
vt 0.187671 0.000079
vt 0.168770 0.294809
vt 0.168908 0.000076
vt 0.150027 0.294783
vt 0.150146 0.000075
vt 0.131289 0.294767
vt 0.131385 0.000075
vt 0.112556 0.294764
vt 0.112625 0.000077
vt 0.037686 0.302379
vt 0.018977 0.302440
vt 0.093827 0.294770
vt 0.093865 0.000080
vt 0.391699 0.328348
vt 0.384751 0.345122
vt 0.371912 0.357961
vt 0.355138 0.364909
vt 0.336981 0.364909
vt 0.320206 0.357961
vt 0.307368 0.345122
vt 0.300419 0.328348
vt 0.300419 0.310191
vt 0.307368 0.293416
vt 0.320206 0.280578
vt 0.336981 0.273629
vt 0.355138 0.273629
vt 0.371912 0.280578
vt 0.384751 0.293416
vt 0.391699 0.310191
vt 0.150015 0.302309
vt 0.168754 0.302337
vt 0.168500 0.396205
vt 0.149810 0.396137
vt 0.243771 0.302522
vt 0.225006 0.302466
vt 0.075109 0.302306
vt 0.056397 0.302334
vt 0.131281 0.302291
vt 0.281333 0.302644
vt 0.262546 0.302583
vt 0.187498 0.302372
vt 0.093828 0.302290
vt 0.000277 0.302516
vt 0.206248 0.302415
vt 0.112553 0.302286
vt 0.300143 0.302701
vt 0.187198 0.396293
vt 0.205903 0.396400
vt 0.200312 0.992466
vt 0.183035 0.992317
vt 0.299636 0.397260
vt 0.280854 0.397035
vt 0.131124 0.396087
vt 0.262093 0.396841
vt 0.112441 0.396055
vt 0.243349 0.396673
vt 0.093761 0.396036
vt 0.224620 0.396526
vt 0.075081 0.396031
vt 0.056400 0.396039
vt 0.037713 0.396069
vt 0.019042 0.396112
vt 0.000950 0.396259
vt 0.302179 0.051338
vt 0.302179 0.068426
vt 0.300419 0.068426
vt 0.300419 0.051338
vt 0.044613 0.991363
vt 0.026942 0.992141
vt 0.166129 0.992080
vt 0.008885 0.995024
vt 0.148878 0.991871
vt 0.287555 0.997372
vt 0.270064 0.994410
vt 0.131532 0.991681
vt 0.252429 0.993317
vt 0.114164 0.991512
vt 0.234665 0.992889
vt 0.096792 0.991366
vt 0.217616 0.992687
vt 0.079421 0.991253
vt 0.062043 0.991209
vt 0.079382 0.993992
vt 0.062026 0.993949
vt 0.044666 0.994116
vt 0.027222 0.994942
vt 0.009857 0.997668
vt 0.286580 0.999925
vt 0.269767 0.997064
vt 0.252310 0.996203
vt 0.234622 0.995628
vt 0.217593 0.995285
vt 0.200281 0.995301
vt 0.182993 0.994903
vt 0.166074 0.994773
vt 0.148822 0.994598
vt 0.131477 0.994418
vt 0.114112 0.994251
vt 0.096745 0.994105
vt 0.381696 0.018697
vt 0.388236 0.034484
vt 0.388236 0.051572
vt 0.381696 0.067360
vt 0.369613 0.079443
vt 0.353826 0.085982
vt 0.336738 0.085982
vt 0.320951 0.079443
vt 0.308867 0.067360
vt 0.302328 0.051572
vt 0.302328 0.034484
vt 0.308867 0.018697
vt 0.320951 0.006614
vt 0.336738 0.000075
vt 0.353826 0.000075
vt 0.369613 0.006614
vt 0.302179 0.085514
vt 0.300419 0.085514
vt 0.302179 0.188041
vt 0.302179 0.205129
vt 0.300419 0.205129
vt 0.300419 0.188041
vt 0.302179 0.034250
vt 0.300419 0.034250
vt 0.302179 0.170953
vt 0.300419 0.170953
vt 0.302179 0.017163
vt 0.300419 0.017163
vt 0.302179 0.153865
vt 0.300419 0.153865
vt 0.302179 0.000075
vt 0.300419 0.000075
vt 0.302179 0.136777
vt 0.300419 0.136777
vt 0.302179 0.256392
vt 0.302179 0.273480
vt 0.300419 0.273480
vt 0.300419 0.256392
vt 0.302179 0.119689
vt 0.300419 0.119689
vt 0.302179 0.239304
vt 0.300419 0.239304
vt 0.302179 0.102602
vt 0.300419 0.102602
vt 0.302179 0.222216
vt 0.300419 0.222216
s 1
usemtl UVS
f 1/1/1 2/2/1 4/3/2 3/4/2
f 3/4/2 4/3/2 6/5/3 5/6/3
f 5/6/3 6/5/3 8/7/4 7/8/4
f 7/8/4 8/7/4 10/9/5 9/10/5
f 9/11/5 10/12/5 12/13/6 11/14/6
f 11/14/6 12/13/6 14/15/7 13/16/7
f 13/16/7 14/15/7 16/17/8 15/18/8
f 15/18/8 16/17/8 18/19/9 17/20/9
f 17/20/9 18/19/9 20/21/10 19/22/10
f 19/22/10 20/21/10 22/23/11 21/24/11
f 21/24/11 22/23/11 24/25/12 23/26/12
f 23/26/12 24/25/12 26/27/13 25/28/13
f 25/28/13 26/27/13 28/29/14 27/30/14
f 27/30/14 28/29/14 30/31/15 29/32/15
f 8/7/4 6/5/3 35/33/3 36/34/4
f 29/32/15 30/31/15 32/35/16 31/36/16
f 31/36/16 32/35/16 2/2/1 1/1/1
f 1/37/17 3/38/17 5/39/17 7/40/17 9/41/17 11/42/17 13/43/17 15/44/17 17/45/17 19/46/17 21/47/17 23/48/17 25/49/17 27/50/17 29/51/17 31/52/17
f 45/53/13 44/54/12 60/55/12 61/56/13
f 18/19/9 16/17/8 40/57/8 41/58/9
f 4/3/2 2/2/1 34/59/1 33/60/2
f 28/29/14 26/27/13 45/53/13 46/61/14
f 14/15/7 12/13/6 38/62/6 39/63/7
f 24/25/12 22/23/11 43/64/11 44/54/12
f 2/2/1 32/35/16 48/65/16 34/59/1
f 10/9/5 8/7/4 36/34/4 37/66/5
f 20/21/10 18/19/9 41/58/9 42/67/10
f 30/31/15 28/29/14 46/61/14 47/68/15
f 6/5/3 4/3/2 33/60/2 35/33/3
f 16/17/8 14/15/7 39/63/7 40/57/8
f 26/27/13 24/25/12 44/54/12 45/53/13
f 12/13/6 10/12/5 37/69/5 38/62/6
f 22/23/11 20/21/10 42/67/10 43/64/11
f 32/35/16 30/31/15 47/68/15 48/65/16
f 59/70/11 58/71/10 90/72/10 91/73/11
f 38/62/6 37/69/5 53/74/5 54/75/6
f 46/61/14 45/53/13 61/56/13 62/76/14
f 39/63/7 38/62/6 54/75/6 55/77/7
f 47/68/15 46/61/14 62/76/14 63/78/15
f 40/57/8 39/63/7 55/77/7 56/79/8
f 48/65/16 47/68/15 63/78/15 64/80/16
f 41/58/9 40/57/8 56/79/8 57/81/9
f 33/60/2 34/59/1 50/82/1 49/83/2
f 34/59/1 48/65/16 64/80/16 50/82/1
f 42/67/10 41/58/9 57/81/9 58/71/10
f 35/33/3 33/60/2 49/83/2 51/84/3
f 43/64/11 42/67/10 58/71/10 59/70/11
f 36/34/4 35/33/3 51/84/3 52/85/4
f 44/54/12 43/64/11 59/70/11 60/55/12
f 37/66/5 36/34/4 52/85/4 53/86/5
f 65/87/10 66/88/9 98/89/9 97/90/10
f 52/85/4 51/84/3 83/91/3 84/92/4
f 60/55/12 59/70/11 91/73/11 92/93/12
f 53/86/5 52/85/4 84/92/4 85/94/5
f 61/56/13 60/55/12 92/93/12 93/95/13
f 54/75/6 53/74/5 85/96/5 86/97/6
f 62/76/14 61/56/13 93/95/13 94/98/14
f 55/77/7 54/75/6 86/97/6 87/99/7
f 63/78/15 62/76/14 94/98/14 95/100/15
f 56/79/8 55/77/7 87/99/7 88/101/8
f 64/80/16 63/78/15 95/100/15 96/102/16
f 57/81/9 56/79/8 88/101/8 89/103/9
f 49/83/2 50/82/1 82/104/1 81/105/2
f 50/82/1 64/80/16 96/102/16 82/104/1
f 58/71/10 57/81/9 89/103/9 90/72/10
f 51/84/3 49/83/2 81/105/2 83/91/3
f 66/106/18 65/107/18 81/105/18 82/104/18
f 65/107/18 67/108/18 83/91/18 81/105/18
f 67/108/18 68/109/18 84/92/18 83/91/18
f 68/109/18 69/110/18 85/94/18 84/92/18
f 69/111/18 70/112/18 86/97/18 85/96/18
f 70/112/18 71/113/18 87/99/18 86/97/18
f 71/113/18 72/114/18 88/101/18 87/99/18
f 72/114/18 73/115/18 89/103/18 88/101/18
f 73/115/18 74/116/18 90/72/18 89/103/18
f 74/116/18 75/117/18 91/73/18 90/72/18
f 75/117/18 76/118/18 92/93/18 91/73/18
f 76/118/18 77/119/18 93/95/18 92/93/18
f 77/119/18 78/120/18 94/98/18 93/95/18
f 78/120/18 79/121/18 95/100/18 94/98/18
f 79/121/18 80/122/18 96/102/18 95/100/18
f 80/122/18 66/106/18 82/104/18 96/102/18
f 97/123/18 98/124/18 112/125/18 111/126/18 110/127/18 109/128/18 108/129/18 107/130/18 106/131/18 105/132/18 104/133/18 103/134/18 102/135/18 101/136/18 100/137/18 99/138/18
f 66/88/9 80/139/8 112/140/8 98/89/9
f 74/141/2 73/142/1 105/143/1 106/144/2
f 67/145/11 65/87/10 97/90/10 99/146/11
f 75/147/3 74/141/2 106/144/2 107/148/3
f 68/149/12 67/145/11 99/146/11 100/150/12
f 76/151/4 75/147/3 107/148/3 108/152/4
f 69/153/13 68/149/12 100/150/12 101/154/13
f 77/155/5 76/151/4 108/152/4 109/156/5
f 70/157/14 69/158/13 101/159/13 102/160/14
f 78/161/6 77/155/5 109/156/5 110/162/6
f 71/163/15 70/157/14 102/160/14 103/164/15
f 79/165/7 78/161/6 110/162/6 111/166/7
f 72/167/16 71/163/15 103/164/15 104/168/16
f 80/139/8 79/165/7 111/166/7 112/140/8
f 73/142/1 72/167/16 104/168/16 105/143/1
