# Blender 4.1.1
# www.blender.org
mtllib Touche_10.mtl
o Keys.009
v -0.020894 0.014969 0.027716
v -0.025718 0.014969 0.025718
v -0.020894 0.018268 0.025718
v -0.020894 -0.013603 0.027716
v 0.020894 0.014969 0.027716
v 0.020894 0.018268 0.025718
v 0.025718 0.014969 0.025718
v 0.020894 -0.013603 0.027716
v 0.025718 -0.013603 0.025718
v 0.020894 -0.016902 0.025718
v 0.024833 -0.016296 0.024833
v 0.020894 -0.018268 0.020894
v -0.020894 -0.016902 0.025718
v -0.024833 -0.016296 0.024833
v -0.020894 -0.018268 0.020894
v -0.025718 -0.016902 0.020894
v -0.020894 -0.018268 -0.020894
v -0.020894 -0.016902 -0.025718
v -0.025718 -0.016902 -0.020894
v 0.020894 -0.018268 -0.020894
v 0.025718 -0.016902 -0.020894
v 0.020894 -0.016902 -0.025718
v 0.020894 -0.013603 -0.027716
v 0.024833 -0.016296 -0.024833
v 0.025718 -0.013603 -0.025718
v 0.027716 -0.013603 -0.020894
v 0.025718 0.014969 -0.025718
v 0.020894 0.014969 -0.027716
v 0.024833 0.017663 -0.024833
v 0.027716 0.014969 -0.020894
v 0.025718 0.018268 -0.020894
v 0.027716 0.014969 0.020894
v 0.025718 0.018268 0.020894
v 0.027716 -0.013603 0.020894
v 0.025718 -0.016902 0.020894
v 0.024833 0.017663 0.024833
v 0.020894 0.017292 0.020894
v 0.020894 0.017292 -0.020894
v -0.020894 0.017292 0.020894
v -0.025718 0.018268 0.020894
v -0.020894 0.017292 -0.020894
v -0.025718 0.018268 -0.020894
v -0.020894 0.018268 -0.025718
v -0.024833 0.017663 -0.024833
v -0.020894 0.014969 -0.027716
v 0.020894 0.018268 -0.025718
v -0.025718 0.014969 -0.025718
v -0.020894 -0.013603 -0.027716
v -0.025718 -0.013603 -0.025718
v -0.024833 -0.016296 -0.024833
v -0.027716 -0.013603 -0.020894
v -0.027716 0.014969 -0.020894
v -0.027716 -0.013603 0.020894
v -0.025718 -0.013603 0.025718
v -0.027716 0.014969 0.020894
v -0.024833 0.017663 0.024833
vn -0.1766 -0.2470 0.9528
vn -0.1766 0.2470 0.9528
vn -0.3566 0.2183 0.9084
vn -0.3566 -0.2183 0.9084
vn -0.1548 0.4899 0.8579
vn -0.3071 0.4491 0.8390
vn 0.1766 0.2470 0.9528
vn 0.1548 0.4899 0.8579
vn 0.1766 -0.2470 0.9528
vn 0.3566 0.2183 0.9084
vn 0.3071 0.4491 0.8390
vn 0.3566 -0.2183 0.9084
vn 0.1548 -0.4899 0.8579
vn 0.3071 -0.4491 0.8390
vn -0.1548 -0.4899 0.8579
vn 0.1279 -0.9835 0.1279
vn 0.2571 -0.9599 0.1121
vn 0.2359 -0.9427 0.2359
vn 0.1121 -0.9599 0.2571
vn -0.1121 -0.9599 0.2571
vn -0.1279 -0.9835 0.1279
vn -0.3071 -0.4491 0.8390
vn -0.2359 -0.9427 0.2359
vn -0.2571 -0.9599 0.1121
vn -0.1279 -0.9835 -0.1279
vn -0.2571 -0.9599 -0.1121
vn 0.1279 -0.9835 -0.1279
vn -0.1121 -0.9599 -0.2571
vn 0.1121 -0.9599 -0.2571
vn -0.2359 -0.9427 -0.2359
vn 0.2571 -0.9599 -0.1121
vn 0.2359 -0.9427 -0.2359
vn -0.1766 -0.2470 -0.9528
vn 0.1766 -0.2470 -0.9528
vn 0.1548 -0.4899 -0.8579
vn -0.1548 -0.4899 -0.8579
vn 0.3566 -0.2183 -0.9084
vn 0.3071 -0.4491 -0.8390
vn 0.9528 -0.2470 -0.1766
vn 0.8579 -0.4899 -0.1548
vn 0.8390 -0.4491 -0.3071
vn 0.9084 -0.2183 -0.3566
vn 0.1766 0.2470 -0.9528
vn 0.3566 0.2183 -0.9084
vn 0.9084 0.2183 -0.3566
vn 0.9528 0.2470 -0.1766
vn 0.1548 0.4899 -0.8579
vn 0.3071 0.4491 -0.8390
vn 0.8390 0.4491 -0.3071
vn 0.8579 0.4899 -0.1548
vn 0.8579 0.4899 0.1548
vn 0.9528 0.2470 0.1766
vn 0.9528 -0.2470 0.1766
vn 0.9084 0.2183 0.3566
vn 0.9084 -0.2183 0.3566
vn 0.8390 0.4491 0.3071
vn 0.8579 -0.4899 0.1548
vn 0.8390 -0.4491 0.3071
vn -0.0618 0.9962 -0.0618
vn -0.0216 0.9913 -0.1295
vn -0.0470 0.9978 -0.0470
vn -0.1295 0.9913 -0.0216
vn -0.0618 0.9962 0.0618
vn -0.1295 0.9913 0.0216
vn 0.0216 0.9913 -0.1295
vn 0.0618 0.9962 -0.0618
vn 0.0618 0.9962 0.0618
vn 0.1295 0.9913 -0.0216
vn 0.0470 0.9978 -0.0470
vn 0.1295 0.9913 0.0216
vn 0.0216 0.9913 0.1295
vn 0.0470 0.9978 0.0470
vn -0.0216 0.9913 0.1295
vn -0.1766 0.2470 -0.9528
vn -0.3566 0.2183 -0.9084
vn -0.3071 0.4491 -0.8390
vn -0.1548 0.4899 -0.8579
vn -0.0470 0.9978 0.0470
vn -0.3566 -0.2183 -0.9084
vn -0.3071 -0.4491 -0.8390
vn -0.9528 -0.2470 -0.1766
vn -0.9084 -0.2183 -0.3566
vn -0.8390 -0.4491 -0.3071
vn -0.8579 -0.4899 -0.1548
vn -0.9084 0.2183 -0.3566
vn -0.9528 0.2470 -0.1766
vn -0.8579 -0.4899 0.1548
vn -0.9528 -0.2470 0.1766
vn -0.9528 0.2470 0.1766
vn -0.9084 -0.2183 0.3566
vn -0.9084 0.2183 0.3566
vn -0.8390 -0.4491 0.3071
vn -0.8579 0.4899 0.1548
vn -0.8579 0.4899 -0.1548
vn -0.8390 0.4491 0.3071
vn -0.8390 0.4491 -0.3071
vt 0.883723 0.401134
vt 0.845859 0.401460
vt 0.845356 0.394417
vt 0.884101 0.394003
vt 0.840637 0.401143
vt 0.841272 0.395432
vt 0.845802 0.456471
vt 0.840637 0.456839
vt 0.883666 0.456146
vt 0.845425 0.463602
vt 0.841299 0.462603
vt 0.884169 0.463188
vt 0.888889 0.456462
vt 0.888253 0.462173
vt 0.888889 0.400766
vt 0.263492 0.452827
vt 0.263323 0.459549
vt 0.257885 0.458420
vt 0.256796 0.452975
vt 0.256796 0.397212
vt 0.263517 0.397373
vt 0.888227 0.395002
vt 0.257925 0.391767
vt 0.263377 0.390679
vt 0.318975 0.397622
vt 0.319144 0.390900
vt 0.318949 0.453076
vt 0.325670 0.397474
vt 0.325670 0.453237
vt 0.324582 0.392029
vt 0.319090 0.459770
vt 0.324541 0.458682
vt 0.849691 0.909123
vt 0.849634 0.964134
vt 0.844468 0.964502
vt 0.844468 0.908805
vt 0.849256 0.971264
vt 0.845130 0.970266
vt 0.075744 0.865061
vt 0.070522 0.864744
vt 0.071157 0.859034
vt 0.075241 0.858018
vt 0.887497 0.963808
vt 0.888001 0.970851
vt 0.113986 0.857605
vt 0.113608 0.864735
vt 0.892720 0.964125
vt 0.892085 0.969836
vt 0.118112 0.858604
vt 0.118774 0.864367
vt 0.118774 0.920064
vt 0.113551 0.919747
vt 0.075687 0.920073
vt 0.114054 0.926790
vt 0.075310 0.927203
vt 0.118138 0.925775
vt 0.070522 0.920441
vt 0.071184 0.926204
vt 0.771233 0.807598
vt 0.771221 0.801057
vt 0.776482 0.802352
vt 0.777778 0.807613
vt 0.771236 0.863188
vt 0.777778 0.863175
vt 0.715659 0.801036
vt 0.715644 0.807580
vt 0.715646 0.863169
vt 0.709102 0.807593
vt 0.710398 0.802331
vt 0.709102 0.863154
vt 0.715658 0.869711
vt 0.710398 0.868415
vt 0.771220 0.869732
vt 0.887555 0.908796
vt 0.887932 0.901666
vt 0.892058 0.902665
vt 0.892720 0.908429
vt 0.776482 0.868436
vt 0.849188 0.902080
vt 0.845103 0.903095
vt 0.893302 0.837915
vt 0.893680 0.830785
vt 0.897806 0.831784
vt 0.898467 0.837547
vt 0.854935 0.831198
vt 0.855438 0.838241
vt 0.898467 0.893244
vt 0.893245 0.892927
vt 0.855381 0.893253
vt 0.893748 0.899970
vt 0.855003 0.900383
vt 0.897832 0.898955
vt 0.850216 0.893621
vt 0.850216 0.837924
vt 0.850877 0.899384
vt 0.850851 0.832213
s 1
usemtl Keyboard_Mat
f 4/1/1 1/2/2 2/3/3 54/4/4
f 1/2/2 3/5/5 56/6/6 2/3/3
f 1/2/2 5/7/7 6/8/8 3/5/5
f 4/1/1 8/9/9 5/7/7 1/2/2
f 5/7/7 7/10/10 36/11/11 6/8/8
f 5/7/7 8/9/9 9/12/12 7/10/10
f 8/9/9 10/13/13 11/14/14 9/12/12
f 8/9/9 4/1/1 13/15/15 10/13/13
f 12/16/16 35/17/17 11/18/18 10/19/19
f 10/19/19 13/20/20 15/21/21 12/16/16
f 4/1/1 54/4/4 14/22/22 13/15/15
f 15/21/21 13/20/20 14/23/23 16/24/24
f 17/25/25 15/21/21 16/24/24 19/26/26
f 15/21/21 17/25/25 20/27/27 12/16/16
f 18/28/28 22/29/29 20/27/27 17/25/25
f 17/25/25 19/26/26 50/30/30 18/28/28
f 21/31/31 35/17/17 12/16/16 20/27/27
f 20/27/27 22/29/29 24/32/32 21/31/31
f 48/33/33 23/34/34 22/35/35 18/36/36
f 23/34/34 25/37/37 24/38/38 22/35/35
f 26/39/39 21/40/40 24/41/41 25/42/42
f 23/34/34 28/43/43 27/44/44 25/37/37
f 25/42/42 27/45/45 30/46/46 26/39/39
f 28/43/43 46/47/47 29/48/48 27/44/44
f 30/46/46 27/45/45 29/49/49 31/50/50
f 31/50/50 33/51/51 32/52/52 30/46/46
f 34/53/53 26/39/39 30/46/46 32/52/52
f 7/54/54 9/55/55 34/53/53 32/52/52
f 32/52/52 33/51/51 36/56/56 7/54/54
f 26/39/39 34/53/53 35/57/57 21/40/40
f 34/53/53 9/55/55 11/58/58 35/57/57
f 37/59/59 6/60/60 36/61/61 33/62/62
f 38/63/63 37/59/59 33/62/62 31/64/64
f 3/65/65 6/60/60 37/59/59 39/66/66
f 37/59/59 38/63/63 41/67/67 39/66/66
f 39/66/66 40/68/68 56/69/69 3/65/65
f 39/66/66 41/67/67 42/70/70 40/68/68
f 41/67/67 43/71/71 44/72/72 42/70/70
f 46/73/73 43/71/71 41/67/67 38/63/63
f 45/74/74 47/75/75 44/76/76 43/77/77
f 28/43/43 45/74/74 43/77/77 46/47/47
f 38/63/63 31/64/64 29/78/78 46/73/73
f 45/74/74 48/33/33 49/79/79 47/75/75
f 23/34/34 48/33/33 45/74/74 28/43/43
f 48/33/33 18/36/36 50/80/80 49/79/79
f 51/81/81 49/82/82 50/83/83 19/84/84
f 47/85/85 49/82/82 51/81/81 52/86/86
f 19/84/84 16/87/87 53/88/88 51/81/81
f 55/89/89 52/86/86 51/81/81 53/88/88
f 54/90/90 2/91/91 55/89/89 53/88/88
f 53/88/88 16/87/87 14/92/92 54/90/90
f 40/93/93 42/94/94 52/86/86 55/89/89
f 55/89/89 2/91/91 56/95/95 40/93/93
f 52/86/86 42/94/94 44/96/96 47/85/85
