# Blender 4.1.1
# www.blender.org
mtllib Touche_3.mtl
o Keys.002
v -0.020894 0.014969 0.027716
v -0.020894 0.017292 0.020894
v -0.027716 0.014969 0.020894
v -0.020894 0.018268 0.025718
v -0.024833 0.017663 0.024833
v -0.025718 0.018268 0.020894
v -0.025718 0.014969 0.025718
v -0.020894 0.017292 -0.020894
v -0.020894 0.014969 -0.027716
v -0.027716 0.014969 -0.020894
v -0.020894 0.018268 -0.025718
v -0.024833 0.017663 -0.024833
v -0.025718 0.014969 -0.025718
v -0.025718 0.018268 -0.020894
v -0.020894 -0.013603 0.027716
v -0.027716 -0.013603 0.020894
v -0.020894 -0.018268 0.020894
v -0.025718 -0.013603 0.025718
v -0.024833 -0.016296 0.024833
v -0.025718 -0.016902 0.020894
v -0.020894 -0.016902 0.025718
v -0.020894 -0.013603 -0.027716
v -0.020894 -0.018268 -0.020894
v -0.027716 -0.013603 -0.020894
v -0.020894 -0.016902 -0.025718
v -0.024833 -0.016296 -0.024833
v -0.025718 -0.016902 -0.020894
v -0.025718 -0.013603 -0.025718
v 0.020894 0.014969 0.027716
v 0.027716 0.014969 0.020894
v 0.020894 0.017292 0.020894
v 0.025718 0.014969 0.025718
v 0.024833 0.017663 0.024833
v 0.025718 0.018268 0.020894
v 0.020894 0.018268 0.025718
v 0.020894 0.014969 -0.027716
v 0.020894 0.017292 -0.020894
v 0.027716 0.014969 -0.020894
v 0.020894 0.018268 -0.025718
v 0.024833 0.017663 -0.024833
v 0.025718 0.018268 -0.020894
v 0.025718 0.014969 -0.025718
v 0.020894 -0.013603 0.027716
v 0.020894 -0.018268 0.020894
v 0.027716 -0.013603 0.020894
v 0.020894 -0.016902 0.025718
v 0.024833 -0.016296 0.024833
v 0.025718 -0.016902 0.020894
v 0.025718 -0.013603 0.025718
v 0.020894 -0.013603 -0.027716
v 0.027716 -0.013603 -0.020894
v 0.020894 -0.018268 -0.020894
v 0.025718 -0.013603 -0.025718
v 0.024833 -0.016296 -0.024833
v 0.025718 -0.016902 -0.020894
v 0.020894 -0.016902 -0.025718
vn -0.0618 0.9962 -0.0618
vn -0.0618 0.9962 0.0618
vn 0.0618 0.9962 0.0618
vn 0.0618 0.9962 -0.0618
vn 0.9528 -0.2470 0.1766
vn 0.9528 -0.2470 -0.1766
vn 0.9528 0.2470 -0.1766
vn 0.9528 0.2470 0.1766
vn 0.1766 -0.2470 -0.9528
vn -0.1766 -0.2470 -0.9528
vn -0.1766 0.2470 -0.9528
vn 0.1766 0.2470 -0.9528
vn -0.9528 0.2470 0.1766
vn -0.9528 0.2470 -0.1766
vn -0.9528 -0.2470 -0.1766
vn -0.9528 -0.2470 0.1766
vn -0.1279 -0.9835 0.1279
vn -0.1279 -0.9835 -0.1279
vn 0.1279 -0.9835 -0.1279
vn 0.1279 -0.9835 0.1279
vn -0.1766 0.2470 0.9528
vn -0.1548 0.4899 0.8579
vn -0.3071 0.4491 0.8390
vn -0.3566 0.2183 0.9084
vn 0.1295 0.9913 -0.0216
vn 0.0470 0.9978 -0.0470
vn 0.0216 0.9913 -0.1295
vn -0.9084 0.2183 0.3566
vn -0.8390 0.4491 0.3071
vn -0.8579 0.4899 0.1548
vn 0.0216 0.9913 0.1295
vn 0.0470 0.9978 0.0470
vn 0.1295 0.9913 0.0216
vn -0.3566 0.2183 -0.9084
vn -0.3071 0.4491 -0.8390
vn -0.1548 0.4899 -0.8579
vn -0.8579 0.4899 -0.1548
vn -0.8390 0.4491 -0.3071
vn -0.9084 0.2183 -0.3566
vn -0.1766 -0.2470 0.9528
vn -0.3566 -0.2183 0.9084
vn -0.3071 -0.4491 0.8390
vn -0.1548 -0.4899 0.8579
vn -0.8579 -0.4899 0.1548
vn -0.8390 -0.4491 0.3071
vn -0.9084 -0.2183 0.3566
vn -0.1121 -0.9599 0.2571
vn -0.2359 -0.9427 0.2359
vn -0.2571 -0.9599 0.1121
vn -0.1548 -0.4899 -0.8579
vn -0.3071 -0.4491 -0.8390
vn -0.3566 -0.2183 -0.9084
vn -0.2571 -0.9599 -0.1121
vn -0.2359 -0.9427 -0.2359
vn -0.1121 -0.9599 -0.2571
vn -0.9084 -0.2183 -0.3566
vn -0.8390 -0.4491 -0.3071
vn -0.8579 -0.4899 -0.1548
vn 0.1766 0.2470 0.9528
vn 0.3566 0.2183 0.9084
vn 0.3071 0.4491 0.8390
vn 0.1548 0.4899 0.8579
vn 0.8579 0.4899 0.1548
vn 0.8390 0.4491 0.3071
vn 0.9084 0.2183 0.3566
vn -0.0216 0.9913 -0.1295
vn -0.0470 0.9978 -0.0470
vn -0.1295 0.9913 -0.0216
vn 0.1548 0.4899 -0.8579
vn 0.3071 0.4491 -0.8390
vn 0.3566 0.2183 -0.9084
vn -0.1295 0.9913 0.0216
vn -0.0470 0.9978 0.0470
vn -0.0216 0.9913 0.1295
vn 0.9084 0.2183 -0.3566
vn 0.8390 0.4491 -0.3071
vn 0.8579 0.4899 -0.1548
vn 0.1766 -0.2470 0.9528
vn 0.1548 -0.4899 0.8579
vn 0.3071 -0.4491 0.8390
vn 0.3566 -0.2183 0.9084
vn 0.2571 -0.9599 0.1121
vn 0.2359 -0.9427 0.2359
vn 0.1121 -0.9599 0.2571
vn 0.9084 -0.2183 0.3566
vn 0.8390 -0.4491 0.3071
vn 0.8579 -0.4899 0.1548
vn 0.3566 -0.2183 -0.9084
vn 0.3071 -0.4491 -0.8390
vn 0.1548 -0.4899 -0.8579
vn 0.8579 -0.4899 -0.1548
vn 0.8390 -0.4491 -0.3071
vn 0.9084 -0.2183 -0.3566
vn 0.1121 -0.9599 -0.2571
vn 0.2359 -0.9427 -0.2359
vn 0.2571 -0.9599 -0.1121
vt 0.890007 0.077713
vt 0.890010 0.133303
vt 0.834420 0.133284
vt 0.834418 0.077695
vt 0.247770 0.937637
vt 0.247587 0.992654
vt 0.209725 0.993040
vt 0.209908 0.938023
vt 0.719366 0.935398
vt 0.719423 0.880387
vt 0.757287 0.880061
vt 0.757229 0.935072
vt 0.110108 0.991124
vt 0.110291 0.936107
vt 0.148153 0.935721
vt 0.147971 0.990738
vt 0.282551 0.847712
vt 0.227093 0.847463
vt 0.227119 0.792009
vt 0.282576 0.792258
vt 0.807038 0.942735
vt 0.812261 0.943053
vt 0.811625 0.948763
vt 0.807541 0.949778
vt 0.827876 0.077708
vt 0.829171 0.072447
vt 0.834433 0.071151
vt 0.109688 0.998084
vt 0.105654 0.997103
vt 0.105005 0.991468
vt 0.834432 0.139826
vt 0.829172 0.138530
vt 0.827876 0.133269
vt 0.757664 0.872931
vt 0.761790 0.873929
vt 0.762452 0.879693
vt 0.105005 0.935765
vt 0.105652 0.929933
vt 0.109821 0.928898
vt 0.769174 0.943061
vt 0.768796 0.950191
vt 0.764670 0.949193
vt 0.764009 0.943429
vt 0.153257 0.991081
vt 0.152610 0.996913
vt 0.148441 0.997948
vt 0.289272 0.847873
vt 0.288143 0.853318
vt 0.282691 0.854406
vt 0.714200 0.880069
vt 0.714836 0.874359
vt 0.718920 0.873344
vt 0.226925 0.854185
vt 0.221487 0.853056
vt 0.220398 0.847611
vt 0.148573 0.928761
vt 0.152608 0.929743
vt 0.153257 0.935378
vt 0.807095 0.887724
vt 0.807473 0.880593
vt 0.811599 0.881592
vt 0.812261 0.887356
vt 0.204622 0.937681
vt 0.205269 0.931849
vt 0.209438 0.930814
vt 0.889995 0.071171
vt 0.895256 0.072467
vt 0.896552 0.077728
vt 0.762452 0.935389
vt 0.761817 0.941100
vt 0.757733 0.942115
vt 0.896552 0.133290
vt 0.895256 0.138551
vt 0.889994 0.139847
vt 0.209305 1.000000
vt 0.205271 0.999019
vt 0.204622 0.993384
vt 0.769231 0.888050
vt 0.764009 0.887733
vt 0.764644 0.882022
vt 0.768728 0.881007
vt 0.282745 0.785536
vt 0.288183 0.786665
vt 0.289272 0.792110
vt 0.248190 0.930677
vt 0.252225 0.931659
vt 0.252874 0.937294
vt 0.718988 0.942529
vt 0.714862 0.941530
vt 0.714200 0.935766
vt 0.252874 0.992996
vt 0.252227 0.998828
vt 0.248057 0.999863
vt 0.220398 0.791848
vt 0.221527 0.786403
vt 0.226978 0.785315
s 1
usemtl Keyboard_Mat
f 31/1/1 37/2/2 8/3/3 2/4/4
f 45/5/5 51/6/6 38/7/7 30/8/8
f 50/9/9 22/10/10 9/11/11 36/12/12
f 3/13/13 10/14/14 24/15/15 16/16/16
f 17/17/17 23/18/18 52/19/19 44/20/20
f 1/21/21 4/22/22 5/23/23 7/24/24
f 2/4/4 6/25/25 5/26/26 4/27/27
f 3/13/13 7/28/28 5/29/29 6/30/30
f 8/3/3 11/31/31 12/32/32 14/33/33
f 9/11/11 13/34/34 12/35/35 11/36/36
f 10/14/14 14/37/37 12/38/38 13/39/39
f 15/40/40 18/41/41 19/42/42 21/43/43
f 16/16/16 20/44/44 19/45/45 18/46/46
f 17/17/17 21/47/47 19/48/48 20/49/49
f 22/10/10 25/50/50 26/51/51 28/52/52
f 23/18/18 27/53/53 26/54/54 25/55/55
f 24/15/15 28/56/56 26/57/57 27/58/58
f 29/59/59 32/60/60 33/61/61 35/62/62
f 30/8/8 34/63/63 33/64/64 32/65/65
f 31/1/1 35/66/66 33/67/67 34/68/68
f 36/12/12 39/69/69 40/70/70 42/71/71
f 37/2/2 41/72/72 40/73/73 39/74/74
f 38/7/7 42/75/75 40/76/76 41/77/77
f 43/78/78 46/79/79 47/80/80 49/81/81
f 44/20/20 48/82/82 47/83/83 46/84/84
f 45/5/5 49/85/85 47/86/86 48/87/87
f 50/9/9 53/88/88 54/89/89 56/90/90
f 51/6/6 55/91/91 54/92/92 53/93/93
f 52/19/19 56/94/94 54/95/95 55/96/96
f 15/40/40 1/21/21 7/24/24 18/41/41
f 18/46/46 7/28/28 3/13/13 16/16/16
f 2/4/4 8/3/3 14/33/33 6/25/25
f 6/30/30 14/37/37 10/14/14 3/13/13
f 9/11/11 22/10/10 28/52/52 13/34/34
f 13/39/39 28/56/56 24/15/15 10/14/14
f 23/18/18 17/17/17 20/49/49 27/53/53
f 27/58/58 20/44/44 16/16/16 24/15/15
f 43/78/78 15/40/40 21/43/43 46/79/79
f 46/84/84 21/47/47 17/17/17 44/20/20
f 22/10/10 50/9/9 56/90/90 25/50/50
f 25/55/55 56/94/94 52/19/19 23/18/18
f 51/6/6 45/5/5 48/87/87 55/91/91
f 55/96/96 48/82/82 44/20/20 52/19/19
f 29/59/59 43/78/78 49/81/81 32/60/60
f 32/65/65 49/85/85 45/5/5 30/8/8
f 50/9/9 36/12/12 42/71/71 53/88/88
f 53/93/93 42/75/75 38/7/7 51/6/6
f 37/2/2 31/1/1 34/68/68 41/72/72
f 41/77/77 34/63/63 30/8/8 38/7/7
f 1/21/21 29/59/59 35/62/62 4/22/22
f 4/27/27 35/66/66 31/1/1 2/4/4
f 36/12/12 9/11/11 11/36/36 39/69/69
f 39/74/74 11/31/31 8/3/3 37/2/2
f 15/40/40 43/78/78 29/59/59 1/21/21
