# Blender 4.1.1
# www.blender.org
mtllib Touche_6.mtl
o Keys.005
v -0.020894 0.014969 0.027716
v -0.025718 0.014969 0.025718
v -0.020894 0.018268 0.025718
v -0.020894 -0.013603 0.027716
v 0.020894 0.014969 0.027716
v 0.020894 0.018268 0.025718
v 0.025718 0.014969 0.025718
v 0.020894 -0.013603 0.027716
v 0.025718 -0.013603 0.025718
v 0.020894 -0.016902 0.025718
v 0.024833 -0.016296 0.024833
v 0.020894 -0.018268 0.020894
v -0.020894 -0.016902 0.025718
v -0.024833 -0.016296 0.024833
v -0.020894 -0.018268 0.020894
v -0.025718 -0.016902 0.020894
v -0.020894 -0.018268 -0.020894
v -0.020894 -0.016902 -0.025718
v -0.025718 -0.016902 -0.020894
v 0.020894 -0.018268 -0.020894
v 0.025718 -0.016902 -0.020894
v 0.020894 -0.016902 -0.025718
v 0.020894 -0.013603 -0.027716
v 0.024833 -0.016296 -0.024833
v 0.025718 -0.013603 -0.025718
v 0.027716 -0.013603 -0.020894
v 0.025718 0.014969 -0.025718
v 0.020894 0.014969 -0.027716
v 0.024833 0.017663 -0.024833
v 0.027716 0.014969 -0.020894
v 0.025718 0.018268 -0.020894
v 0.027716 0.014969 0.020894
v 0.025718 0.018268 0.020894
v 0.027716 -0.013603 0.020894
v 0.025718 -0.016902 0.020894
v 0.024833 0.017663 0.024833
v 0.020894 0.017292 0.020894
v 0.020894 0.017292 -0.020894
v -0.020894 0.017292 0.020894
v -0.025718 0.018268 0.020894
v -0.020894 0.017292 -0.020894
v -0.025718 0.018268 -0.020894
v -0.020894 0.018268 -0.025718
v -0.024833 0.017663 -0.024833
v -0.020894 0.014969 -0.027716
v 0.020894 0.018268 -0.025718
v -0.025718 0.014969 -0.025718
v -0.020894 -0.013603 -0.027716
v -0.025718 -0.013603 -0.025718
v -0.024833 -0.016296 -0.024833
v -0.027716 -0.013603 -0.020894
v -0.027716 0.014969 -0.020894
v -0.027716 -0.013603 0.020894
v -0.025718 -0.013603 0.025718
v -0.027716 0.014969 0.020894
v -0.024833 0.017663 0.024833
vn -0.1766 -0.2470 0.9528
vn -0.1766 0.2470 0.9528
vn -0.3566 0.2183 0.9084
vn -0.3566 -0.2183 0.9084
vn -0.1548 0.4899 0.8579
vn -0.3071 0.4491 0.8390
vn 0.1766 0.2470 0.9528
vn 0.1548 0.4899 0.8579
vn 0.1766 -0.2470 0.9528
vn 0.3566 0.2183 0.9084
vn 0.3071 0.4491 0.8390
vn 0.3566 -0.2183 0.9084
vn 0.1548 -0.4899 0.8579
vn 0.3071 -0.4491 0.8390
vn -0.1548 -0.4899 0.8579
vn 0.1279 -0.9835 0.1279
vn 0.2571 -0.9599 0.1121
vn 0.2359 -0.9427 0.2359
vn 0.1121 -0.9599 0.2571
vn -0.1121 -0.9599 0.2571
vn -0.1279 -0.9835 0.1279
vn -0.3071 -0.4491 0.8390
vn -0.2359 -0.9427 0.2359
vn -0.2571 -0.9599 0.1121
vn -0.1279 -0.9835 -0.1279
vn -0.2571 -0.9599 -0.1121
vn 0.1279 -0.9835 -0.1279
vn -0.1121 -0.9599 -0.2571
vn 0.1121 -0.9599 -0.2571
vn -0.2359 -0.9427 -0.2359
vn 0.2571 -0.9599 -0.1121
vn 0.2359 -0.9427 -0.2359
vn -0.1766 -0.2470 -0.9528
vn 0.1766 -0.2470 -0.9528
vn 0.1548 -0.4899 -0.8579
vn -0.1548 -0.4899 -0.8579
vn 0.3566 -0.2183 -0.9084
vn 0.3071 -0.4491 -0.8390
vn 0.9528 -0.2470 -0.1766
vn 0.8579 -0.4899 -0.1548
vn 0.8390 -0.4491 -0.3071
vn 0.9084 -0.2183 -0.3566
vn 0.1766 0.2470 -0.9528
vn 0.3566 0.2183 -0.9084
vn 0.9084 0.2183 -0.3566
vn 0.9528 0.2470 -0.1766
vn 0.1548 0.4899 -0.8579
vn 0.3071 0.4491 -0.8390
vn 0.8390 0.4491 -0.3071
vn 0.8579 0.4899 -0.1548
vn 0.8579 0.4899 0.1548
vn 0.9528 0.2470 0.1766
vn 0.9528 -0.2470 0.1766
vn 0.9084 0.2183 0.3566
vn 0.9084 -0.2183 0.3566
vn 0.8390 0.4491 0.3071
vn 0.8579 -0.4899 0.1548
vn 0.8390 -0.4491 0.3071
vn -0.0618 0.9962 -0.0618
vn -0.0216 0.9913 -0.1295
vn -0.0470 0.9978 -0.0470
vn -0.1295 0.9913 -0.0216
vn -0.0618 0.9962 0.0618
vn -0.1295 0.9913 0.0216
vn 0.0216 0.9913 -0.1295
vn 0.0618 0.9962 -0.0618
vn 0.0618 0.9962 0.0618
vn 0.1295 0.9913 -0.0216
vn 0.0470 0.9978 -0.0470
vn 0.1295 0.9913 0.0216
vn 0.0216 0.9913 0.1295
vn 0.0470 0.9978 0.0470
vn -0.0216 0.9913 0.1295
vn -0.1766 0.2470 -0.9528
vn -0.3566 0.2183 -0.9084
vn -0.3071 0.4491 -0.8390
vn -0.1548 0.4899 -0.8579
vn -0.0470 0.9978 0.0470
vn -0.3566 -0.2183 -0.9084
vn -0.3071 -0.4491 -0.8390
vn -0.9528 -0.2470 -0.1766
vn -0.9084 -0.2183 -0.3566
vn -0.8390 -0.4491 -0.3071
vn -0.8579 -0.4899 -0.1548
vn -0.9084 0.2183 -0.3566
vn -0.9528 0.2470 -0.1766
vn -0.8579 -0.4899 0.1548
vn -0.9528 -0.2470 0.1766
vn -0.9528 0.2470 0.1766
vn -0.9084 -0.2183 0.3566
vn -0.9084 0.2183 0.3566
vn -0.8390 -0.4491 0.3071
vn -0.8579 0.4899 0.1548
vn -0.8579 0.4899 -0.1548
vn -0.8390 0.4491 0.3071
vn -0.8390 0.4491 -0.3071
vt 0.213225 0.864735
vt 0.175362 0.865061
vt 0.174858 0.858018
vt 0.213603 0.857605
vt 0.170139 0.864744
vt 0.170774 0.859034
vt 0.175304 0.920073
vt 0.170139 0.920441
vt 0.213168 0.919747
vt 0.174926 0.927203
vt 0.170801 0.926204
vt 0.213671 0.926790
vt 0.218391 0.920064
vt 0.217755 0.925775
vt 0.218391 0.864367
vt 0.144720 0.291973
vt 0.144556 0.298699
vt 0.139112 0.297573
vt 0.138019 0.292124
vt 0.138019 0.236286
vt 0.144775 0.236458
vt 0.217729 0.858604
vt 0.139155 0.230800
vt 0.144649 0.229704
vt 0.200224 0.236765
vt 0.200408 0.230102
vt 0.200181 0.292159
vt 0.206886 0.236627
vt 0.206897 0.292317
vt 0.205804 0.231223
vt 0.200327 0.298851
vt 0.205773 0.297758
vt 0.412402 0.919747
vt 0.412459 0.864735
vt 0.417625 0.864367
vt 0.417625 0.920064
vt 0.412837 0.857605
vt 0.416963 0.858604
vt 0.986639 0.416106
vt 0.991737 0.416460
vt 0.991095 0.422060
vt 0.987087 0.423044
vt 0.374595 0.865061
vt 0.374092 0.858018
vt 0.948548 0.423372
vt 0.948939 0.416268
vt 0.369373 0.864744
vt 0.370008 0.859034
vt 0.944438 0.422373
vt 0.943782 0.416630
vt 0.943782 0.360926
vt 0.949014 0.361250
vt 0.987042 0.361113
vt 0.948524 0.354180
vt 0.987482 0.353874
vt 0.944424 0.355195
vt 0.992337 0.360781
vt 0.991683 0.354907
vt 0.027901 0.393813
vt 0.021362 0.393829
vt 0.022655 0.388571
vt 0.027912 0.387274
vt 0.083491 0.393784
vt 0.083475 0.387238
vt 0.021362 0.449384
vt 0.027906 0.449397
vt 0.083495 0.449380
vt 0.027921 0.455939
vt 0.022660 0.454645
vt 0.083482 0.455925
vt 0.090037 0.449366
vt 0.088743 0.454627
vt 0.090038 0.393797
vt 0.374538 0.920073
vt 0.374160 0.927203
vt 0.370034 0.926204
vt 0.369373 0.920441
vt 0.088740 0.388532
vt 0.412905 0.926790
vt 0.416989 0.925775
vt 0.159917 0.991124
vt 0.159497 0.998084
vt 0.155462 0.997103
vt 0.154814 0.991468
vt 0.198249 0.997948
vt 0.197780 0.990739
vt 0.154814 0.935765
vt 0.160100 0.936107
vt 0.197962 0.935721
vt 0.159630 0.928898
vt 0.198382 0.928762
vt 0.155460 0.929933
vt 0.203065 0.935378
vt 0.203065 0.991081
vt 0.202417 0.929743
vt 0.202419 0.996913
s 1
usemtl Keyboard_Mat
f 4/1/1 1/2/2 2/3/3 54/4/4
f 1/2/2 3/5/5 56/6/6 2/3/3
f 1/2/2 5/7/7 6/8/8 3/5/5
f 4/1/1 8/9/9 5/7/7 1/2/2
f 5/7/7 7/10/10 36/11/11 6/8/8
f 5/7/7 8/9/9 9/12/12 7/10/10
f 8/9/9 10/13/13 11/14/14 9/12/12
f 8/9/9 4/1/1 13/15/15 10/13/13
f 12/16/16 35/17/17 11/18/18 10/19/19
f 10/19/19 13/20/20 15/21/21 12/16/16
f 4/1/1 54/4/4 14/22/22 13/15/15
f 15/21/21 13/20/20 14/23/23 16/24/24
f 17/25/25 15/21/21 16/24/24 19/26/26
f 15/21/21 17/25/25 20/27/27 12/16/16
f 18/28/28 22/29/29 20/27/27 17/25/25
f 17/25/25 19/26/26 50/30/30 18/28/28
f 21/31/31 35/17/17 12/16/16 20/27/27
f 20/27/27 22/29/29 24/32/32 21/31/31
f 48/33/33 23/34/34 22/35/35 18/36/36
f 23/34/34 25/37/37 24/38/38 22/35/35
f 26/39/39 21/40/40 24/41/41 25/42/42
f 23/34/34 28/43/43 27/44/44 25/37/37
f 25/42/42 27/45/45 30/46/46 26/39/39
f 28/43/43 46/47/47 29/48/48 27/44/44
f 30/46/46 27/45/45 29/49/49 31/50/50
f 31/50/50 33/51/51 32/52/52 30/46/46
f 34/53/53 26/39/39 30/46/46 32/52/52
f 7/54/54 9/55/55 34/53/53 32/52/52
f 32/52/52 33/51/51 36/56/56 7/54/54
f 26/39/39 34/53/53 35/57/57 21/40/40
f 34/53/53 9/55/55 11/58/58 35/57/57
f 37/59/59 6/60/60 36/61/61 33/62/62
f 38/63/63 37/59/59 33/62/62 31/64/64
f 3/65/65 6/60/60 37/59/59 39/66/66
f 37/59/59 38/63/63 41/67/67 39/66/66
f 39/66/66 40/68/68 56/69/69 3/65/65
f 39/66/66 41/67/67 42/70/70 40/68/68
f 41/67/67 43/71/71 44/72/72 42/70/70
f 46/73/73 43/71/71 41/67/67 38/63/63
f 45/74/74 47/75/75 44/76/76 43/77/77
f 28/43/43 45/74/74 43/77/77 46/47/47
f 38/63/63 31/64/64 29/78/78 46/73/73
f 45/74/74 48/33/33 49/79/79 47/75/75
f 23/34/34 48/33/33 45/74/74 28/43/43
f 48/33/33 18/36/36 50/80/80 49/79/79
f 51/81/81 49/82/82 50/83/83 19/84/84
f 47/85/85 49/82/82 51/81/81 52/86/86
f 19/84/84 16/87/87 53/88/88 51/81/81
f 55/89/89 52/86/86 51/81/81 53/88/88
f 54/90/90 2/91/91 55/89/89 53/88/88
f 53/88/88 16/87/87 14/92/92 54/90/90
f 40/93/93 42/94/94 52/86/86 55/89/89
f 55/89/89 2/91/91 56/95/95 40/93/93
f 52/86/86 42/94/94 44/96/96 47/85/85
