# Blender 4.1.1
# www.blender.org
mtllib Touche_12.mtl
o Keys.011
v -0.020894 0.014969 0.027716
v -0.025718 0.014969 0.025718
v -0.020894 0.018268 0.025718
v -0.020894 -0.013603 0.027716
v 0.020894 0.014969 0.027716
v 0.020894 0.018268 0.025718
v 0.025718 0.014969 0.025718
v 0.020894 -0.013603 0.027716
v 0.025718 -0.013603 0.025718
v 0.020894 -0.016902 0.025718
v 0.024833 -0.016296 0.024833
v 0.020894 -0.018268 0.020894
v -0.020894 -0.016902 0.025718
v -0.024833 -0.016296 0.024833
v -0.020894 -0.018268 0.020894
v -0.025718 -0.016902 0.020894
v -0.020894 -0.018268 -0.020894
v -0.020894 -0.016902 -0.025718
v -0.025718 -0.016902 -0.020894
v 0.020894 -0.018268 -0.020894
v 0.025718 -0.016902 -0.020894
v 0.020894 -0.016902 -0.025718
v 0.020894 -0.013603 -0.027716
v 0.024833 -0.016296 -0.024833
v 0.025718 -0.013603 -0.025718
v 0.027716 -0.013603 -0.020894
v 0.025718 0.014969 -0.025718
v 0.020894 0.014969 -0.027716
v 0.024833 0.017663 -0.024833
v 0.027716 0.014969 -0.020894
v 0.025718 0.018268 -0.020894
v 0.027716 0.014969 0.020894
v 0.025718 0.018268 0.020894
v 0.027716 -0.013603 0.020894
v 0.025718 -0.016902 0.020894
v 0.024833 0.017663 0.024833
v 0.020894 0.017292 0.020894
v 0.020894 0.017292 -0.020894
v -0.020894 0.017292 0.020894
v -0.025718 0.018268 0.020894
v -0.020894 0.017292 -0.020894
v -0.025718 0.018268 -0.020894
v -0.020894 0.018268 -0.025718
v -0.024833 0.017663 -0.024833
v -0.020894 0.014969 -0.027716
v 0.020894 0.018268 -0.025718
v -0.025718 0.014969 -0.025718
v -0.020894 -0.013603 -0.027716
v -0.025718 -0.013603 -0.025718
v -0.024833 -0.016296 -0.024833
v -0.027716 -0.013603 -0.020894
v -0.027716 0.014969 -0.020894
v -0.027716 -0.013603 0.020894
v -0.025718 -0.013603 0.025718
v -0.027716 0.014969 0.020894
v -0.024833 0.017663 0.024833
vn -0.1766 -0.2470 0.9528
vn -0.1766 0.2470 0.9528
vn -0.3566 0.2183 0.9084
vn -0.3566 -0.2183 0.9084
vn -0.1548 0.4899 0.8579
vn -0.3071 0.4491 0.8390
vn 0.1766 0.2470 0.9528
vn 0.1548 0.4899 0.8579
vn 0.1766 -0.2470 0.9528
vn 0.3566 0.2183 0.9084
vn 0.3071 0.4491 0.8390
vn 0.3566 -0.2183 0.9084
vn 0.1548 -0.4899 0.8579
vn 0.3071 -0.4491 0.8390
vn -0.1548 -0.4899 0.8579
vn 0.1279 -0.9835 0.1279
vn 0.2571 -0.9599 0.1121
vn 0.2359 -0.9427 0.2359
vn 0.1121 -0.9599 0.2571
vn -0.1121 -0.9599 0.2571
vn -0.1279 -0.9835 0.1279
vn -0.3071 -0.4491 0.8390
vn -0.2359 -0.9427 0.2359
vn -0.2571 -0.9599 0.1121
vn -0.1279 -0.9835 -0.1279
vn -0.2571 -0.9599 -0.1121
vn 0.1279 -0.9835 -0.1279
vn -0.1121 -0.9599 -0.2571
vn 0.1121 -0.9599 -0.2571
vn -0.2359 -0.9427 -0.2359
vn 0.2571 -0.9599 -0.1121
vn 0.2359 -0.9427 -0.2359
vn -0.1766 -0.2470 -0.9528
vn 0.1766 -0.2470 -0.9528
vn 0.1548 -0.4899 -0.8579
vn -0.1548 -0.4899 -0.8579
vn 0.3566 -0.2183 -0.9084
vn 0.3071 -0.4491 -0.8390
vn 0.9528 -0.2470 -0.1766
vn 0.8579 -0.4899 -0.1548
vn 0.8390 -0.4491 -0.3071
vn 0.9084 -0.2183 -0.3566
vn 0.1766 0.2470 -0.9528
vn 0.3566 0.2183 -0.9084
vn 0.9084 0.2183 -0.3566
vn 0.9528 0.2470 -0.1766
vn 0.1548 0.4899 -0.8579
vn 0.3071 0.4491 -0.8390
vn 0.8390 0.4491 -0.3071
vn 0.8579 0.4899 -0.1548
vn 0.8579 0.4899 0.1548
vn 0.9528 0.2470 0.1766
vn 0.9528 -0.2470 0.1766
vn 0.9084 0.2183 0.3566
vn 0.9084 -0.2183 0.3566
vn 0.8390 0.4491 0.3071
vn 0.8579 -0.4899 0.1548
vn 0.8390 -0.4491 0.3071
vn -0.0618 0.9962 -0.0618
vn -0.0216 0.9913 -0.1295
vn -0.0470 0.9978 -0.0470
vn -0.1295 0.9913 -0.0216
vn -0.0618 0.9962 0.0618
vn -0.1295 0.9913 0.0216
vn 0.0216 0.9913 -0.1295
vn 0.0618 0.9962 -0.0618
vn 0.0618 0.9962 0.0618
vn 0.1295 0.9913 -0.0216
vn 0.0470 0.9978 -0.0470
vn 0.1295 0.9913 0.0216
vn 0.0216 0.9913 0.1295
vn 0.0470 0.9978 0.0470
vn -0.0216 0.9913 0.1295
vn -0.1766 0.2470 -0.9528
vn -0.3566 0.2183 -0.9084
vn -0.3071 0.4491 -0.8390
vn -0.1548 0.4899 -0.8579
vn -0.0470 0.9978 0.0470
vn -0.3566 -0.2183 -0.9084
vn -0.3071 -0.4491 -0.8390
vn -0.9528 -0.2470 -0.1766
vn -0.9084 -0.2183 -0.3566
vn -0.8390 -0.4491 -0.3071
vn -0.8579 -0.4899 -0.1548
vn -0.9084 0.2183 -0.3566
vn -0.9528 0.2470 -0.1766
vn -0.8579 -0.4899 0.1548
vn -0.9528 -0.2470 0.1766
vn -0.9528 0.2470 0.1766
vn -0.9084 -0.2183 0.3566
vn -0.9084 0.2183 0.3566
vn -0.8390 -0.4491 0.3071
vn -0.8579 0.4899 0.1548
vn -0.8579 0.4899 -0.1548
vn -0.8390 0.4491 0.3071
vn -0.8390 0.4491 -0.3071
vt 0.462268 0.906881
vt 0.424404 0.907207
vt 0.423901 0.900164
vt 0.462645 0.899751
vt 0.419181 0.906890
vt 0.419817 0.901179
vt 0.424346 0.962219
vt 0.419181 0.962586
vt 0.462210 0.961892
vt 0.423969 0.969349
vt 0.419843 0.968350
vt 0.462713 0.968936
vt 0.467433 0.962209
vt 0.466798 0.967920
vt 0.467433 0.906513
vt 0.144718 0.598421
vt 0.144549 0.605143
vt 0.139111 0.604013
vt 0.138022 0.598569
vt 0.138022 0.542806
vt 0.144743 0.542966
vt 0.466771 0.900749
vt 0.139151 0.537361
vt 0.144603 0.536273
vt 0.200201 0.543216
vt 0.200370 0.536493
vt 0.200175 0.598670
vt 0.206897 0.543068
vt 0.206897 0.598831
vt 0.205808 0.537623
vt 0.200316 0.605364
vt 0.205768 0.604276
vt 0.973705 0.595992
vt 0.973762 0.540980
vt 0.978927 0.540612
vt 0.978927 0.596309
vt 0.974140 0.533850
vt 0.978265 0.534849
vt 0.868341 0.544268
vt 0.873563 0.544585
vt 0.872928 0.550295
vt 0.868844 0.551311
vt 0.935898 0.541307
vt 0.935395 0.534263
vt 0.830099 0.551724
vt 0.830477 0.544594
vt 0.930675 0.540989
vt 0.931311 0.535278
vt 0.825973 0.550725
vt 0.825311 0.544962
vt 0.825311 0.489265
vt 0.830534 0.489582
vt 0.868398 0.489256
vt 0.830031 0.482539
vt 0.868775 0.482126
vt 0.825947 0.483554
vt 0.873563 0.488888
vt 0.872901 0.483125
vt 0.834418 0.148597
vt 0.827876 0.148609
vt 0.829172 0.143348
vt 0.834433 0.142052
vt 0.890008 0.148594
vt 0.889995 0.142052
vt 0.827856 0.204171
vt 0.834400 0.204186
vt 0.889989 0.204184
vt 0.834413 0.210728
vt 0.829151 0.209432
vt 0.889974 0.210728
vt 0.896531 0.204172
vt 0.895235 0.209432
vt 0.896552 0.148610
vt 0.935841 0.596318
vt 0.935463 0.603448
vt 0.931337 0.602449
vt 0.930675 0.596686
vt 0.895256 0.143348
vt 0.974208 0.603035
vt 0.978292 0.602020
vt 0.876060 0.221057
vt 0.876438 0.213927
vt 0.880564 0.214926
vt 0.881226 0.220689
vt 0.837694 0.214340
vt 0.838197 0.221383
vt 0.881226 0.276386
vt 0.876003 0.276069
vt 0.838140 0.276395
vt 0.876507 0.283112
vt 0.837762 0.283525
vt 0.880591 0.282096
vt 0.832974 0.276763
vt 0.832974 0.221066
vt 0.833636 0.282526
vt 0.833609 0.215355
s 1
usemtl Keyboard_Mat
f 4/1/1 1/2/2 2/3/3 54/4/4
f 1/2/2 3/5/5 56/6/6 2/3/3
f 1/2/2 5/7/7 6/8/8 3/5/5
f 4/1/1 8/9/9 5/7/7 1/2/2
f 5/7/7 7/10/10 36/11/11 6/8/8
f 5/7/7 8/9/9 9/12/12 7/10/10
f 8/9/9 10/13/13 11/14/14 9/12/12
f 8/9/9 4/1/1 13/15/15 10/13/13
f 12/16/16 35/17/17 11/18/18 10/19/19
f 10/19/19 13/20/20 15/21/21 12/16/16
f 4/1/1 54/4/4 14/22/22 13/15/15
f 15/21/21 13/20/20 14/23/23 16/24/24
f 17/25/25 15/21/21 16/24/24 19/26/26
f 15/21/21 17/25/25 20/27/27 12/16/16
f 18/28/28 22/29/29 20/27/27 17/25/25
f 17/25/25 19/26/26 50/30/30 18/28/28
f 21/31/31 35/17/17 12/16/16 20/27/27
f 20/27/27 22/29/29 24/32/32 21/31/31
f 48/33/33 23/34/34 22/35/35 18/36/36
f 23/34/34 25/37/37 24/38/38 22/35/35
f 26/39/39 21/40/40 24/41/41 25/42/42
f 23/34/34 28/43/43 27/44/44 25/37/37
f 25/42/42 27/45/45 30/46/46 26/39/39
f 28/43/43 46/47/47 29/48/48 27/44/44
f 30/46/46 27/45/45 29/49/49 31/50/50
f 31/50/50 33/51/51 32/52/52 30/46/46
f 34/53/53 26/39/39 30/46/46 32/52/52
f 7/54/54 9/55/55 34/53/53 32/52/52
f 32/52/52 33/51/51 36/56/56 7/54/54
f 26/39/39 34/53/53 35/57/57 21/40/40
f 34/53/53 9/55/55 11/58/58 35/57/57
f 37/59/59 6/60/60 36/61/61 33/62/62
f 38/63/63 37/59/59 33/62/62 31/64/64
f 3/65/65 6/60/60 37/59/59 39/66/66
f 37/59/59 38/63/63 41/67/67 39/66/66
f 39/66/66 40/68/68 56/69/69 3/65/65
f 39/66/66 41/67/67 42/70/70 40/68/68
f 41/67/67 43/71/71 44/72/72 42/70/70
f 46/73/73 43/71/71 41/67/67 38/63/63
f 45/74/74 47/75/75 44/76/76 43/77/77
f 28/43/43 45/74/74 43/77/77 46/47/47
f 38/63/63 31/64/64 29/78/78 46/73/73
f 45/74/74 48/33/33 49/79/79 47/75/75
f 23/34/34 48/33/33 45/74/74 28/43/43
f 48/33/33 18/36/36 50/80/80 49/79/79
f 51/81/81 49/82/82 50/83/83 19/84/84
f 47/85/85 49/82/82 51/81/81 52/86/86
f 19/84/84 16/87/87 53/88/88 51/81/81
f 55/89/89 52/86/86 51/81/81 53/88/88
f 54/90/90 2/91/91 55/89/89 53/88/88
f 53/88/88 16/87/87 14/92/92 54/90/90
f 40/93/93 42/94/94 52/86/86 55/89/89
f 55/89/89 2/91/91 56/95/95 40/93/93
f 52/86/86 42/94/94 44/96/96 47/85/85
