# Blender 4.1.1
# www.blender.org
mtllib Touche_2.mtl
o Keys.001
v -0.020894 0.014969 0.027716
v -0.020894 0.017292 0.020894
v -0.027716 0.014969 0.020894
v -0.020894 0.018268 0.025718
v -0.024833 0.017663 0.024833
v -0.025718 0.018268 0.020894
v -0.025718 0.014969 0.025718
v -0.020894 0.017292 -0.020894
v -0.020894 0.014969 -0.027716
v -0.027716 0.014969 -0.020894
v -0.020894 0.018268 -0.025718
v -0.024833 0.017663 -0.024833
v -0.025718 0.014969 -0.025718
v -0.025718 0.018268 -0.020894
v -0.020894 -0.013603 0.027716
v -0.027716 -0.013603 0.020894
v -0.020894 -0.018268 0.020894
v -0.025718 -0.013603 0.025718
v -0.024833 -0.016296 0.024833
v -0.025718 -0.016902 0.020894
v -0.020894 -0.016902 0.025718
v -0.020894 -0.013603 -0.027716
v -0.020894 -0.018268 -0.020894
v -0.027716 -0.013603 -0.020894
v -0.020894 -0.016902 -0.025718
v -0.024833 -0.016296 -0.024833
v -0.025718 -0.016902 -0.020894
v -0.025718 -0.013603 -0.025718
v 0.020894 0.014969 0.027716
v 0.027716 0.014969 0.020894
v 0.020894 0.017292 0.020894
v 0.025718 0.014969 0.025718
v 0.024833 0.017663 0.024833
v 0.025718 0.018268 0.020894
v 0.020894 0.018268 0.025718
v 0.020894 0.014969 -0.027716
v 0.020894 0.017292 -0.020894
v 0.027716 0.014969 -0.020894
v 0.020894 0.018268 -0.025718
v 0.024833 0.017663 -0.024833
v 0.025718 0.018268 -0.020894
v 0.025718 0.014969 -0.025718
v 0.020894 -0.013603 0.027716
v 0.020894 -0.018268 0.020894
v 0.027716 -0.013603 0.020894
v 0.020894 -0.016902 0.025718
v 0.024833 -0.016296 0.024833
v 0.025718 -0.016902 0.020894
v 0.025718 -0.013603 0.025718
v 0.020894 -0.013603 -0.027716
v 0.027716 -0.013603 -0.020894
v 0.020894 -0.018268 -0.020894
v 0.025718 -0.013603 -0.025718
v 0.024833 -0.016296 -0.024833
v 0.025718 -0.016902 -0.020894
v 0.020894 -0.016902 -0.025718
vn -0.0618 0.9962 -0.0618
vn -0.0618 0.9962 0.0618
vn 0.0618 0.9962 0.0618
vn 0.0618 0.9962 -0.0618
vn 0.9528 -0.2470 0.1766
vn 0.9528 -0.2470 -0.1766
vn 0.9528 0.2470 -0.1766
vn 0.9528 0.2470 0.1766
vn 0.1766 -0.2470 -0.9528
vn -0.1766 -0.2470 -0.9528
vn -0.1766 0.2470 -0.9528
vn 0.1766 0.2470 -0.9528
vn -0.9528 0.2470 0.1766
vn -0.9528 0.2470 -0.1766
vn -0.9528 -0.2470 -0.1766
vn -0.9528 -0.2470 0.1766
vn -0.1279 -0.9835 0.1279
vn -0.1279 -0.9835 -0.1279
vn 0.1279 -0.9835 -0.1279
vn 0.1279 -0.9835 0.1279
vn -0.1766 0.2470 0.9528
vn -0.1548 0.4899 0.8579
vn -0.3071 0.4491 0.8390
vn -0.3566 0.2183 0.9084
vn 0.1295 0.9913 -0.0216
vn 0.0470 0.9978 -0.0470
vn 0.0216 0.9913 -0.1295
vn -0.9084 0.2183 0.3566
vn -0.8390 0.4491 0.3071
vn -0.8579 0.4899 0.1548
vn 0.0216 0.9913 0.1295
vn 0.0470 0.9978 0.0470
vn 0.1295 0.9913 0.0216
vn -0.3566 0.2183 -0.9084
vn -0.3071 0.4491 -0.8390
vn -0.1548 0.4899 -0.8579
vn -0.8579 0.4899 -0.1548
vn -0.8390 0.4491 -0.3071
vn -0.9084 0.2183 -0.3566
vn -0.1766 -0.2470 0.9528
vn -0.3566 -0.2183 0.9084
vn -0.3071 -0.4491 0.8390
vn -0.1548 -0.4899 0.8579
vn -0.8579 -0.4899 0.1548
vn -0.8390 -0.4491 0.3071
vn -0.9084 -0.2183 0.3566
vn -0.1121 -0.9599 0.2571
vn -0.2359 -0.9427 0.2359
vn -0.2571 -0.9599 0.1121
vn -0.1548 -0.4899 -0.8579
vn -0.3071 -0.4491 -0.8390
vn -0.3566 -0.2183 -0.9084
vn -0.2571 -0.9599 -0.1121
vn -0.2359 -0.9427 -0.2359
vn -0.1121 -0.9599 -0.2571
vn -0.9084 -0.2183 -0.3566
vn -0.8390 -0.4491 -0.3071
vn -0.8579 -0.4899 -0.1548
vn 0.1766 0.2470 0.9528
vn 0.3566 0.2183 0.9084
vn 0.3071 0.4491 0.8390
vn 0.1548 0.4899 0.8579
vn 0.8579 0.4899 0.1548
vn 0.8390 0.4491 0.3071
vn 0.9084 0.2183 0.3566
vn -0.0216 0.9913 -0.1295
vn -0.0470 0.9978 -0.0470
vn -0.1295 0.9913 -0.0216
vn 0.1548 0.4899 -0.8579
vn 0.3071 0.4491 -0.8390
vn 0.3566 0.2183 -0.9084
vn -0.1295 0.9913 0.0216
vn -0.0470 0.9978 0.0470
vn -0.0216 0.9913 0.1295
vn 0.9084 0.2183 -0.3566
vn 0.8390 0.4491 -0.3071
vn 0.8579 0.4899 -0.1548
vn 0.1766 -0.2470 0.9528
vn 0.1548 -0.4899 0.8579
vn 0.3071 -0.4491 0.8390
vn 0.3566 -0.2183 0.9084
vn 0.2571 -0.9599 0.1121
vn 0.2359 -0.9427 0.2359
vn 0.1121 -0.9599 0.2571
vn 0.9084 -0.2183 0.3566
vn 0.8390 -0.4491 0.3071
vn 0.8579 -0.4899 0.1548
vn 0.3566 -0.2183 -0.9084
vn 0.3071 -0.4491 -0.8390
vn 0.1548 -0.4899 -0.8579
vn 0.8579 -0.4899 -0.1548
vn 0.8390 -0.4491 -0.3071
vn 0.9084 -0.2183 -0.3566
vn 0.1121 -0.9599 -0.2571
vn 0.2359 -0.9427 -0.2359
vn 0.2571 -0.9599 -0.1121
vt 0.786527 0.870832
vt 0.786525 0.815243
vt 0.842115 0.815261
vt 0.842117 0.870851
vt 0.991065 0.223078
vt 0.990883 0.278095
vt 0.953020 0.278481
vt 0.953203 0.223464
vt 0.925869 0.219141
vt 0.925812 0.274153
vt 0.887948 0.274479
vt 0.888005 0.219467
vt 0.922038 0.542896
vt 0.921980 0.597908
vt 0.884116 0.598234
vt 0.884174 0.543222
vt 0.200175 0.453076
vt 0.144718 0.452827
vt 0.144744 0.397373
vt 0.200201 0.397622
vt 0.163360 0.919747
vt 0.168582 0.920064
vt 0.167947 0.925775
vt 0.163863 0.926790
vt 0.848659 0.870838
vt 0.847363 0.876099
vt 0.842102 0.877395
vt 0.922415 0.535766
vt 0.926541 0.536765
vt 0.927203 0.542528
vt 0.842103 0.808719
vt 0.847363 0.810015
vt 0.848659 0.815276
vt 0.887570 0.281609
vt 0.883444 0.280610
vt 0.882783 0.274847
vt 0.927203 0.598225
vt 0.926568 0.603935
vt 0.922484 0.604951
vt 0.125496 0.920073
vt 0.125118 0.927203
vt 0.120992 0.926204
vt 0.120330 0.920441
vt 0.878951 0.542905
vt 0.879587 0.537194
vt 0.883671 0.536179
vt 0.206897 0.453237
vt 0.205768 0.458682
vt 0.200316 0.459770
vt 0.931034 0.274470
vt 0.930399 0.280181
vt 0.926315 0.281196
vt 0.144549 0.459549
vt 0.139111 0.458420
vt 0.138022 0.452975
vt 0.883739 0.605364
vt 0.879613 0.604365
vt 0.878951 0.598602
vt 0.163417 0.864735
vt 0.163795 0.857605
vt 0.167921 0.858604
vt 0.168582 0.864367
vt 0.947917 0.223122
vt 0.948564 0.217289
vt 0.952733 0.216254
vt 0.786540 0.877374
vt 0.781279 0.876078
vt 0.779983 0.870817
vt 0.882783 0.219150
vt 0.883418 0.213440
vt 0.887502 0.212424
vt 0.779983 0.815256
vt 0.781279 0.809994
vt 0.786540 0.808699
vt 0.952600 0.285441
vt 0.948566 0.284459
vt 0.947917 0.278824
vt 0.125553 0.865061
vt 0.120330 0.864744
vt 0.120966 0.859034
vt 0.125050 0.858018
vt 0.200370 0.390900
vt 0.205808 0.392029
vt 0.206897 0.397474
vt 0.991485 0.216118
vt 0.995520 0.217099
vt 0.996169 0.222734
vt 0.926247 0.212011
vt 0.930373 0.213010
vt 0.931034 0.218773
vt 0.996169 0.278437
vt 0.995522 0.284269
vt 0.991352 0.285304
vt 0.138022 0.397212
vt 0.139151 0.391766
vt 0.144603 0.390679
s 1
usemtl Keyboard_Mat
f 31/1/1 37/2/2 8/3/3 2/4/4
f 45/5/5 51/6/6 38/7/7 30/8/8
f 50/9/9 22/10/10 9/11/11 36/12/12
f 3/13/13 10/14/14 24/15/15 16/16/16
f 17/17/17 23/18/18 52/19/19 44/20/20
f 1/21/21 4/22/22 5/23/23 7/24/24
f 2/4/4 6/25/25 5/26/26 4/27/27
f 3/13/13 7/28/28 5/29/29 6/30/30
f 8/3/3 11/31/31 12/32/32 14/33/33
f 9/11/11 13/34/34 12/35/35 11/36/36
f 10/14/14 14/37/37 12/38/38 13/39/39
f 15/40/40 18/41/41 19/42/42 21/43/43
f 16/16/16 20/44/44 19/45/45 18/46/46
f 17/17/17 21/47/47 19/48/48 20/49/49
f 22/10/10 25/50/50 26/51/51 28/52/52
f 23/18/18 27/53/53 26/54/54 25/55/55
f 24/15/15 28/56/56 26/57/57 27/58/58
f 29/59/59 32/60/60 33/61/61 35/62/62
f 30/8/8 34/63/63 33/64/64 32/65/65
f 31/1/1 35/66/66 33/67/67 34/68/68
f 36/12/12 39/69/69 40/70/70 42/71/71
f 37/2/2 41/72/72 40/73/73 39/74/74
f 38/7/7 42/75/75 40/76/76 41/77/77
f 43/78/78 46/79/79 47/80/80 49/81/81
f 44/20/20 48/82/82 47/83/83 46/84/84
f 45/5/5 49/85/85 47/86/86 48/87/87
f 50/9/9 53/88/88 54/89/89 56/90/90
f 51/6/6 55/91/91 54/92/92 53/93/93
f 52/19/19 56/94/94 54/95/95 55/96/96
f 15/40/40 1/21/21 7/24/24 18/41/41
f 18/46/46 7/28/28 3/13/13 16/16/16
f 2/4/4 8/3/3 14/33/33 6/25/25
f 6/30/30 14/37/37 10/14/14 3/13/13
f 9/11/11 22/10/10 28/52/52 13/34/34
f 13/39/39 28/56/56 24/15/15 10/14/14
f 23/18/18 17/17/17 20/49/49 27/53/53
f 27/58/58 20/44/44 16/16/16 24/15/15
f 43/78/78 15/40/40 21/43/43 46/79/79
f 46/84/84 21/47/47 17/17/17 44/20/20
f 22/10/10 50/9/9 56/90/90 25/50/50
f 25/55/55 56/94/94 52/19/19 23/18/18
f 51/6/6 45/5/5 48/87/87 55/91/91
f 55/96/96 48/82/82 44/20/20 52/19/19
f 29/59/59 43/78/78 49/81/81 32/60/60
f 32/65/65 49/85/85 45/5/5 30/8/8
f 50/9/9 36/12/12 42/71/71 53/88/88
f 53/93/93 42/75/75 38/7/7 51/6/6
f 37/2/2 31/1/1 34/68/68 41/72/72
f 41/77/77 34/63/63 30/8/8 38/7/7
f 1/21/21 29/59/59 35/62/62 4/22/22
f 4/27/27 35/66/66 31/1/1 2/4/4
f 36/12/12 9/11/11 11/36/36 39/69/69
f 39/74/74 11/31/31 8/3/3 37/2/2
f 15/40/40 43/78/78 29/59/59 1/21/21
