# Blender 4.1.1
# www.blender.org
mtllib Touche_7.mtl
o Keys.006
v -0.020894 0.014969 0.027716
v -0.025718 0.014969 0.025718
v -0.020894 0.018268 0.025718
v -0.020894 -0.013603 0.027716
v 0.020894 0.014969 0.027716
v 0.020894 0.018268 0.025718
v 0.025718 0.014969 0.025718
v 0.020894 -0.013603 0.027716
v 0.025718 -0.013603 0.025718
v 0.020894 -0.016902 0.025718
v 0.024833 -0.016296 0.024833
v 0.020894 -0.018268 0.020894
v -0.020894 -0.016902 0.025718
v -0.024833 -0.016296 0.024833
v -0.020894 -0.018268 0.020894
v -0.025718 -0.016902 0.020894
v -0.020894 -0.018268 -0.020894
v -0.020894 -0.016902 -0.025718
v -0.025718 -0.016902 -0.020894
v 0.020894 -0.018268 -0.020894
v 0.025718 -0.016902 -0.020894
v 0.020894 -0.016902 -0.025718
v 0.020894 -0.013603 -0.027716
v 0.024833 -0.016296 -0.024833
v 0.025718 -0.013603 -0.025718
v 0.027716 -0.013603 -0.020894
v 0.025718 0.014969 -0.025718
v 0.020894 0.014969 -0.027716
v 0.024833 0.017663 -0.024833
v 0.027716 0.014969 -0.020894
v 0.025718 0.018268 -0.020894
v 0.027716 0.014969 0.020894
v 0.025718 0.018268 0.020894
v 0.027716 -0.013603 0.020894
v 0.025718 -0.016902 0.020894
v 0.024833 0.017663 0.024833
v 0.020894 0.017292 0.020894
v 0.020894 0.017292 -0.020894
v -0.020894 0.017292 0.020894
v -0.025718 0.018268 0.020894
v -0.020894 0.017292 -0.020894
v -0.025718 0.018268 -0.020894
v -0.020894 0.018268 -0.025718
v -0.024833 0.017663 -0.024833
v -0.020894 0.014969 -0.027716
v 0.020894 0.018268 -0.025718
v -0.025718 0.014969 -0.025718
v -0.020894 -0.013603 -0.027716
v -0.025718 -0.013603 -0.025718
v -0.024833 -0.016296 -0.024833
v -0.027716 -0.013603 -0.020894
v -0.027716 0.014969 -0.020894
v -0.027716 -0.013603 0.020894
v -0.025718 -0.013603 0.025718
v -0.027716 0.014969 0.020894
v -0.024833 0.017663 0.024833
vn -0.1766 -0.2470 0.9528
vn -0.1766 0.2470 0.9528
vn -0.3566 0.2183 0.9084
vn -0.3566 -0.2183 0.9084
vn -0.1548 0.4899 0.8579
vn -0.3071 0.4491 0.8390
vn 0.1766 0.2470 0.9528
vn 0.1548 0.4899 0.8579
vn 0.1766 -0.2470 0.9528
vn 0.3566 0.2183 0.9084
vn 0.3071 0.4491 0.8390
vn 0.3566 -0.2183 0.9084
vn 0.1548 -0.4899 0.8579
vn 0.3071 -0.4491 0.8390
vn -0.1548 -0.4899 0.8579
vn 0.1279 -0.9835 0.1279
vn 0.2571 -0.9599 0.1121
vn 0.2359 -0.9427 0.2359
vn 0.1121 -0.9599 0.2571
vn -0.1121 -0.9599 0.2571
vn -0.1279 -0.9835 0.1279
vn -0.3071 -0.4491 0.8390
vn -0.2359 -0.9427 0.2359
vn -0.2571 -0.9599 0.1121
vn -0.1279 -0.9835 -0.1279
vn -0.2571 -0.9599 -0.1121
vn 0.1279 -0.9835 -0.1279
vn -0.1121 -0.9599 -0.2571
vn 0.1121 -0.9599 -0.2571
vn -0.2359 -0.9427 -0.2359
vn 0.2571 -0.9599 -0.1121
vn 0.2359 -0.9427 -0.2359
vn -0.1766 -0.2470 -0.9528
vn 0.1766 -0.2470 -0.9528
vn 0.1548 -0.4899 -0.8579
vn -0.1548 -0.4899 -0.8579
vn 0.3566 -0.2183 -0.9084
vn 0.3071 -0.4491 -0.8390
vn 0.9528 -0.2470 -0.1766
vn 0.8579 -0.4899 -0.1548
vn 0.8390 -0.4491 -0.3071
vn 0.9084 -0.2183 -0.3566
vn 0.1766 0.2470 -0.9528
vn 0.3566 0.2183 -0.9084
vn 0.9084 0.2183 -0.3566
vn 0.9528 0.2470 -0.1766
vn 0.1548 0.4899 -0.8579
vn 0.3071 0.4491 -0.8390
vn 0.8390 0.4491 -0.3071
vn 0.8579 0.4899 -0.1548
vn 0.8579 0.4899 0.1548
vn 0.9528 0.2470 0.1766
vn 0.9528 -0.2470 0.1766
vn 0.9084 0.2183 0.3566
vn 0.9084 -0.2183 0.3566
vn 0.8390 0.4491 0.3071
vn 0.8579 -0.4899 0.1548
vn 0.8390 -0.4491 0.3071
vn -0.0618 0.9962 -0.0618
vn -0.0216 0.9913 -0.1295
vn -0.0470 0.9978 -0.0470
vn -0.1295 0.9913 -0.0216
vn -0.0618 0.9962 0.0618
vn -0.1295 0.9913 0.0216
vn 0.0216 0.9913 -0.1295
vn 0.0618 0.9962 -0.0618
vn 0.0618 0.9962 0.0618
vn 0.1295 0.9913 -0.0216
vn 0.0470 0.9978 -0.0470
vn 0.1295 0.9913 0.0216
vn 0.0216 0.9913 0.1295
vn 0.0470 0.9978 0.0470
vn -0.0216 0.9913 0.1295
vn -0.1766 0.2470 -0.9528
vn -0.3566 0.2183 -0.9084
vn -0.3071 0.4491 -0.8390
vn -0.1548 0.4899 -0.8579
vn -0.0470 0.9978 0.0470
vn -0.3566 -0.2183 -0.9084
vn -0.3071 -0.4491 -0.8390
vn -0.9528 -0.2470 -0.1766
vn -0.9084 -0.2183 -0.3566
vn -0.8390 -0.4491 -0.3071
vn -0.8579 -0.4899 -0.1548
vn -0.9084 0.2183 -0.3566
vn -0.9528 0.2470 -0.1766
vn -0.8579 -0.4899 0.1548
vn -0.9528 -0.2470 0.1766
vn -0.9528 0.2470 0.1766
vn -0.9084 -0.2183 0.3566
vn -0.9084 0.2183 0.3566
vn -0.8390 -0.4491 0.3071
vn -0.8579 0.4899 0.1548
vn -0.8579 0.4899 -0.1548
vn -0.8390 0.4491 0.3071
vn -0.8390 0.4491 -0.3071
vt 0.905189 0.136548
vt 0.943053 0.136222
vt 0.943556 0.143265
vt 0.904811 0.143678
vt 0.948276 0.136539
vt 0.947640 0.142250
vt 0.943110 0.081210
vt 0.948276 0.080842
vt 0.905246 0.081536
vt 0.943488 0.074080
vt 0.947614 0.075079
vt 0.904743 0.074493
vt 0.900024 0.081219
vt 0.900659 0.075509
vt 0.900024 0.136916
vt 0.211695 0.792258
vt 0.211864 0.785536
vt 0.217302 0.786665
vt 0.218391 0.792110
vt 0.218391 0.847873
vt 0.211670 0.847712
vt 0.900686 0.142679
vt 0.217262 0.853318
vt 0.211810 0.854406
vt 0.156212 0.847463
vt 0.156043 0.854185
vt 0.156238 0.792009
vt 0.149516 0.847611
vt 0.149516 0.791848
vt 0.150605 0.853056
vt 0.156097 0.785315
vt 0.150646 0.786403
vt 0.918149 0.527026
vt 0.918206 0.472015
vt 0.923372 0.471647
vt 0.923372 0.527344
vt 0.918584 0.464885
vt 0.922710 0.465883
vt 0.938747 0.983155
vt 0.943844 0.983509
vt 0.943203 0.989109
vt 0.939194 0.990094
vt 0.880342 0.472341
vt 0.879840 0.465298
vt 0.900655 0.990421
vt 0.901046 0.983318
vt 0.875120 0.472024
vt 0.875755 0.466313
vt 0.896545 0.989422
vt 0.895889 0.983679
vt 0.895889 0.927975
vt 0.901121 0.928300
vt 0.939149 0.928163
vt 0.900631 0.921230
vt 0.939590 0.920924
vt 0.896532 0.922245
vt 0.944444 0.927831
vt 0.943790 0.921957
vt 0.573890 0.847868
vt 0.573905 0.854406
vt 0.568648 0.853113
vt 0.567351 0.847856
vt 0.573861 0.792277
vt 0.567314 0.792294
vt 0.629460 0.854406
vt 0.629474 0.847863
vt 0.629457 0.792273
vt 0.636015 0.847848
vt 0.634721 0.853109
vt 0.636001 0.792287
vt 0.629442 0.785731
vt 0.634704 0.787026
vt 0.573874 0.785730
vt 0.880285 0.527353
vt 0.879907 0.534483
vt 0.875782 0.533484
vt 0.875120 0.527721
vt 0.568609 0.787029
vt 0.918652 0.534069
vt 0.922736 0.533054
vt 0.943110 0.855156
vt 0.943488 0.848026
vt 0.947614 0.849025
vt 0.948276 0.854789
vt 0.904743 0.848440
vt 0.905246 0.855483
vt 0.948276 0.910486
vt 0.943053 0.910169
vt 0.905189 0.910495
vt 0.943556 0.917211
vt 0.904812 0.917624
vt 0.947640 0.916196
vt 0.900024 0.910862
vt 0.900024 0.855166
vt 0.900686 0.916626
vt 0.900659 0.849455
s 1
usemtl Keyboard_Mat
f 4/1/1 1/2/2 2/3/3 54/4/4
f 1/2/2 3/5/5 56/6/6 2/3/3
f 1/2/2 5/7/7 6/8/8 3/5/5
f 4/1/1 8/9/9 5/7/7 1/2/2
f 5/7/7 7/10/10 36/11/11 6/8/8
f 5/7/7 8/9/9 9/12/12 7/10/10
f 8/9/9 10/13/13 11/14/14 9/12/12
f 8/9/9 4/1/1 13/15/15 10/13/13
f 12/16/16 35/17/17 11/18/18 10/19/19
f 10/19/19 13/20/20 15/21/21 12/16/16
f 4/1/1 54/4/4 14/22/22 13/15/15
f 15/21/21 13/20/20 14/23/23 16/24/24
f 17/25/25 15/21/21 16/24/24 19/26/26
f 15/21/21 17/25/25 20/27/27 12/16/16
f 18/28/28 22/29/29 20/27/27 17/25/25
f 17/25/25 19/26/26 50/30/30 18/28/28
f 21/31/31 35/17/17 12/16/16 20/27/27
f 20/27/27 22/29/29 24/32/32 21/31/31
f 48/33/33 23/34/34 22/35/35 18/36/36
f 23/34/34 25/37/37 24/38/38 22/35/35
f 26/39/39 21/40/40 24/41/41 25/42/42
f 23/34/34 28/43/43 27/44/44 25/37/37
f 25/42/42 27/45/45 30/46/46 26/39/39
f 28/43/43 46/47/47 29/48/48 27/44/44
f 30/46/46 27/45/45 29/49/49 31/50/50
f 31/50/50 33/51/51 32/52/52 30/46/46
f 34/53/53 26/39/39 30/46/46 32/52/52
f 7/54/54 9/55/55 34/53/53 32/52/52
f 32/52/52 33/51/51 36/56/56 7/54/54
f 26/39/39 34/53/53 35/57/57 21/40/40
f 34/53/53 9/55/55 11/58/58 35/57/57
f 37/59/59 6/60/60 36/61/61 33/62/62
f 38/63/63 37/59/59 33/62/62 31/64/64
f 3/65/65 6/60/60 37/59/59 39/66/66
f 37/59/59 38/63/63 41/67/67 39/66/66
f 39/66/66 40/68/68 56/69/69 3/65/65
f 39/66/66 41/67/67 42/70/70 40/68/68
f 41/67/67 43/71/71 44/72/72 42/70/70
f 46/73/73 43/71/71 41/67/67 38/63/63
f 45/74/74 47/75/75 44/76/76 43/77/77
f 28/43/43 45/74/74 43/77/77 46/47/47
f 38/63/63 31/64/64 29/78/78 46/73/73
f 45/74/74 48/33/33 49/79/79 47/75/75
f 23/34/34 48/33/33 45/74/74 28/43/43
f 48/33/33 18/36/36 50/80/80 49/79/79
f 51/81/81 49/82/82 50/83/83 19/84/84
f 47/85/85 49/82/82 51/81/81 52/86/86
f 19/84/84 16/87/87 53/88/88 51/81/81
f 55/89/89 52/86/86 51/81/81 53/88/88
f 54/90/90 2/91/91 55/89/89 53/88/88
f 53/88/88 16/87/87 14/92/92 54/90/90
f 40/93/93 42/94/94 52/86/86 55/89/89
f 55/89/89 2/91/91 56/95/95 40/93/93
f 52/86/86 42/94/94 44/96/96 47/85/85
