# Blender 4.1.1
# www.blender.org
mtllib Touche_5.mtl
o Keys.004
v -0.020894 0.014969 0.027716
v -0.020894 0.017292 0.020894
v -0.027716 0.014969 0.020894
v -0.020894 0.018268 0.025718
v -0.024833 0.017663 0.024833
v -0.025718 0.018268 0.020894
v -0.025718 0.014969 0.025718
v -0.020894 0.017292 -0.020894
v -0.020894 0.014969 -0.027716
v -0.027716 0.014969 -0.020894
v -0.020894 0.018268 -0.025718
v -0.024833 0.017663 -0.024833
v -0.025718 0.014969 -0.025718
v -0.025718 0.018268 -0.020894
v -0.020894 -0.013603 0.027716
v -0.027716 -0.013603 0.020894
v -0.020894 -0.018268 0.020894
v -0.025718 -0.013603 0.025718
v -0.024833 -0.016296 0.024833
v -0.025718 -0.016902 0.020894
v -0.020894 -0.016902 0.025718
v -0.020894 -0.013603 -0.027716
v -0.020894 -0.018268 -0.020894
v -0.027716 -0.013603 -0.020894
v -0.020894 -0.016902 -0.025718
v -0.024833 -0.016296 -0.024833
v -0.025718 -0.016902 -0.020894
v -0.025718 -0.013603 -0.025718
v 0.020894 0.014969 0.027716
v 0.027716 0.014969 0.020894
v 0.020894 0.017292 0.020894
v 0.025718 0.014969 0.025718
v 0.024833 0.017663 0.024833
v 0.025718 0.018268 0.020894
v 0.020894 0.018268 0.025718
v 0.020894 0.014969 -0.027716
v 0.020894 0.017292 -0.020894
v 0.027716 0.014969 -0.020894
v 0.020894 0.018268 -0.025718
v 0.024833 0.017663 -0.024833
v 0.025718 0.018268 -0.020894
v 0.025718 0.014969 -0.025718
v 0.020894 -0.013603 0.027716
v 0.020894 -0.018268 0.020894
v 0.027716 -0.013603 0.020894
v 0.020894 -0.016902 0.025718
v 0.024833 -0.016296 0.024833
v 0.025718 -0.016902 0.020894
v 0.025718 -0.013603 0.025718
v 0.020894 -0.013603 -0.027716
v 0.027716 -0.013603 -0.020894
v 0.020894 -0.018268 -0.020894
v 0.025718 -0.013603 -0.025718
v 0.024833 -0.016296 -0.024833
v 0.025718 -0.016902 -0.020894
v 0.020894 -0.016902 -0.025718
vn -0.0618 0.9962 -0.0618
vn -0.0618 0.9962 0.0618
vn 0.0618 0.9962 0.0618
vn 0.0618 0.9962 -0.0618
vn 0.9528 -0.2470 0.1766
vn 0.9528 -0.2470 -0.1766
vn 0.9528 0.2470 -0.1766
vn 0.9528 0.2470 0.1766
vn 0.1766 -0.2470 -0.9528
vn -0.1766 -0.2470 -0.9528
vn -0.1766 0.2470 -0.9528
vn 0.1766 0.2470 -0.9528
vn -0.9528 0.2470 0.1766
vn -0.9528 0.2470 -0.1766
vn -0.9528 -0.2470 -0.1766
vn -0.9528 -0.2470 0.1766
vn -0.1279 -0.9835 0.1279
vn -0.1279 -0.9835 -0.1279
vn 0.1279 -0.9835 -0.1279
vn 0.1279 -0.9835 0.1279
vn -0.1766 0.2470 0.9528
vn -0.1548 0.4899 0.8579
vn -0.3071 0.4491 0.8390
vn -0.3566 0.2183 0.9084
vn 0.1295 0.9913 -0.0216
vn 0.0470 0.9978 -0.0470
vn 0.0216 0.9913 -0.1295
vn -0.9084 0.2183 0.3566
vn -0.8390 0.4491 0.3071
vn -0.8579 0.4899 0.1548
vn 0.0216 0.9913 0.1295
vn 0.0470 0.9978 0.0470
vn 0.1295 0.9913 0.0216
vn -0.3566 0.2183 -0.9084
vn -0.3071 0.4491 -0.8390
vn -0.1548 0.4899 -0.8579
vn -0.8579 0.4899 -0.1548
vn -0.8390 0.4491 -0.3071
vn -0.9084 0.2183 -0.3566
vn -0.1766 -0.2470 0.9528
vn -0.3566 -0.2183 0.9084
vn -0.3071 -0.4491 0.8390
vn -0.1548 -0.4899 0.8579
vn -0.8579 -0.4899 0.1548
vn -0.8390 -0.4491 0.3071
vn -0.9084 -0.2183 0.3566
vn -0.1121 -0.9599 0.2571
vn -0.2359 -0.9427 0.2359
vn -0.2571 -0.9599 0.1121
vn -0.1548 -0.4899 -0.8579
vn -0.3071 -0.4491 -0.8390
vn -0.3566 -0.2183 -0.9084
vn -0.2571 -0.9599 -0.1121
vn -0.2359 -0.9427 -0.2359
vn -0.1121 -0.9599 -0.2571
vn -0.9084 -0.2183 -0.3566
vn -0.8390 -0.4491 -0.3071
vn -0.8579 -0.4899 -0.1548
vn 0.1766 0.2470 0.9528
vn 0.3566 0.2183 0.9084
vn 0.3071 0.4491 0.8390
vn 0.1548 0.4899 0.8579
vn 0.8579 0.4899 0.1548
vn 0.8390 0.4492 0.3071
vn 0.9084 0.2183 0.3566
vn -0.0216 0.9913 -0.1295
vn -0.0470 0.9978 -0.0470
vn -0.1295 0.9913 -0.0216
vn 0.1548 0.4899 -0.8579
vn 0.3071 0.4491 -0.8390
vn 0.3566 0.2183 -0.9084
vn -0.1295 0.9913 0.0216
vn -0.0470 0.9978 0.0470
vn -0.0216 0.9913 0.1295
vn 0.9084 0.2183 -0.3566
vn 0.8390 0.4491 -0.3071
vn 0.8579 0.4899 -0.1548
vn 0.1766 -0.2470 0.9528
vn 0.1548 -0.4899 0.8579
vn 0.3071 -0.4491 0.8390
vn 0.3566 -0.2183 0.9084
vn 0.2571 -0.9599 0.1121
vn 0.2359 -0.9427 0.2359
vn 0.1121 -0.9599 0.2571
vn 0.9084 -0.2183 0.3566
vn 0.8390 -0.4491 0.3071
vn 0.8579 -0.4899 0.1548
vn 0.3566 -0.2183 -0.9084
vn 0.3071 -0.4491 -0.8390
vn 0.1548 -0.4899 -0.8579
vn 0.8579 -0.4899 -0.1548
vn 0.8390 -0.4492 -0.3071
vn 0.9084 -0.2183 -0.3566
vn 0.1121 -0.9599 -0.2571
vn 0.2359 -0.9427 -0.2359
vn 0.2571 -0.9599 -0.1121
vt 0.886158 0.698436
vt 0.830568 0.698439
vt 0.830587 0.642849
vt 0.886176 0.642847
vt 0.324729 0.920073
vt 0.324787 0.865061
vt 0.362651 0.864735
vt 0.362594 0.919747
vt 0.901358 0.669115
vt 0.901415 0.614103
vt 0.939279 0.613777
vt 0.939222 0.668789
vt 0.502890 0.960303
vt 0.502948 0.905291
vt 0.540812 0.904965
vt 0.540754 0.959977
vt 0.083317 0.598670
vt 0.027860 0.598421
vt 0.027885 0.542967
vt 0.083343 0.543216
vt 0.930151 0.684985
vt 0.924928 0.684668
vt 0.925563 0.678957
vt 0.929648 0.677942
vt 0.886163 0.636305
vt 0.891425 0.637601
vt 0.892720 0.642862
vt 0.502513 0.967433
vt 0.498387 0.966434
vt 0.497725 0.960671
vt 0.824045 0.642861
vt 0.825341 0.637601
vt 0.830602 0.636305
vt 0.939657 0.606647
vt 0.943783 0.607646
vt 0.944444 0.613409
vt 0.497725 0.904974
vt 0.498360 0.899263
vt 0.502445 0.898248
vt 0.968015 0.684659
vt 0.968392 0.677529
vt 0.972518 0.678528
vt 0.973180 0.684291
vt 0.545977 0.960294
vt 0.545342 0.966005
vt 0.541258 0.967020
vt 0.090038 0.598831
vt 0.088909 0.604276
vt 0.083458 0.605364
vt 0.896193 0.613786
vt 0.896828 0.608075
vt 0.900912 0.607060
vt 0.027691 0.605143
vt 0.022253 0.604013
vt 0.021164 0.598569
vt 0.541189 0.897835
vt 0.545315 0.898834
vt 0.545977 0.904597
vt 0.930093 0.739996
vt 0.929716 0.747126
vt 0.925590 0.746128
vt 0.924928 0.740364
vt 0.367816 0.920064
vt 0.367181 0.925775
vt 0.363097 0.926790
vt 0.892700 0.698425
vt 0.891404 0.703685
vt 0.886143 0.704981
vt 0.944444 0.669106
vt 0.943809 0.674817
vt 0.939725 0.675832
vt 0.830581 0.704981
vt 0.825320 0.703685
vt 0.824024 0.698424
vt 0.363028 0.857605
vt 0.367154 0.858604
vt 0.367816 0.864367
vt 0.967957 0.739670
vt 0.973180 0.739987
vt 0.972545 0.745698
vt 0.968460 0.746713
vt 0.083512 0.536494
vt 0.088950 0.537623
vt 0.090038 0.543068
vt 0.324352 0.927203
vt 0.320226 0.926204
vt 0.319564 0.920441
vt 0.900980 0.676245
vt 0.896854 0.675246
vt 0.896193 0.669483
vt 0.319564 0.864744
vt 0.320199 0.859034
vt 0.324284 0.858018
vt 0.021164 0.542806
vt 0.022293 0.537361
vt 0.027745 0.536273
s 1
usemtl Keyboard_Mat
f 31/1/1 37/2/2 8/3/3 2/4/4
f 45/5/5 51/6/6 38/7/7 30/8/8
f 50/9/9 22/10/10 9/11/11 36/12/12
f 3/13/13 10/14/14 24/15/15 16/16/16
f 17/17/17 23/18/18 52/19/19 44/20/20
f 1/21/21 4/22/22 5/23/23 7/24/24
f 2/4/4 6/25/25 5/26/26 4/27/27
f 3/13/13 7/28/28 5/29/29 6/30/30
f 8/3/3 11/31/31 12/32/32 14/33/33
f 9/11/11 13/34/34 12/35/35 11/36/36
f 10/14/14 14/37/37 12/38/38 13/39/39
f 15/40/40 18/41/41 19/42/42 21/43/43
f 16/16/16 20/44/44 19/45/45 18/46/46
f 17/17/17 21/47/47 19/48/48 20/49/49
f 22/10/10 25/50/50 26/51/51 28/52/52
f 23/18/18 27/53/53 26/54/54 25/55/55
f 24/15/15 28/56/56 26/57/57 27/58/58
f 29/59/59 32/60/60 33/61/61 35/62/62
f 30/8/8 34/63/63 33/64/64 32/65/65
f 31/1/1 35/66/66 33/67/67 34/68/68
f 36/12/12 39/69/69 40/70/70 42/71/71
f 37/2/2 41/72/72 40/73/73 39/74/74
f 38/7/7 42/75/75 40/76/76 41/77/77
f 43/78/78 46/79/79 47/80/80 49/81/81
f 44/20/20 48/82/82 47/83/83 46/84/84
f 45/5/5 49/85/85 47/86/86 48/87/87
f 50/9/9 53/88/88 54/89/89 56/90/90
f 51/6/6 55/91/91 54/92/92 53/93/93
f 52/19/19 56/94/94 54/95/95 55/96/96
f 15/40/40 1/21/21 7/24/24 18/41/41
f 18/46/46 7/28/28 3/13/13 16/16/16
f 2/4/4 8/3/3 14/33/33 6/25/25
f 6/30/30 14/37/37 10/14/14 3/13/13
f 9/11/11 22/10/10 28/52/52 13/34/34
f 13/39/39 28/56/56 24/15/15 10/14/14
f 23/18/18 17/17/17 20/49/49 27/53/53
f 27/58/58 20/44/44 16/16/16 24/15/15
f 43/78/78 15/40/40 21/43/43 46/79/79
f 46/84/84 21/47/47 17/17/17 44/20/20
f 22/10/10 50/9/9 56/90/90 25/50/50
f 25/55/55 56/94/94 52/19/19 23/18/18
f 51/6/6 45/5/5 48/87/87 55/91/91
f 55/96/96 48/82/82 44/20/20 52/19/19
f 29/59/59 43/78/78 49/81/81 32/60/60
f 32/65/65 49/85/85 45/5/5 30/8/8
f 50/9/9 36/12/12 42/71/71 53/88/88
f 53/93/93 42/75/75 38/7/7 51/6/6
f 37/2/2 31/1/1 34/68/68 41/72/72
f 41/77/77 34/63/63 30/8/8 38/7/7
f 1/21/21 29/59/59 35/62/62 4/22/22
f 4/27/27 35/66/66 31/1/1 2/4/4
f 36/12/12 9/11/11 11/36/36 39/69/69
f 39/74/74 11/31/31 8/3/3 37/2/2
f 15/40/40 43/78/78 29/59/59 1/21/21
