# Blender 4.1.1
# www.blender.org
mtllib Ecran_For_Shader.mtl
o Ecran_For_Shader.001
v 0.005086 0.000000 0.000000
v 0.002452 0.000000 0.040261
v 0.002452 0.000000 -0.040261
v 0.004013 -0.024379 -0.000000
v 0.004013 0.024379 0.000000
v 0.001656 0.024379 -0.040261
v 0.001656 -0.024379 -0.040261
v 0.001656 -0.024379 0.040261
v 0.001656 0.024379 0.040261
v -0.003428 0.048329 -0.080094
v -0.003428 -0.048329 -0.080094
v -0.003428 -0.048329 0.080094
v -0.003428 0.048329 0.080094
v -0.002135 0.000000 -0.080202
v 0.001808 -0.048437 -0.000000
v 0.001808 0.048437 0.000000
v -0.002135 0.000000 0.080202
v -0.002545 -0.024388 -0.080201
v -0.000023 -0.048436 -0.040282
v -0.000023 0.048436 0.040282
v -0.002545 -0.024388 0.080201
v -0.002545 0.024388 -0.080201
v -0.000023 -0.048436 0.040282
v -0.000023 0.048436 -0.040282
v -0.002545 0.024388 0.080201
vn 0.9940 0.0389 -0.1021
vn 0.9941 0.0533 -0.0949
vn 0.9951 0.0668 -0.0734
vn 0.9956 0.0491 -0.0795
vn 0.9940 -0.0000 -0.1094
vn 0.9963 -0.0000 -0.0856
vn 0.9956 -0.0491 -0.0795
vn 1.0000 -0.0000 -0.0000
vn 0.9982 -0.0593 -0.0000
vn 0.9982 0.0593 -0.0000
vn 0.9968 0.0805 -0.0000
vn 0.9951 0.0668 0.0734
vn 0.9956 0.0491 0.0795
vn 0.9940 -0.0389 -0.1021
vn 0.9941 -0.0533 -0.0949
vn 0.9951 -0.0668 -0.0734
vn 0.9951 -0.0668 0.0734
vn 0.9956 -0.0491 0.0795
vn 0.9940 -0.0389 0.1021
vn 0.9941 -0.0533 0.0949
vn 0.9968 -0.0805 -0.0000
vn 0.9941 0.0533 0.0949
vn 0.9940 0.0389 0.1021
vn 0.9963 -0.0000 0.0856
vn 0.9940 -0.0000 0.1094
vt 0.919046 0.533092
vt 0.988621 0.533231
vt 0.988854 0.649273
vt 0.918876 0.649628
vt 0.848177 0.533157
vt 0.848177 0.649785
vt 0.777479 0.649628
vt 0.848177 0.766427
vt 0.777649 0.766427
vt 0.918706 0.766427
vt 0.988792 0.766427
vt 0.988854 0.883581
vt 0.918876 0.883226
vt 0.777309 0.533092
vt 0.707734 0.533231
vt 0.707501 0.649273
vt 0.707501 0.883581
vt 0.777479 0.883226
vt 0.777309 0.999762
vt 0.707734 0.999623
vt 0.707563 0.766427
vt 0.988621 0.999623
vt 0.919046 0.999762
vt 0.848177 0.883069
vt 0.848177 0.999697
s 1
usemtl Ecran
f 22/1/1 10/2/2 24/3/3 6/4/4
f 14/5/5 22/1/1 6/4/4 3/6/6
f 7/7/7 3/6/6 1/8/8 4/9/9
f 5/10/10 16/11/11 20/12/12 9/13/13
f 3/6/6 6/4/4 5/10/10 1/8/8
f 18/14/14 14/5/5 3/6/6 7/7/7
f 11/15/15 18/14/14 7/7/7 19/16/16
f 6/4/4 24/3/3 16/11/11 5/10/10
f 23/17/17 8/18/18 21/19/19 12/20/20
f 15/21/21 4/9/9 8/18/18 23/17/17
f 9/13/13 20/12/12 13/22/22 25/23/23
f 19/16/16 7/7/7 4/9/9 15/21/21
f 4/9/9 1/8/8 2/24/24 8/18/18
f 8/18/18 2/24/24 17/25/25 21/19/19
f 1/8/8 5/10/10 9/13/13 2/24/24
f 2/24/24 9/13/13 25/23/23 17/25/25
