# Blender 4.1.1
# www.blender.org
mtllib EcranShader.mtl
o Tel.001
v 0.004252 0.004739 -0.005853
v 0.000000 0.004739 -0.007235
v 0.006881 0.004739 -0.002236
v 0.006881 0.004739 0.002236
v 0.004252 0.004739 0.005853
v 0.000000 0.004739 0.007235
v -0.004252 0.004739 0.005853
v -0.006881 0.004739 0.002236
v -0.006881 0.004739 -0.002236
v -0.004252 0.004739 -0.005853
v 0.077679 -0.004739 -0.106916
v 0.000000 -0.004739 -0.132156
v 0.125688 -0.004739 -0.040838
v 0.125688 -0.004739 0.040838
v 0.077679 -0.004739 0.106916
v 0.000000 -0.004739 0.132156
v -0.077679 -0.004739 0.106916
v -0.125688 -0.004739 0.040838
v -0.125688 -0.004739 -0.040838
v -0.077679 -0.004739 -0.106916
vn 0.0267 0.9990 -0.0367
vn -0.0000 0.9990 -0.0454
vn -0.0267 0.9990 -0.0367
vn -0.0432 0.9990 -0.0140
vn -0.0432 0.9990 0.0140
vn -0.0267 0.9990 0.0367
vn -0.0000 0.9990 0.0454
vn 0.0267 0.9990 0.0367
vn 0.0432 0.9990 0.0140
vn 0.0432 0.9990 -0.0140
vn 0.0445 0.9971 -0.0612
vn -0.0000 0.9971 -0.0757
vn 0.0720 0.9971 -0.0234
vn 0.0720 0.9971 0.0234
vn 0.0445 0.9971 0.0612
vn -0.0000 0.9971 0.0757
vn -0.0445 0.9971 0.0612
vn -0.0720 0.9971 0.0234
vn -0.0720 0.9971 -0.0234
vn -0.0445 0.9971 -0.0612
vt 0.408232 0.382844
vt 0.409216 0.385873
vt 0.408232 0.388901
vt 0.405655 0.390773
vt 0.402471 0.390773
vt 0.399895 0.388901
vt 0.398911 0.385873
vt 0.399895 0.382844
vt 0.402471 0.380972
vt 0.405655 0.380972
vt 0.490252 0.327287
vt 0.508227 0.382609
vt 0.439356 0.287816
vt 0.486415 0.322006
vt 0.374979 0.285799
vt 0.433147 0.285799
vt 0.321712 0.322006
vt 0.368771 0.287816
vt 0.299900 0.382609
vt 0.317875 0.327287
vt 0.317875 0.444458
vt 0.299900 0.389136
vt 0.368771 0.483930
vt 0.321711 0.449739
vt 0.433147 0.485947
vt 0.374979 0.485947
vt 0.486415 0.449739
vt 0.439356 0.483930
vt 0.508227 0.389136
vt 0.490252 0.444458
s 1
usemtl Num_Mat
f 1/1/1 2/2/2 10/3/3 9/4/4 8/5/5 7/6/6 6/7/7 5/8/8 4/9/9 3/10/10
f 2/2/2 1/1/1 11/11/11 12/12/12
f 1/1/1 3/10/10 13/13/13 11/14/11
f 3/10/10 4/9/9 14/15/14 13/16/13
f 4/9/9 5/8/8 15/17/15 14/18/14
f 5/8/8 6/7/7 16/19/16 15/20/15
f 6/7/7 7/6/6 17/21/17 16/22/16
f 7/6/6 8/5/5 18/23/18 17/24/17
f 8/5/5 9/4/4 19/25/19 18/26/18
f 9/4/4 10/3/3 20/27/20 19/28/19
f 10/3/3 2/2/2 12/29/12 20/30/20
