# Blender 4.1.1
# www.blender.org
mtllib Ecran_Pc_For_Shader.mtl
o Cylinder.001
v 0.149203 -0.106955 0.009051
v 0.149203 0.106955 0.009051
v -0.149204 0.106955 0.009051
v -0.149204 -0.106955 0.009051
v 0.000000 -0.106955 -0.000588
v 0.149203 -0.000000 0.005415
v 0.000000 0.106955 -0.000588
v -0.149204 -0.000000 0.005415
v 0.000000 -0.000000 -0.011092
v -0.074602 -0.106955 0.002855
v 0.149203 0.053478 0.006558
v -0.074602 0.106955 0.002855
v -0.149204 -0.053478 0.006558
v 0.074602 -0.106955 0.002855
v 0.149203 -0.053478 0.006558
v 0.074602 0.106955 0.002855
v -0.149204 0.053478 0.006558
v 0.074602 -0.000000 -0.005228
v -0.074602 -0.000000 -0.005228
v 0.000000 -0.053478 -0.007826
v 0.000000 0.053478 -0.007826
v -0.074602 0.053478 -0.002821
v -0.074602 -0.053478 -0.002821
v 0.074602 -0.053478 -0.002821
v 0.074602 0.053478 -0.002821
v -0.111903 -0.106955 0.006114
v 0.149203 0.080217 0.007761
v -0.111903 0.106955 0.006114
v -0.149204 -0.080217 0.007761
v 0.037301 -0.106955 0.000351
v 0.149203 -0.026739 0.005716
v 0.037301 0.106955 0.000351
v -0.149204 0.026739 0.005716
v 0.111903 -0.000000 0.000147
v -0.037301 -0.000000 -0.009409
v 0.000000 -0.080217 -0.004464
v 0.000000 0.026739 -0.010195
v -0.037301 -0.106955 0.000351
v 0.149203 0.026739 0.005716
v -0.037301 0.106955 0.000351
v -0.149204 -0.026739 0.005716
v 0.111903 -0.106955 0.006114
v 0.149203 -0.080217 0.007761
v 0.111903 0.106955 0.006114
v -0.149204 0.080217 0.007761
v 0.037301 -0.000000 -0.009409
v -0.111903 -0.000000 0.000147
v 0.000000 -0.026739 -0.010195
v 0.000000 0.080217 -0.004464
v -0.037301 0.053478 -0.006445
v -0.111903 0.053478 0.001934
v -0.074602 0.026739 -0.004597
v -0.074602 0.080217 -0.000203
v -0.037301 -0.053478 -0.006445
v -0.111903 -0.053478 0.001934
v -0.074602 -0.080217 -0.000203
v -0.074602 -0.026739 -0.004597
v 0.111903 -0.053478 0.001934
v 0.037301 -0.053478 -0.006445
v 0.074602 -0.080217 -0.000203
v 0.074602 -0.026739 -0.004597
v 0.111903 0.053478 0.001934
v 0.037301 0.053478 -0.006445
v 0.074602 0.026739 -0.004597
v 0.074602 0.080217 -0.000203
v 0.037301 0.080217 -0.003300
v 0.037301 0.026739 -0.008620
v 0.111903 0.026739 0.000615
v 0.037301 -0.026739 -0.008620
v 0.037301 -0.080217 -0.003300
v 0.111903 -0.080217 0.003878
v -0.111903 -0.026739 0.000615
v -0.111903 -0.080217 0.003878
v -0.037301 -0.080217 -0.003300
v -0.111903 0.080217 0.003878
v -0.111903 0.026739 0.000615
v -0.037301 0.026739 -0.008620
v -0.037301 0.080217 -0.003300
v -0.037301 -0.026739 -0.008620
v 0.111903 -0.026739 0.000615
v 0.111903 0.080217 0.003878
vn 0.1047 0.0766 -0.9916
vn 0.0941 0.0817 -0.9922
vn 0.0908 0.0655 -0.9937
vn 0.1020 0.0620 -0.9929
vn 0.1349 -0.0330 -0.9903
vn 0.1391 -0.0000 -0.9903
vn 0.1377 -0.0000 -0.9905
vn 0.1334 -0.0272 -0.9907
vn -0.0735 -0.0540 -0.9958
vn -0.0765 -0.0000 -0.9971
vn -0.0000 -0.0000 -1.0000
vn -0.0000 -0.0581 -0.9983
vn -0.0563 0.1228 -0.9908
vn -0.0512 0.1317 -0.9900
vn -0.0000 0.1394 -0.9902
vn -0.0000 0.1301 -0.9915
vn -0.0735 0.0540 -0.9958
vn -0.0661 0.0964 -0.9931
vn -0.0000 0.1027 -0.9947
vn -0.0000 0.0581 -0.9983
vn -0.1349 0.0330 -0.9903
vn -0.1229 0.0601 -0.9906
vn -0.1101 0.0805 -0.9907
vn -0.1209 0.0443 -0.9917
vn -0.1047 0.0766 -0.9916
vn -0.0941 0.0817 -0.9922
vn -0.0860 0.1110 -0.9901
vn -0.0946 0.1034 -0.9901
vn -0.0563 -0.1228 -0.9908
vn -0.0661 -0.0964 -0.9931
vn -0.0000 -0.1027 -0.9947
vn -0.0000 -0.1301 -0.9915
vn -0.1047 -0.0766 -0.9916
vn -0.1229 -0.0601 -0.9906
vn -0.1101 -0.0805 -0.9907
vn -0.0946 -0.1034 -0.9901
vn -0.1349 -0.0330 -0.9903
vn -0.1391 -0.0000 -0.9903
vn -0.1249 -0.0000 -0.9922
vn -0.1209 -0.0443 -0.9917
vn 0.1047 -0.0766 -0.9916
vn 0.1229 -0.0601 -0.9906
vn 0.1211 -0.0492 -0.9914
vn 0.1020 -0.0620 -0.9929
vn 0.0563 -0.1228 -0.9908
vn 0.0661 -0.0964 -0.9931
vn 0.1101 -0.0805 -0.9907
vn 0.0946 -0.1034 -0.9901
vn 0.0735 -0.0540 -0.9958
vn 0.0765 -0.0000 -0.9971
vn 0.1249 -0.0000 -0.9922
vn 0.1209 -0.0443 -0.9917
vn 0.1349 0.0330 -0.9903
vn 0.1229 0.0601 -0.9906
vn 0.1211 0.0492 -0.9914
vn 0.1334 0.0272 -0.9907
vn 0.0735 0.0540 -0.9958
vn 0.0661 0.0964 -0.9931
vn 0.1101 0.0805 -0.9907
vn 0.1209 0.0443 -0.9917
vn 0.0563 0.1228 -0.9908
vn 0.0512 0.1317 -0.9900
vn 0.0860 0.1110 -0.9901
vn 0.0946 0.1034 -0.9901
vn 0.0512 -0.1317 -0.9900
vn 0.0860 -0.1110 -0.9901
vn -0.0000 -0.1394 -0.9902
vn 0.0941 -0.0817 -0.9922
vn 0.0908 -0.0655 -0.9937
vn -0.1211 -0.0492 -0.9914
vn -0.1334 -0.0272 -0.9907
vn -0.1377 -0.0000 -0.9905
vn -0.0941 -0.0817 -0.9922
vn -0.0860 -0.1110 -0.9901
vn -0.0908 -0.0655 -0.9937
vn -0.1020 -0.0620 -0.9929
vn -0.0512 -0.1317 -0.9900
vn -0.1211 0.0492 -0.9914
vn -0.1020 0.0620 -0.9929
vn -0.0908 0.0655 -0.9937
vn -0.1334 0.0272 -0.9907
vt 0.857414 0.147165
vt 0.851970 0.147168
vt 0.851970 0.139577
vt 0.857414 0.139576
vt 0.879189 0.147160
vt 0.873746 0.147160
vt 0.873746 0.139573
vt 0.879189 0.139573
vt 0.879189 0.177525
vt 0.873746 0.177524
vt 0.873746 0.169927
vt 0.879189 0.169929
vt 0.857414 0.177532
vt 0.851970 0.177536
vt 0.851970 0.169941
vt 0.857414 0.169936
vt 0.868302 0.177525
vt 0.862858 0.177528
vt 0.862858 0.169932
vt 0.868302 0.169929
vt 0.868302 0.192725
vt 0.862858 0.192726
vt 0.862858 0.185126
vt 0.868302 0.185124
vt 0.857414 0.192729
vt 0.851970 0.192732
vt 0.851970 0.185134
vt 0.857414 0.185130
vt 0.890077 0.177532
vt 0.884633 0.177528
vt 0.884633 0.169932
vt 0.890077 0.169936
vt 0.890077 0.192729
vt 0.884633 0.192726
vt 0.884633 0.185126
vt 0.890077 0.185130
vt 0.879189 0.192725
vt 0.873746 0.192724
vt 0.873746 0.185123
vt 0.879189 0.185124
vt 0.890077 0.147165
vt 0.884633 0.147162
vt 0.884633 0.139574
vt 0.890077 0.139576
vt 0.890077 0.162344
vt 0.884633 0.162339
vt 0.884633 0.154750
vt 0.890077 0.154753
vt 0.879189 0.162337
vt 0.873746 0.162336
vt 0.873746 0.154747
vt 0.879189 0.154748
vt 0.868302 0.147160
vt 0.862858 0.147162
vt 0.862858 0.139574
vt 0.868302 0.139573
vt 0.868302 0.162337
vt 0.862858 0.162339
vt 0.862858 0.154750
vt 0.868302 0.154748
vt 0.857414 0.162344
vt 0.851970 0.162348
vt 0.851970 0.154757
vt 0.857414 0.154753
vt 0.895521 0.162348
vt 0.895521 0.154757
vt 0.895521 0.169941
vt 0.895521 0.147168
vt 0.895521 0.139577
vt 0.884633 0.200326
vt 0.879189 0.200325
vt 0.873746 0.200325
vt 0.895521 0.192732
vt 0.895521 0.185134
vt 0.895521 0.200330
vt 0.890077 0.200328
vt 0.895521 0.177536
vt 0.862858 0.200326
vt 0.857414 0.200328
vt 0.851970 0.200330
vt 0.868302 0.200325
s 1
usemtl Ecran_Pc_For_Shader
f 81/1/1 44/2/2 2/3/3 27/4/4
f 80/5/5 34/6/6 6/7/7 31/8/8
f 79/9/9 35/10/10 9/11/11 48/12/12
f 78/13/13 40/14/14 7/15/15 49/16/16
f 77/17/17 50/18/18 21/19/19 37/20/20
f 76/21/21 51/22/22 22/23/23 52/24/24
f 75/25/25 28/26/26 12/27/27 53/28/28
f 74/29/29 54/30/30 20/31/31 36/32/32
f 73/33/33 55/34/34 23/35/35 56/36/36
f 72/37/37 47/38/38 19/39/39 57/40/40
f 71/41/41 58/42/42 15/43/43 43/44/44
f 70/45/45 59/46/46 24/47/47 60/48/48
f 69/49/49 46/50/50 18/51/51 61/52/52
f 68/53/53 62/54/54 11/55/55 39/56/56
f 67/57/57 63/58/58 25/59/59 64/60/60
f 66/61/61 32/62/62 16/63/63 65/64/64
f 63/58/58 66/61/61 65/64/64 25/59/59
f 21/19/19 49/16/16 66/61/61 63/58/58
f 49/16/16 7/15/15 32/62/62 66/61/61
f 46/50/50 67/57/57 64/60/60 18/51/51
f 9/11/11 37/20/20 67/57/57 46/50/50
f 37/20/20 21/19/19 63/58/58 67/57/57
f 34/6/6 68/53/53 39/56/56 6/7/7
f 18/51/51 64/60/60 68/53/53 34/6/6
f 64/60/60 25/59/59 62/54/54 68/53/53
f 59/46/46 69/49/49 61/52/52 24/47/47
f 20/31/31 48/12/12 69/49/49 59/46/46
f 48/12/12 9/11/11 46/50/50 69/49/49
f 30/65/65 70/45/45 60/48/48 14/66/66
f 5/67/67 36/32/32 70/45/45 30/65/65
f 36/32/32 20/31/31 59/46/46 70/45/45
f 42/68/68 71/41/41 43/44/44 1/69/69
f 14/66/66 60/48/48 71/41/41 42/68/68
f 60/48/48 24/47/47 58/42/42 71/41/41
f 55/34/34 72/37/37 57/40/40 23/35/35
f 13/70/70 41/71/71 72/37/37 55/34/34
f 41/71/71 8/72/72 47/38/38 72/37/37
f 26/73/73 73/33/33 56/36/36 10/74/74
f 4/75/75 29/76/76 73/33/33 26/73/73
f 29/76/76 13/70/70 55/34/34 73/33/33
f 38/77/77 74/29/29 36/32/32 5/67/67
f 10/74/74 56/36/36 74/29/29 38/77/77
f 56/36/36 23/35/35 54/30/30 74/29/29
f 51/22/22 75/25/25 53/28/28 22/23/23
f 17/78/78 45/79/79 75/25/25 51/22/22
f 45/79/79 3/80/80 28/26/26 75/25/25
f 47/38/38 76/21/21 52/24/24 19/39/39
f 8/72/72 33/81/81 76/21/21 47/38/38
f 33/81/81 17/78/78 51/22/22 76/21/21
f 35/10/10 77/17/17 37/20/20 9/11/11
f 19/39/39 52/24/24 77/17/17 35/10/10
f 52/24/24 22/23/23 50/18/18 77/17/17
f 50/18/18 78/13/13 49/16/16 21/19/19
f 22/23/23 53/28/28 78/13/13 50/18/18
f 53/28/28 12/27/27 40/14/14 78/13/13
f 54/30/30 79/9/9 48/12/12 20/31/31
f 23/35/35 57/40/40 79/9/9 54/30/30
f 57/40/40 19/39/39 35/10/10 79/9/9
f 58/42/42 80/5/5 31/8/8 15/43/43
f 24/47/47 61/52/52 80/5/5 58/42/42
f 61/52/52 18/51/51 34/6/6 80/5/5
f 62/54/54 81/1/1 27/4/4 11/55/55
f 25/59/59 65/64/64 81/1/1 62/54/54
f 65/64/64 16/63/63 44/2/2 81/1/1
