# Blender 4.1.1
# www.blender.org
mtllib Fusible.mtl
o atlasing.002
v 0.006948 0.016838 -0.007020
v 0.000004 0.016838 -0.009896
v 0.010045 0.016838 -0.000075
v 0.009825 0.016838 -0.000075
v 0.006948 0.016838 0.006869
v 0.000004 0.016838 0.009966
v 0.000004 0.016838 0.009745
v -0.006940 0.016838 0.006869
v -0.010038 0.016838 -0.000075
v -0.009817 0.016838 -0.000075
v -0.006940 0.016838 -0.007020
v 0.006599 -0.018978 -0.006670
v 0.000004 -0.018978 -0.009402
v 0.009330 -0.018978 -0.000075
v 0.006599 -0.018978 0.006520
v 0.000004 -0.018978 0.009251
v -0.006591 -0.018978 0.006520
v -0.009323 -0.018978 -0.000075
v -0.006591 -0.018978 -0.006670
v 0.007054 -0.018978 -0.007125
v 0.000004 -0.018978 -0.010046
v 0.009974 -0.018978 -0.000075
v 0.007054 -0.018978 0.006975
v 0.000004 -0.018978 0.009895
v -0.007046 -0.018978 0.006975
v -0.009966 -0.018978 -0.000075
v -0.007046 -0.018978 -0.007125
v 0.000004 0.035067 -0.010416
v 0.007316 0.035067 -0.007387
v 0.010344 0.035067 -0.000075
v 0.007316 0.035067 0.007236
v 0.000004 0.035067 0.010265
v -0.007308 0.035067 0.007236
v -0.010337 0.035067 -0.000075
v -0.007308 0.035067 -0.007387
v 0.000004 0.037424 -0.007315
v 0.000004 0.036732 -0.009124
v 0.005123 0.037424 -0.005195
v 0.006402 0.036732 -0.006474
v 0.007244 0.037424 -0.000075
v 0.009052 0.036732 -0.000075
v 0.005123 0.037424 0.005044
v 0.006402 0.036732 0.006323
v 0.000004 0.037424 0.007165
v 0.000004 0.036732 0.008973
v -0.005116 0.037424 0.005044
v -0.006394 0.036732 0.006323
v -0.007236 0.037424 -0.000075
v -0.009045 0.036732 -0.000075
v -0.005116 0.037424 -0.005195
v -0.006394 0.036732 -0.006474
v 0.007104 0.016743 0.007025
v -0.007097 0.016743 -0.007176
v 0.000004 0.034380 -0.009597
v 0.006737 0.034380 -0.006808
v 0.009526 0.034380 -0.000075
v 0.006737 0.034380 0.006658
v 0.000004 0.034380 0.009446
v -0.006729 0.034380 0.006658
v -0.009518 0.034380 -0.000075
v -0.006729 0.034380 -0.006808
v 0.000004 0.016743 -0.010416
v 0.007316 0.016743 -0.007387
v 0.010344 0.016743 -0.000075
v 0.007316 0.016743 0.007236
v 0.000004 0.016743 0.010265
v -0.007308 0.016743 0.007236
v -0.010337 0.016743 -0.000075
v -0.007308 0.016743 -0.007387
v 0.007104 0.016743 -0.007176
v 0.000004 0.016743 -0.010117
v -0.007097 0.016743 0.007025
v 0.007303 -0.018822 0.007224
v 0.007303 -0.018822 -0.007375
v 0.007054 -0.018822 -0.007125
v 0.000004 -0.018822 -0.010046
v 0.009974 -0.018822 -0.000075
v 0.007054 -0.018822 0.006975
v 0.000004 -0.018822 0.009895
v -0.010319 -0.018822 -0.000075
v -0.007046 -0.018822 0.006975
v -0.009966 -0.018822 -0.000075
v -0.007046 -0.018822 -0.007125
v -0.007296 -0.018822 0.007224
v -0.007296 -0.018822 -0.007375
v 0.000004 -0.018822 -0.010399
v 0.000004 -0.018822 0.010248
v 0.010327 -0.018822 -0.000075
v -0.007296 -0.036423 0.007224
v -0.010319 -0.036423 -0.000075
v -0.007296 -0.036423 -0.007375
v 0.000004 -0.036423 -0.010399
v 0.000004 -0.036423 0.010248
v 0.010327 -0.036423 -0.000075
v 0.007303 -0.036423 0.007224
v 0.007303 -0.036423 -0.007375
v -0.006631 -0.038015 0.006559
v -0.006631 -0.038015 -0.006710
v 0.006639 -0.038015 0.006559
v 0.000004 -0.038015 -0.009458
v 0.009387 -0.038015 -0.000075
v 0.006639 -0.038015 -0.006710
v -0.009379 -0.038015 -0.000075
v 0.000004 -0.038718 -0.008442
v 0.000004 -0.038015 0.009308
v 0.008371 -0.038718 -0.000075
v 0.005920 -0.038718 0.005841
v 0.005920 -0.038718 -0.005992
v 0.000004 -0.038718 0.008292
v -0.005913 -0.038718 0.005841
v -0.008363 -0.038718 -0.000075
v -0.005913 -0.038718 -0.005992
v -0.001764 0.011772 -0.000075
v -0.001764 0.016977 -0.000075
v -0.003105 0.001090 -0.000075
v -0.001738 -0.014462 -0.000075
v 0.001798 -0.014462 -0.000075
v 0.001772 0.011772 -0.000075
v 0.001772 0.016977 -0.000075
v -0.000491 0.006227 -0.000075
v 0.003045 0.006227 -0.000075
v 0.000431 0.001090 -0.000075
v -0.000607 -0.004094 -0.000075
v 0.002929 -0.004094 -0.000075
v -0.003058 -0.009231 -0.000075
v 0.000478 -0.009231 -0.000075
v -0.001738 -0.018703 -0.000075
v 0.001798 -0.018703 -0.000075
v -0.001764 0.016977 0.000618
v -0.001764 0.011772 0.000618
v 0.001772 0.011772 0.000618
v 0.001772 0.016977 0.000618
v -0.000491 0.006227 0.000618
v 0.003045 0.006227 0.000618
v -0.003105 0.001090 0.000618
v 0.000431 0.001090 0.000618
v -0.000607 -0.004094 0.000618
v 0.002929 -0.004094 0.000618
v -0.003058 -0.009231 0.000618
v 0.000478 -0.009231 0.000618
v -0.001738 -0.014462 0.000618
v 0.001798 -0.014462 0.000618
v -0.001738 -0.018703 0.000618
v 0.001798 -0.018703 0.000618
vn 0.7070 0.0138 0.7071
vn 0.9999 0.0138 -0.0000
vn 0.7070 0.0138 0.7070
vn 0.7070 0.0138 -0.7071
vn -0.0000 0.0138 -0.9999
vn -0.7070 0.0138 -0.7071
vn 0.7071 -0.0020 -0.7071
vn -0.0000 -0.0020 -1.0000
vn -0.0000 0.0138 0.9999
vn -0.7070 0.0138 0.7070
vn -0.7071 0.0138 0.7070
vn -0.9999 0.0138 -0.0000
vn 1.0000 -0.0020 -0.0000
vn 0.7071 -0.0020 0.7071
vn -0.0000 -0.0020 1.0000
vn -0.7071 -0.0020 0.7071
vn -1.0000 -0.0020 -0.0000
vn -0.7071 -0.0020 -0.7071
vn -0.0000 1.0000 -0.0000
vn -0.0000 1.0000 0.0001
vn -0.0001 1.0000 -0.0001
vn 0.0002 1.0000 -0.0000
vn 0.0001 1.0000 -0.0000
vn -0.0001 1.0000 0.0001
vn -0.0000 -1.0000 -0.0000
vn -0.7071 -0.0000 -0.7071
vn -0.6741 0.3021 -0.6741
vn -0.0000 0.3016 -0.9534
vn -0.0000 -0.0000 -1.0000
vn 1.0000 -0.0000 -0.0000
vn 0.9534 0.3016 -0.0000
vn 0.6742 0.3015 0.6742
vn 0.7071 -0.0000 0.7071
vn -0.0000 0.3016 0.9534
vn -0.0000 -0.0000 1.0000
vn -0.6741 0.3021 0.6741
vn -0.7071 -0.0000 0.7071
vn -0.9533 0.3021 -0.0000
vn -1.0000 -0.0000 -0.0000
vn 0.6742 0.3015 -0.6742
vn 0.7071 -0.0000 -0.7071
vn 0.1590 0.9744 -0.1590
vn -0.0000 0.9744 -0.2248
vn -0.1590 0.9744 -0.1590
vn -0.2248 0.9744 -0.0000
vn -0.1590 0.9744 0.1590
vn -0.0000 0.9744 0.2248
vn 0.1590 0.9744 0.1590
vn 0.2248 0.9744 -0.0000
vn 0.6355 0.7721 -0.0000
vn 0.4496 0.7718 0.4497
vn -0.0000 0.7717 0.6360
vn -0.4495 0.7719 0.4496
vn -0.6355 0.7721 -0.0000
vn -0.4493 0.7721 -0.4494
vn -0.0000 0.7721 -0.6355
vn 0.4494 0.7721 -0.4494
vn 0.7784 0.6277 -0.0000
vn 0.5504 0.6278 0.5504
vn 0.6849 -0.2485 0.6849
vn 0.9686 -0.2485 -0.0000
vn -0.5504 0.6277 -0.5504
vn -0.7784 0.6278 -0.0000
vn -0.5504 0.6277 0.5504
vn -0.0000 0.6277 0.7784
vn -0.0000 0.6277 -0.7784
vn 0.5504 0.6278 -0.5504
vn -0.0000 -0.2485 0.9686
vn -0.9686 -0.2486 -0.0000
vn -0.6849 -0.2485 0.6849
vn -0.0000 -0.6554 0.7553
vn 0.5340 -0.6555 0.5340
vn -0.6849 -0.2486 -0.6849
vn -0.5340 -0.6555 -0.5340
vn -0.7553 -0.6554 -0.0000
vn -0.5340 -0.6554 0.5340
vn -0.0000 -0.2486 -0.9686
vn 0.6849 -0.2485 -0.6849
vn 0.7553 -0.6554 -0.0000
vn -0.0000 -0.6556 -0.7551
vn 0.5340 -0.6556 -0.5339
vn 0.3626 -0.9320 -0.0000
vn 0.2563 -0.9319 -0.2565
vn -0.0000 -0.9319 -0.3627
vn -0.2565 -0.9319 -0.2565
vn 0.2563 -0.9320 0.2564
vn -0.0000 -0.9319 0.3626
vn -0.2565 -0.9319 0.2564
vn -0.3630 -0.9318 -0.0000
vn -0.9925 0.1222 -0.0000
vn -0.9999 0.0108 -0.0000
vn 0.9999 -0.0108 -0.0000
vn 0.9925 -0.1222 -0.0000
vn -1.0000 -0.0019 -0.0000
vn -0.9951 0.0988 -0.0000
vn -0.9936 -0.1126 -0.0000
vn 0.9951 -0.0988 -0.0000
vn 1.0000 0.0019 -0.0000
vn -0.9924 -0.1233 -0.0000
vn 0.9936 0.1126 -0.0000
vn 0.9924 0.1233 -0.0000
vt 0.964741 0.772494
vt 0.961615 0.772444
vt 0.961930 0.757550
vt 0.964898 0.757597
vt 0.958490 0.772362
vt 0.958962 0.757472
vt 0.973374 0.256430
vt 0.973440 0.259555
vt 0.958544 0.259791
vt 0.958482 0.256823
vt 0.973473 0.262681
vt 0.958576 0.262760
vt 0.953264 0.004460
vt 0.938407 0.004528
vt 0.938391 0.001355
vt 0.953247 0.001264
vt 0.967867 0.772510
vt 0.967867 0.757613
vt 0.973440 0.268933
vt 0.973374 0.272058
vt 0.958482 0.271665
vt 0.958544 0.268697
vt 0.973473 0.265807
vt 0.958576 0.265728
vt 0.953315 0.007657
vt 0.938420 0.007702
vt 0.953283 0.010853
vt 0.938427 0.010875
vt 0.953325 0.014049
vt 0.938429 0.014049
vt 0.953283 0.017245
vt 0.938427 0.017223
vt 0.953315 0.020442
vt 0.938420 0.020396
vt 0.953264 0.023638
vt 0.938408 0.023570
vt 0.953247 0.026835
vt 0.938391 0.026744
vt 0.020973 0.869026
vt 0.021032 0.872223
vt 0.020947 0.872189
vt 0.020880 0.869063
vt 0.018817 0.866666
vt 0.018772 0.866755
vt 0.056176 0.991237
vt 0.059361 0.990976
vt 0.059334 0.991073
vt 0.056218 0.991327
vt 0.053955 0.993536
vt 0.054040 0.993570
vt 0.054010 0.996732
vt 0.054103 0.996695
vt 0.056168 0.999090
vt 0.056207 0.999007
vt 0.059361 0.999232
vt 0.059330 0.999137
vt 0.018815 0.874525
vt 0.018772 0.874434
vt 0.028804 0.573290
vt 0.026705 0.575390
vt 0.026458 0.575287
vt 0.028702 0.573043
vt 0.265036 0.511694
vt 0.262067 0.511694
vt 0.261964 0.511446
vt 0.265138 0.511447
vt 0.267135 0.513793
vt 0.267382 0.513691
vt 0.267135 0.516762
vt 0.267382 0.516864
vt 0.265036 0.518861
vt 0.265138 0.519108
vt 0.262067 0.518861
vt 0.261964 0.519108
vt 0.026705 0.578358
vt 0.028804 0.580458
vt 0.028702 0.580705
vt 0.026458 0.578461
vt 0.373053 0.938061
vt 0.365432 0.938061
vt 0.365432 0.934770
vt 0.373053 0.934770
vt 0.373053 0.954518
vt 0.365432 0.954518
vt 0.365432 0.951227
vt 0.373053 0.951227
vt 0.365432 0.947936
vt 0.373053 0.947936
vt 0.365432 0.944644
vt 0.373053 0.944644
vt 0.365432 0.941353
vt 0.373053 0.941353
vt 0.373053 0.961102
vt 0.365432 0.961102
vt 0.365432 0.957810
vt 0.373053 0.957810
vt 0.129767 0.572075
vt 0.128138 0.573704
vt 0.125833 0.573705
vt 0.124204 0.572075
vt 0.124203 0.569771
vt 0.125833 0.568141
vt 0.128137 0.568141
vt 0.129767 0.569770
vt 0.755781 0.423887
vt 0.753634 0.426382
vt 0.753122 0.425670
vt 0.755001 0.423487
vt 0.756553 0.420687
vt 0.755676 0.420687
vt 0.755781 0.417487
vt 0.755001 0.417887
vt 0.753634 0.414992
vt 0.753123 0.415704
vt 0.750586 0.413751
vt 0.750455 0.414617
vt 0.750586 0.427623
vt 0.747307 0.427338
vt 0.747585 0.426507
vt 0.750455 0.426757
vt 0.128360 0.810747
vt 0.126177 0.811485
vt 0.125663 0.810865
vt 0.128391 0.809942
vt 0.125045 0.813493
vt 0.124249 0.813374
vt 0.125543 0.815743
vt 0.124870 0.816187
vt 0.127415 0.817086
vt 0.127211 0.817865
vt 0.129707 0.816836
vt 0.130074 0.817553
vt 0.131245 0.815121
vt 0.131997 0.815409
vt 0.131245 0.812816
vt 0.131997 0.812528
vt 0.129707 0.811100
vt 0.130075 0.810384
vt 0.747307 0.414036
vt 0.747585 0.414867
vt 0.064874 0.853795
vt 0.067905 0.853795
vt 0.070049 0.855938
vt 0.070049 0.858969
vt 0.067905 0.861112
vt 0.064875 0.861112
vt 0.062731 0.858969
vt 0.062731 0.855938
vt 0.236312 0.585139
vt 0.234052 0.582879
vt 0.234052 0.579682
vt 0.236313 0.577423
vt 0.239510 0.577422
vt 0.241770 0.579683
vt 0.241770 0.582880
vt 0.239509 0.585140
vt 0.162928 0.785092
vt 0.159733 0.784995
vt 0.159689 0.784879
vt 0.162979 0.784979
vt 0.165113 0.787425
vt 0.165234 0.787376
vt 0.165159 0.790621
vt 0.165275 0.790667
vt 0.162922 0.792904
vt 0.162976 0.793023
vt 0.159730 0.793086
vt 0.159689 0.793203
vt 0.001425 0.858913
vt 0.003611 0.861246
vt 0.003560 0.861359
vt 0.001304 0.858962
vt 0.001378 0.855717
vt 0.001263 0.855671
vt 0.003611 0.853429
vt 0.003562 0.853315
vt 0.278756 0.955150
vt 0.278756 0.951864
vt 0.286077 0.951864
vt 0.286077 0.955150
vt 0.197426 0.992546
vt 0.195182 0.990302
vt 0.195238 0.990166
vt 0.197561 0.992490
vt 0.195182 0.997964
vt 0.197426 0.995720
vt 0.197561 0.995776
vt 0.195238 0.998099
vt 0.192008 0.990302
vt 0.191952 0.990166
vt 0.192008 0.997964
vt 0.191952 0.998099
vt 0.189764 0.995720
vt 0.189628 0.995776
vt 0.189764 0.992546
vt 0.189628 0.992490
vt 0.278756 0.948578
vt 0.286077 0.948578
vt 0.278756 0.945292
vt 0.278756 0.942006
vt 0.286077 0.942006
vt 0.286077 0.945292
vt 0.193433 0.963076
vt 0.194073 0.966299
vt 0.193304 0.966299
vt 0.192722 0.963370
vt 0.191612 0.972257
vt 0.188885 0.974090
vt 0.188589 0.973381
vt 0.191068 0.971715
vt 0.193434 0.969523
vt 0.192723 0.969229
vt 0.278756 0.938720
vt 0.278756 0.935434
vt 0.286077 0.935434
vt 0.286077 0.938720
vt 0.278756 0.958436
vt 0.286077 0.958436
vt 0.278756 0.961722
vt 0.286077 0.961722
vt 0.191612 0.960341
vt 0.191067 0.960884
vt 0.185664 0.974743
vt 0.185661 0.973974
vt 0.188885 0.958508
vt 0.188588 0.959218
vt 0.185664 0.957855
vt 0.185661 0.958624
vt 0.086019 0.667546
vt 0.083356 0.667626
vt 0.083180 0.667143
vt 0.086166 0.667054
vt 0.081269 0.669280
vt 0.080840 0.668998
vt 0.080840 0.674205
vt 0.081269 0.673923
vt 0.083357 0.675577
vt 0.083181 0.676059
vt 0.088201 0.669072
vt 0.088613 0.668765
vt 0.089039 0.671600
vt 0.089553 0.671600
vt 0.088613 0.674435
vt 0.088201 0.674129
vt 0.086166 0.676148
vt 0.086019 0.675655
vt 0.086725 0.712041
vt 0.084841 0.713924
vt 0.082178 0.713924
vt 0.080295 0.712041
vt 0.080295 0.709377
vt 0.082178 0.707494
vt 0.084842 0.707494
vt 0.086725 0.709377
vt 0.123171 0.873098
vt 0.125336 0.873098
vt 0.125336 0.874569
vt 0.123171 0.874569
vt 0.138838 0.896067
vt 0.136472 0.896067
vt 0.136801 0.894634
vt 0.139167 0.894634
vt 0.233024 0.334472
vt 0.230627 0.334472
vt 0.229960 0.333161
vt 0.232357 0.333161
vt 0.159033 0.910755
vt 0.161427 0.910755
vt 0.160788 0.912080
vt 0.158395 0.912080
vt 0.136378 0.936860
vt 0.134011 0.936860
vt 0.133377 0.935533
vt 0.135745 0.935533
vt 0.142667 0.896060
vt 0.140424 0.896060
vt 0.140783 0.894634
vt 0.143027 0.894634
vt 0.121629 0.874060
vt 0.119865 0.874060
vt 0.119865 0.872590
vt 0.121629 0.872590
vt 0.232357 0.336359
vt 0.229960 0.336359
vt 0.229960 0.336070
vt 0.232357 0.336070
vt 0.233024 0.334760
vt 0.230627 0.334760
vt 0.135745 0.938764
vt 0.133377 0.938764
vt 0.133377 0.938476
vt 0.135745 0.938476
vt 0.125336 0.876616
vt 0.123171 0.876616
vt 0.123171 0.876328
vt 0.125336 0.876328
vt 0.136378 0.937148
vt 0.134011 0.937148
vt 0.121629 0.876107
vt 0.119865 0.876107
vt 0.119865 0.875819
vt 0.121629 0.875819
vt 0.139167 0.898077
vt 0.136801 0.898077
vt 0.136801 0.897788
vt 0.139167 0.897788
vt 0.123171 0.874857
vt 0.125336 0.874857
vt 0.138838 0.896355
vt 0.136472 0.896355
vt 0.159033 0.910467
vt 0.158395 0.909142
vt 0.160788 0.909142
vt 0.161427 0.910467
vt 0.142667 0.896348
vt 0.143027 0.897774
vt 0.140783 0.897774
vt 0.140424 0.896348
vt 0.121629 0.874349
vt 0.119865 0.874349
vt 0.006662 0.650140
vt 0.006662 0.651611
vt 0.006373 0.651611
vt 0.006373 0.650140
vt 0.143027 0.898062
vt 0.140783 0.898062
vt 0.004543 0.651611
vt 0.004543 0.650140
vt 0.004831 0.650140
vt 0.004831 0.651611
vt 0.158395 0.908854
vt 0.160788 0.908854
s 1
usemtl ATLAS
f 11/1/1 10/2/2 18/3/2 19/4/3
f 10/2/2 8/5/4 17/6/4 18/3/2
f 8/7/4 7/8/5 16/9/5 17/10/4
f 7/8/5 5/11/6 15/12/6 16/9/5
f 70/13/7 20/14/7 21/15/8 71/16/8
f 2/17/9 11/1/1 19/4/3 13/18/9
f 1/19/10 2/20/9 13/21/9 12/22/11
f 4/23/12 1/19/10 12/22/11 14/24/12
f 5/11/6 4/23/12 14/24/12 15/12/6
f 3/25/13 22/26/13 20/14/7 70/13/7
f 52/27/14 23/28/14 22/26/13 3/25/13
f 6/29/15 24/30/15 23/28/14 52/27/14
f 72/31/16 25/32/16 24/30/15 6/29/15
f 9/33/17 26/34/17 25/32/16 72/31/16
f 53/35/18 27/36/18 26/34/17 9/33/17
f 71/37/8 21/38/8 27/36/18 53/35/18
f 53/39/19 9/40/19 10/41/19 11/42/19
f 71/43/20 53/39/19 11/42/19 2/44/20
f 70/45/21 71/46/20 2/47/20 1/48/20
f 3/49/19 70/45/21 1/48/20 4/50/22
f 52/51/23 3/49/19 4/50/22 5/52/20
f 6/53/20 52/51/23 5/52/20 7/54/20
f 72/55/20 6/53/20 7/54/20 8/56/24
f 9/40/19 72/57/20 8/58/24 10/41/19
f 13/59/25 19/60/25 27/61/25 21/62/25
f 12/63/25 13/64/25 21/65/25 20/66/25
f 14/67/25 12/63/25 20/66/25 22/68/25
f 15/69/25 14/67/25 22/68/25 23/70/25
f 16/71/25 15/69/25 23/70/25 24/72/25
f 17/73/25 16/71/25 24/72/25 25/74/25
f 18/75/25 17/76/25 25/77/25 26/78/25
f 19/60/25 18/75/25 26/78/25 27/61/25
f 69/79/26 35/80/27 28/81/28 62/82/29
f 64/83/30 30/84/31 31/85/32 65/86/33
f 65/86/33 31/85/32 32/87/34 66/88/35
f 66/88/35 32/87/34 33/89/36 67/90/37
f 67/90/37 33/89/36 34/91/38 68/92/39
f 68/92/39 34/91/38 35/80/27 69/79/26
f 62/93/29 28/94/28 29/95/40 63/96/41
f 63/96/41 29/95/40 30/84/31 64/83/30
f 38/97/42 36/98/43 50/99/44 48/100/45 46/101/46 44/102/47 42/103/48 40/104/49
f 31/105/32 30/106/31 41/107/50 43/108/51
f 32/109/34 31/105/32 43/108/51 45/110/52
f 33/111/36 32/109/34 45/110/52 47/112/53
f 34/113/38 33/111/36 47/112/53 49/114/54
f 35/115/27 34/113/38 49/114/54 51/116/55
f 29/117/40 28/118/28 37/119/56 39/120/57
f 30/106/31 29/117/40 39/120/57 41/107/50
f 36/121/43 38/122/42 39/123/57 37/124/56
f 38/122/42 40/125/49 41/126/50 39/123/57
f 40/125/49 42/127/48 43/128/51 41/126/50
f 42/127/48 44/129/47 45/130/52 43/128/51
f 44/129/47 46/131/46 47/132/53 45/130/52
f 46/131/46 48/133/45 49/134/54 47/132/53
f 48/133/45 50/135/44 51/136/55 49/134/54
f 50/135/44 36/137/43 37/138/56 51/136/55
f 28/139/28 35/115/27 51/116/55 37/140/56
f 54/141/25 55/142/25 56/143/25 57/144/25 58/145/25 59/146/25 60/147/25 61/148/25
f 71/149/25 70/150/25 3/151/25 52/152/25 6/153/25 72/154/25 9/155/25 53/156/25
f 70/157/25 71/158/25 62/159/25 63/160/25
f 3/161/25 70/157/25 63/160/25 64/162/25
f 52/163/25 3/161/25 64/162/25 65/164/25
f 6/165/25 52/163/25 65/164/25 66/166/25
f 72/167/25 6/165/25 66/166/25 67/168/25
f 9/169/25 72/170/25 67/171/25 68/172/25
f 53/173/25 9/169/25 68/172/25 69/174/25
f 71/175/25 53/173/25 69/174/25 62/176/25
f 88/177/58 73/178/59 95/179/60 94/180/61
f 82/181/19 83/182/19 85/183/62 80/184/63
f 79/185/19 81/186/19 84/187/64 87/188/65
f 83/182/19 76/189/19 86/190/66 85/183/62
f 78/191/19 79/185/19 87/188/65 73/192/59
f 77/193/19 78/191/19 73/192/59 88/194/58
f 76/189/19 75/195/19 74/196/67 86/190/66
f 75/195/19 77/193/19 88/194/58 74/196/67
f 81/186/19 82/181/19 80/184/63 84/187/64
f 73/178/59 87/197/65 93/198/68 95/179/60
f 84/199/64 80/200/63 90/201/69 89/202/70
f 95/203/60 93/204/68 105/205/71 99/206/72
f 90/207/69 91/208/73 98/209/74 103/210/75
f 89/211/70 90/207/69 103/210/75 97/212/76
f 85/213/62 86/214/66 92/215/77 91/216/73
f 74/217/67 88/177/58 94/180/61 96/218/78
f 87/197/65 84/199/64 89/202/70 93/198/68
f 86/219/66 74/217/67 96/218/78 92/220/77
f 94/221/61 95/203/60 99/206/72 101/222/79
f 91/208/73 92/223/77 100/224/80 98/209/74
f 96/225/78 94/221/61 101/222/79 102/226/81
f 93/204/68 89/211/70 97/212/76 105/205/71
f 92/227/77 96/225/78 102/226/81 100/228/80
f 91/216/73 90/201/69 80/200/63 85/213/62
f 106/229/82 108/230/83 102/231/81 101/232/79
f 108/230/83 104/233/84 100/234/80 102/231/81
f 100/235/80 104/236/84 112/237/85 98/238/74
f 107/239/86 106/229/82 101/232/79 99/240/72
f 109/241/87 107/239/86 99/240/72 105/242/71
f 97/243/76 110/244/88 109/241/87 105/242/71
f 103/245/75 111/246/89 110/244/88 97/243/76
f 98/238/74 112/237/85 111/246/89 103/245/75
f 106/247/82 107/248/86 109/249/87 110/250/88 111/251/89 112/252/85 104/253/84 108/254/83
f 76/189/19 83/182/19 82/181/19 81/186/19 79/185/19 78/191/19 77/193/19 75/195/19
f 113/255/29 114/256/29 119/257/29 118/258/29
f 118/259/29 121/260/29 120/261/29 113/262/29
f 121/263/29 122/264/29 115/265/29 120/266/29
f 122/267/29 124/268/29 123/269/29 115/270/29
f 124/271/29 126/272/29 125/273/29 123/274/29
f 126/275/29 117/276/29 116/277/29 125/278/29
f 117/279/29 128/280/29 127/281/29 116/282/29
f 120/283/90 115/284/91 135/285/91 133/286/90
f 122/264/92 121/263/93 134/287/93 136/288/92
f 123/289/94 125/290/95 139/291/95 137/292/94
f 114/293/39 113/294/96 130/295/96 129/296/39
f 126/272/97 124/271/98 138/297/98 140/298/97
f 116/299/99 127/300/39 143/301/39 141/302/99
f 113/303/96 120/304/90 133/305/90 130/306/96
f 130/295/35 131/307/35 132/308/35 129/296/35
f 131/309/35 130/306/35 133/305/35 134/310/35
f 134/287/35 133/286/35 135/285/35 136/288/35
f 136/311/35 135/312/35 137/313/35 138/314/35
f 138/297/35 137/292/35 139/291/35 140/298/35
f 140/315/35 139/316/35 141/317/35 142/318/35
f 142/319/35 141/302/35 143/301/35 144/320/35
f 118/258/100 119/257/30 132/308/30 131/307/100
f 117/276/101 126/275/97 140/315/97 142/318/101
f 119/321/19 114/322/19 129/323/19 132/324/19
f 125/325/95 116/326/99 141/317/99 139/316/95
f 124/268/98 122/267/92 136/311/92 138/314/98
f 127/327/25 128/328/25 144/329/25 143/330/25
f 115/331/91 123/332/94 137/313/94 135/312/91
f 121/260/93 118/259/100 131/309/100 134/310/93
f 128/280/30 117/279/101 142/319/101 144/320/30
