# Blender 4.1.1
# www.blender.org
mtllib Fusible.mtl
o Fusible
v 0.007104 0.015161 -0.007170
v 0.006948 0.015161 -0.007014
v 0.000004 0.015161 -0.009890
v 0.000004 0.015161 -0.010111
v 0.010045 0.015161 -0.000069
v 0.009825 0.015161 -0.000069
v 0.007104 0.015161 0.007031
v 0.006948 0.015161 0.006875
v 0.000004 0.015161 0.009972
v 0.000004 0.015161 0.009751
v -0.007097 0.015161 0.007031
v -0.006940 0.015161 0.006875
v -0.010038 0.015161 -0.000069
v -0.009817 0.015161 -0.000069
v -0.007097 0.015161 -0.007170
v -0.006940 0.015161 -0.007014
v 0.006599 -0.020655 -0.006664
v 0.000004 -0.020655 -0.009396
v 0.009330 -0.020655 -0.000069
v 0.006599 -0.020655 0.006526
v 0.000004 -0.020655 0.009257
v -0.006591 -0.020655 0.006526
v -0.009323 -0.020655 -0.000069
v -0.006591 -0.020655 -0.006664
v 0.007054 -0.020655 -0.007119
v 0.000004 -0.020655 -0.010040
v 0.009974 -0.020655 -0.000069
v 0.007054 -0.020655 0.006981
v 0.000004 -0.020655 0.009901
v -0.007046 -0.020655 0.006981
v -0.009966 -0.020655 -0.000069
v -0.007046 -0.020655 -0.007119
v 0.000004 0.033390 -0.010410
v 0.007316 0.033390 -0.007381
v 0.010344 0.033390 -0.000069
v 0.007316 0.033390 0.007242
v 0.000004 0.033390 0.010271
v -0.007308 0.033390 0.007242
v -0.010337 0.033390 -0.000069
v -0.007308 0.033390 -0.007381
v 0.000004 0.035747 -0.007309
v 0.000004 0.035055 -0.009118
v 0.005123 0.035747 -0.005189
v 0.006402 0.035055 -0.006468
v 0.007244 0.035747 -0.000069
v 0.009052 0.035055 -0.000069
v 0.005123 0.035747 0.005050
v 0.006402 0.035055 0.006329
v 0.000004 0.035747 0.007171
v 0.000004 0.035055 0.008979
v -0.005116 0.035747 0.005050
v -0.006394 0.035055 0.006329
v -0.007236 0.035747 -0.000069
v -0.009045 0.035055 -0.000069
v -0.005116 0.035747 -0.005189
v -0.006394 0.035055 -0.006468
v 0.010045 0.015066 -0.000069
v 0.007104 0.015066 0.007031
v 0.000004 0.015066 0.009972
v -0.007097 0.015066 -0.007170
v 0.000004 0.032703 -0.009591
v 0.006737 0.032703 -0.006802
v 0.009526 0.032703 -0.000069
v 0.006737 0.032703 0.006664
v 0.000004 0.032703 0.009452
v -0.006729 0.032703 0.006664
v -0.009518 0.032703 -0.000069
v -0.006729 0.032703 -0.006802
v 0.000004 0.015066 -0.010410
v 0.007316 0.015066 -0.007381
v 0.010344 0.015066 -0.000069
v 0.007316 0.015066 0.007242
v 0.000004 0.015066 0.010271
v -0.007308 0.015066 0.007242
v -0.010337 0.015066 -0.000069
v -0.007308 0.015066 -0.007381
v 0.000004 0.015066 -0.009591
v 0.006737 0.015066 -0.006802
v 0.009526 0.015066 -0.000069
v 0.006737 0.015066 0.006664
v 0.000004 0.015066 0.009452
v -0.006729 0.015066 0.006664
v -0.009518 0.015066 -0.000069
v -0.006729 0.015066 -0.006802
v 0.007104 0.015066 -0.007170
v 0.000004 0.015066 -0.010111
v -0.007097 0.015066 0.007031
v -0.010038 0.015066 -0.000069
v 0.007303 -0.020499 0.007230
v 0.007303 -0.020499 -0.007369
v 0.007054 -0.020499 -0.007119
v 0.000004 -0.020499 -0.010040
v 0.009974 -0.020499 -0.000069
v 0.007054 -0.020499 0.006981
v 0.000004 -0.020499 0.009901
v -0.010319 -0.020499 -0.000069
v -0.007046 -0.020499 0.006981
v -0.009966 -0.020499 -0.000069
v -0.007046 -0.020499 -0.007119
v -0.007296 -0.020499 0.007230
v -0.007296 -0.020499 -0.007369
v 0.000004 -0.020499 -0.010393
v 0.000004 -0.020499 0.010254
v 0.010327 -0.020499 -0.000069
v -0.007296 -0.038101 0.007230
v -0.010319 -0.038101 -0.000069
v -0.007296 -0.038101 -0.007369
v 0.000004 -0.038101 -0.010393
v 0.000004 -0.038101 0.010254
v 0.010327 -0.038101 -0.000069
v 0.007303 -0.038101 0.007230
v 0.007303 -0.038101 -0.007369
v -0.006631 -0.039693 0.006565
v -0.006631 -0.039693 -0.006704
v 0.006639 -0.039693 0.006565
v 0.000004 -0.039693 -0.009452
v 0.009387 -0.039693 -0.000069
v 0.006639 -0.039693 -0.006704
v -0.009379 -0.039693 -0.000069
v 0.000004 -0.040396 -0.008436
v 0.000004 -0.039693 0.009314
v 0.008371 -0.040396 -0.000069
v 0.005920 -0.040396 0.005847
v 0.005920 -0.040396 -0.005986
v 0.000004 -0.040396 0.008298
v -0.005913 -0.040396 0.005847
v -0.008363 -0.040396 -0.000069
v -0.005913 -0.040396 -0.005986
v -0.001764 0.010095 -0.000069
v -0.001764 0.015300 -0.000069
v -0.003105 -0.000587 -0.000069
v -0.001738 -0.016139 -0.000069
v 0.001798 -0.016139 -0.000069
v 0.001772 0.010095 -0.000069
v 0.001772 0.015300 -0.000069
v -0.000491 0.004550 -0.000069
v 0.003045 0.004550 -0.000069
v 0.000431 -0.000587 -0.000069
v -0.000607 -0.005771 -0.000069
v 0.002929 -0.005771 -0.000069
v -0.003058 -0.010908 -0.000069
v 0.000478 -0.010908 -0.000069
v -0.001738 -0.020381 -0.000069
v 0.001798 -0.020381 -0.000069
v -0.001764 0.015300 0.000624
v -0.001764 0.010095 0.000624
v 0.001772 0.010095 0.000624
v 0.001772 0.015300 0.000624
v -0.000491 0.004550 0.000624
v 0.003045 0.004550 0.000624
v -0.003105 -0.000587 0.000624
v 0.000431 -0.000587 0.000624
v -0.000607 -0.005771 0.000624
v 0.002929 -0.005771 0.000624
v -0.003058 -0.010908 0.000624
v 0.000478 -0.010908 0.000624
v -0.001738 -0.016139 0.000624
v 0.001798 -0.016139 0.000624
v -0.001738 -0.020381 0.000624
v 0.001798 -0.020381 0.000624
vn 0.7070 0.0138 0.7070
vn 0.9999 0.0138 -0.0000
vn 0.7070 0.0138 -0.7070
vn -0.0000 0.0138 -0.9999
vn -0.7070 0.0138 -0.7070
vn 0.7071 -0.0020 -0.7071
vn -0.0000 -0.0020 -1.0000
vn -0.0000 0.0138 0.9999
vn -0.7070 0.0138 0.7070
vn -0.9999 0.0138 -0.0000
vn 1.0000 -0.0020 -0.0000
vn 0.7071 -0.0020 0.7071
vn -0.0000 -0.0020 1.0000
vn -0.7071 -0.0020 0.7071
vn -1.0000 -0.0020 -0.0000
vn -0.7071 -0.0020 -0.7071
vn -0.0000 1.0000 -0.0000
vn -0.0000 -1.0000 -0.0000
vn -0.7071 -0.0000 -0.7071
vn -0.6742 0.3016 -0.6742
vn -0.0000 0.3016 -0.9534
vn -0.0000 -0.0000 -1.0000
vn 1.0000 -0.0000 -0.0000
vn 0.9534 0.3016 -0.0000
vn 0.6742 0.3016 0.6742
vn 0.7071 -0.0000 0.7071
vn -0.0000 0.3016 0.9534
vn -0.0000 -0.0000 1.0000
vn -0.6742 0.3016 0.6742
vn -0.7071 -0.0000 0.7071
vn -0.9534 0.3016 -0.0000
vn -1.0000 -0.0000 -0.0000
vn 0.6742 0.3016 -0.6742
vn 0.7071 -0.0000 -0.7071
vn 0.1590 0.9744 -0.1590
vn -0.0000 0.9744 -0.2249
vn -0.1590 0.9744 -0.1590
vn -0.2249 0.9744 -0.0000
vn -0.1590 0.9744 0.1590
vn -0.0000 0.9744 0.2249
vn 0.1590 0.9744 0.1590
vn 0.2249 0.9744 -0.0000
vn 0.6359 0.7717 -0.0000
vn 0.4497 0.7717 0.4497
vn -0.0000 0.7717 0.6359
vn -0.4497 0.7717 0.4497
vn -0.6359 0.7717 -0.0000
vn -0.4497 0.7717 -0.4497
vn -0.0000 0.7717 -0.6359
vn 0.4497 0.7717 -0.4497
vn 0.7784 0.6277 -0.0000
vn 0.5504 0.6277 0.5504
vn 0.6850 -0.2483 0.6850
vn 0.9687 -0.2483 -0.0000
vn -0.5504 0.6277 -0.5504
vn -0.7784 0.6277 -0.0000
vn -0.5504 0.6277 0.5504
vn -0.0000 0.6277 0.7784
vn -0.0000 0.6277 -0.7784
vn 0.5504 0.6277 -0.5504
vn -0.0000 -0.2483 0.9687
vn -0.9687 -0.2483 -0.0000
vn -0.6850 -0.2483 0.6850
vn -0.0000 -0.6555 0.7552
vn 0.5340 -0.6555 0.5340
vn -0.6850 -0.2483 -0.6850
vn -0.5340 -0.6555 -0.5340
vn -0.7552 -0.6555 -0.0000
vn -0.5340 -0.6555 0.5340
vn -0.0000 -0.2483 -0.9687
vn 0.6850 -0.2483 -0.6850
vn 0.7552 -0.6555 -0.0000
vn -0.0000 -0.6555 -0.7552
vn 0.5340 -0.6555 -0.5340
vn 0.3632 -0.9317 -0.0000
vn 0.2568 -0.9317 -0.2568
vn -0.0000 -0.9317 -0.3632
vn -0.2568 -0.9317 -0.2568
vn 0.2568 -0.9317 0.2568
vn -0.0000 -0.9317 0.3632
vn -0.2568 -0.9317 0.2568
vn -0.3632 -0.9317 -0.0000
vn -0.9925 0.1221 -0.0000
vn -0.9999 0.0108 -0.0000
vn 0.9999 -0.0108 -0.0000
vn 0.9925 -0.1221 -0.0000
vn -1.0000 -0.0019 -0.0000
vn -0.9951 0.0987 -0.0000
vn -0.9936 -0.1125 -0.0000
vn 0.9951 -0.0987 -0.0000
vn 1.0000 0.0019 -0.0000
vn -0.9924 -0.1232 -0.0000
vn 0.9936 0.1125 -0.0000
vn 0.9924 0.1232 -0.0000
vt 0.426768 0.591216
vt 0.487572 0.593362
vt 0.475880 0.879784
vt 0.418138 0.879118
vt 0.000983 0.594297
vt 0.061778 0.591918
vt 0.071515 0.879784
vt 0.013774 0.879684
vt 0.122595 0.590184
vt 0.129271 0.878137
vt 0.183427 0.589097
vt 0.187042 0.877105
vt 0.556436 0.000448
vt 0.556877 0.288451
vt 0.495108 0.288593
vt 0.494227 0.000591
vt 0.365945 0.589716
vt 0.360376 0.877693
vt 0.305109 0.588863
vt 0.302601 0.876883
vt 0.244268 0.588657
vt 0.244821 0.876687
vt 0.618645 0.000400
vt 0.618645 0.288404
vt 0.680854 0.000448
vt 0.680414 0.288451
vt 0.743063 0.000591
vt 0.742182 0.288593
vt 0.805271 0.000828
vt 0.803950 0.288829
vt 0.867479 0.001161
vt 0.865717 0.289160
vt 0.432019 0.000828
vt 0.433340 0.288829
vt 0.371573 0.289160
vt 0.369811 0.001161
vt 0.000547 0.437432
vt 0.000546 0.375223
vt 0.002196 0.375907
vt 0.002197 0.436749
vt 0.044535 0.481420
vt 0.045219 0.479770
vt 0.106744 0.481420
vt 0.106060 0.479770
vt 0.150732 0.437432
vt 0.149082 0.436748
vt 0.150732 0.375223
vt 0.149082 0.375906
vt 0.106744 0.331234
vt 0.106060 0.332884
vt 0.044535 0.331234
vt 0.045218 0.332884
vt 0.000546 0.375223
vt 0.002196 0.375906
vt 0.220417 0.435549
vt 0.162637 0.435549
vt 0.160643 0.430735
vt 0.222412 0.430735
vt 0.261274 0.476406
vt 0.266088 0.474412
vt 0.261274 0.534187
vt 0.266088 0.536181
vt 0.220417 0.575043
vt 0.222412 0.579858
vt 0.162637 0.575043
vt 0.160643 0.579858
vt 0.121780 0.534187
vt 0.116966 0.536181
vt 0.121780 0.476406
vt 0.116966 0.474412
vt 0.121780 0.476406
vt 0.116966 0.474412
vt 0.648099 0.458853
vt 0.749470 0.448063
vt 0.771684 0.492821
vt 0.646670 0.511355
vt 0.631242 0.596743
vt 0.682961 0.646569
vt 0.659781 0.681567
vt 0.593477 0.617124
vt 0.651491 0.737473
vt 0.539223 0.634870
vt 0.626037 0.315513
vt 0.750397 0.308501
vt 0.738972 0.360103
vt 0.638038 0.363753
vt 0.740421 0.404695
vt 0.644615 0.410902
vt 0.646680 0.509648
vt 0.769813 0.596224
vt 0.712168 0.618232
vt 0.644507 0.560062
vt 0.723612 0.638159
vt 0.766157 0.634037
vt 0.792113 0.677701
vt 0.779592 0.726930
vt 0.733315 0.747509
vt 0.686041 0.729337
vt 0.682149 0.688229
vt 0.700164 0.660840
vt 0.691588 0.653688
vt 0.671572 0.685410
vt 0.670048 0.735308
vt 0.764302 0.316091
vt 0.751695 0.361240
vt 0.752750 0.403215
vt 0.761347 0.443689
vt 0.770191 0.616532
vt 0.718607 0.628361
vt 0.775405 0.324631
vt 0.763934 0.363039
vt 0.765416 0.401784
vt 0.772329 0.439520
vt 0.792113 0.472222
vt 0.783371 0.482937
vt 0.297249 0.115356
vt 0.249959 0.115356
vt 0.216520 0.081917
vt 0.216520 0.034627
vt 0.249959 0.001188
vt 0.297249 0.001188
vt 0.330688 0.034627
vt 0.330688 0.081917
vt 0.644545 0.510417
vt 0.642921 0.559774
vt 0.629926 0.595564
vt 0.592788 0.615473
vt 0.539414 0.632284
vt 0.479866 0.583901
vt 0.502030 0.502179
vt 0.575489 0.460065
vt 0.642965 0.559782
vt 0.644596 0.510419
vt 0.629967 0.595598
vt 0.592811 0.615527
vt 0.539437 0.632359
vt 0.636323 0.364084
vt 0.624309 0.316792
vt 0.642686 0.411106
vt 0.646297 0.458892
vt 0.662272 0.937841
vt 0.663837 0.853465
vt 0.747079 0.894249
vt 0.745868 0.900195
vt 0.784100 0.885661
vt 0.799863 0.909465
vt 0.798118 0.910250
vt 0.782797 0.886154
vt 0.739463 0.793982
vt 0.778443 0.858351
vt 0.777116 0.858943
vt 0.735703 0.794578
vt 0.826253 0.982923
vt 0.822123 0.986445
vt 0.659112 0.851596
vt 0.730546 0.791763
vt 0.663740 0.853420
vt 0.657882 0.940222
vt 0.662159 0.937886
vt 0.820803 0.990725
vt 0.724365 0.999754
vt 0.725623 0.995745
vt 0.735678 0.794741
vt 0.751880 0.891250
vt 0.777074 0.858962
vt 0.782766 0.886167
vt 0.759743 0.896819
vt 0.756727 0.892785
vt 0.752162 0.892566
vt 0.748330 0.895157
vt 0.759367 0.901995
vt 0.758150 0.901416
vt 0.758492 0.897172
vt 0.756026 0.893819
vt 0.798076 0.910268
vt 0.821979 0.986331
vt 0.755825 0.905778
vt 0.725665 0.995622
vt 0.749575 0.905234
vt 0.751881 0.891249
vt 0.755823 0.905779
vt 0.747428 0.899836
vt 0.755174 0.904501
vt 0.750283 0.903839
vt 0.748387 0.899625
vt 0.750805 0.902936
vt 0.750290 0.903827
vt 0.747442 0.899833
vt 0.755213 0.903254
vt 0.755169 0.904488
vt 0.755215 0.903255
vt 0.757239 0.900991
vt 0.758138 0.901411
vt 0.749060 0.895664
vt 0.748342 0.895164
vt 0.752737 0.893587
vt 0.752164 0.892579
vt 0.756019 0.893829
vt 0.755434 0.894601
vt 0.752738 0.893585
vt 0.758480 0.897175
vt 0.757764 0.897373
vt 0.755432 0.894605
vt 0.757759 0.897375
vt 0.757234 0.900989
vt 0.814536 0.675130
vt 0.974377 0.799082
vt 0.999754 0.999754
vt 0.428692 0.496611
vt 0.456498 0.541880
vt 0.439726 0.584632
vt 0.374241 0.562987
vt 0.295398 0.510591
vt 0.355460 0.436744
vt 0.236628 0.430398
vt 0.297315 0.365080
vt 0.142197 0.363513
vt 0.210381 0.299658
vt 0.091371 0.291514
vt 0.151871 0.222633
vt 0.016312 0.219065
vt 0.085180 0.169129
vt 0.000309 0.170197
vt 0.030774 0.136499
vt 0.355554 0.436653
vt 0.297391 0.365001
vt 0.308489 0.352198
vt 0.367939 0.424728
vt 0.259023 0.265951
vt 0.170286 0.203914
vt 0.181048 0.193822
vt 0.272334 0.253362
vt 0.210479 0.299560
vt 0.151947 0.222560
vt 0.163518 0.210066
vt 0.223451 0.286562
vt 0.456560 0.541871
vt 0.428745 0.496563
vt 0.438688 0.486676
vt 0.468405 0.539513
vt 0.405798 0.399469
vt 0.314647 0.356097
vt 0.324587 0.345031
vt 0.415858 0.385008
vt 0.085241 0.169042
vt 0.030759 0.136401
vt 0.038694 0.123101
vt 0.093973 0.156083
vt 0.209622 0.067280
vt 0.142075 0.119429
vt 0.093839 0.047553
vt 0.161243 0.000246
vt 0.241056 0.153963
vt 0.348803 0.185104
vt 0.371158 0.293831
vt 0.476845 0.309668
vt 0.528682 0.383922
vt 0.480514 0.448957
vt 0.581569 0.435400
vt 0.526281 0.470010
vt 0.127251 0.128295
vt 0.080357 0.056439
vt 0.472088 0.461187
vt 0.439773 0.584724
vt 0.450319 0.589083
vt 0.589084 0.447564
vt 0.527044 0.485889
s 1
usemtl Vitres_Mat.001
f 16/1/1 14/2/2 23/3/2 24/4/1
f 14/5/2 12/6/3 22/7/3 23/8/2
f 12/6/3 10/9/4 21/10/4 22/7/3
f 10/9/4 8/11/5 20/12/5 21/10/4
f 1/13/6 25/14/6 26/15/7 4/16/7
f 3/17/8 16/1/1 24/4/1 18/18/8
f 2/19/9 3/17/8 18/18/8 17/20/9
f 6/21/10 2/19/9 17/20/9 19/22/10
f 8/11/5 6/21/10 19/22/10 20/12/5
f 5/23/11 27/24/11 25/14/6 1/13/6
f 7/25/12 28/26/12 27/24/11 5/23/11
f 9/27/13 29/28/13 28/26/12 7/25/12
f 11/29/14 30/30/14 29/28/13 9/27/13
f 13/31/15 31/32/15 30/30/14 11/29/14
f 15/33/16 32/34/16 31/35/15 13/36/15
f 4/16/7 26/15/7 32/34/16 15/33/16
f 15/37/17 13/38/17 14/39/17 16/40/17
f 4/41/17 15/37/17 16/40/17 3/42/17
f 1/43/17 4/41/17 3/42/17 2/44/17
f 5/45/17 1/43/17 2/44/17 6/46/17
f 7/47/17 5/45/17 6/46/17 8/48/17
f 9/49/17 7/47/17 8/48/17 10/50/17
f 11/51/17 9/49/17 10/50/17 12/52/17
f 13/53/17 11/51/17 12/52/17 14/54/17
f 18/55/18 24/56/18 32/57/18 26/58/18
f 17/59/18 18/55/18 26/58/18 25/60/18
f 19/61/18 17/59/18 25/60/18 27/62/18
f 20/63/18 19/61/18 27/62/18 28/64/18
f 21/65/18 20/63/18 28/64/18 29/66/18
f 22/67/18 21/65/18 29/66/18 30/68/18
f 23/69/18 22/67/18 30/68/18 31/70/18
f 24/56/18 23/71/18 31/72/18 32/57/18
usemtl cotés_Mat.001
f 76/73/19 40/74/20 33/75/21 69/76/22
f 71/77/23 35/78/24 36/79/25 72/80/26
f 72/80/26 36/79/25 37/81/27 73/82/28
f 73/83/28 37/84/27 38/85/29 74/86/30
f 74/86/30 38/85/29 39/87/31 75/88/32
f 75/88/32 39/87/31 40/74/20 76/73/19
f 69/89/22 33/90/21 34/91/33 70/92/34
f 70/92/34 34/91/33 35/78/24 71/77/23
f 43/93/35 41/94/36 55/95/37 53/96/38 51/97/39 49/98/40 47/99/41 45/100/42
f 36/79/25 35/78/24 46/101/43 48/102/44
f 37/81/27 36/79/25 48/102/44 50/103/45
f 38/85/29 37/84/27 50/104/45 52/105/46
f 39/87/31 38/85/29 52/105/46 54/106/47
f 40/74/20 39/87/31 54/106/47 56/107/48
f 34/91/33 33/90/21 42/108/49 44/109/50
f 35/78/24 34/91/33 44/109/50 46/101/43
f 41/94/36 43/93/35 44/109/50 42/108/49
f 43/93/35 45/100/42 46/101/43 44/109/50
f 45/100/42 47/99/41 48/102/44 46/101/43
f 47/99/41 49/98/40 50/103/45 48/102/44
f 49/110/40 51/111/39 52/105/46 50/104/45
f 51/111/39 53/112/38 54/106/47 52/105/46
f 53/112/38 55/113/37 56/107/48 54/106/47
f 55/113/37 41/114/36 42/115/49 56/107/48
f 33/75/21 40/74/20 56/107/48 42/115/49
f 61/116/18 62/117/18 63/118/18 64/119/18 65/120/18 66/121/18 67/122/18 68/123/18
f 86/124/18 85/125/18 57/126/18 58/127/18 59/128/18 87/129/18 88/130/18 60/131/18
f 85/132/18 86/133/18 69/89/18 70/92/18
f 57/134/18 85/132/18 70/92/18 71/77/18
f 58/135/18 57/134/18 71/77/18 72/80/18
f 59/136/18 58/135/18 72/80/18 73/82/18
f 87/137/18 59/138/18 73/83/18 74/86/18
f 88/139/18 87/137/18 74/86/18 75/88/18
f 60/140/18 88/139/18 75/88/18 76/73/18
f 86/133/18 60/140/18 76/73/18 69/76/18
f 104/141/51 89/142/52 111/143/53 110/144/54
f 98/145/17 99/146/17 101/147/55 96/148/56
f 95/149/17 97/150/17 100/151/57 103/152/58
f 99/146/17 92/153/17 102/154/59 101/147/55
f 94/155/17 95/156/17 103/152/58 89/157/52
f 93/158/17 94/155/17 89/157/52 104/159/51
f 92/160/17 91/161/17 90/162/60 102/154/59
f 91/161/17 93/158/17 104/159/51 90/162/60
f 97/150/17 98/145/17 96/148/56 100/151/57
f 89/142/52 103/163/58 109/164/61 111/143/53
f 100/165/57 96/166/56 106/167/62 105/168/63
f 111/143/53 109/164/61 121/169/64 115/170/65
f 106/167/62 107/171/66 114/172/67 119/173/68
f 105/168/63 106/167/62 119/173/68 113/174/69
f 101/175/55 102/176/59 108/177/70 107/171/66
f 90/178/60 104/141/51 110/144/54 112/179/71
f 103/163/58 100/165/57 105/168/63 109/180/61
f 102/176/59 90/178/60 112/179/71 108/181/70
f 110/144/54 111/143/53 115/170/65 117/182/72
f 107/171/66 108/177/70 116/183/73 114/172/67
f 112/179/71 110/144/54 117/182/72 118/184/74
f 109/180/61 105/168/63 113/174/69 121/169/64
f 108/181/70 112/179/71 118/184/74 116/183/73
f 107/171/66 106/167/62 96/166/56 101/175/55
f 122/185/75 124/186/76 118/187/74 117/188/72
f 124/186/76 120/189/77 116/190/73 118/187/74
f 116/190/73 120/191/77 128/192/78 114/193/67
f 123/194/79 122/185/75 117/188/72 115/195/65
f 125/196/80 123/194/79 115/195/65 121/197/64
f 113/198/69 126/199/81 125/200/80 121/197/64
f 119/201/68 127/202/82 126/199/81 113/198/69
f 114/193/67 128/192/78 127/202/82 119/201/68
f 122/185/75 123/194/79 125/196/80 126/203/81 127/204/82 128/205/78 120/189/77 124/186/76
f 92/153/17 99/146/17 98/145/17 97/150/17 95/149/17 94/206/17 93/207/17 91/208/17
usemtl câbles_Mat.001
f 129/209/22 130/210/22 135/211/22 134/212/22
f 134/212/22 137/213/22 136/214/22 129/209/22
f 137/213/22 138/215/22 131/216/22 136/214/22
f 138/215/22 140/217/22 139/218/22 131/216/22
f 140/217/22 142/219/22 141/220/22 139/218/22
f 142/219/22 133/221/22 132/222/22 141/220/22
f 133/221/22 144/223/22 143/224/22 132/222/22
f 136/225/83 131/226/84 151/227/84 149/228/83
f 138/229/85 137/230/86 150/231/86 152/232/85
f 139/233/87 141/234/88 155/235/88 153/236/87
f 130/237/32 129/238/89 146/239/89 145/240/32
f 142/241/90 140/242/91 154/243/91 156/244/90
f 132/245/92 143/246/32 159/247/32 157/248/92
f 129/238/89 136/225/83 149/228/83 146/239/89
f 146/249/28 147/250/28 148/251/28 145/252/28
f 147/250/28 146/249/28 149/253/28 150/231/28
f 150/231/28 149/253/28 151/254/28 152/232/28
f 152/232/28 151/254/28 153/255/28 154/243/28
f 154/243/28 153/255/28 155/256/28 156/244/28
f 156/244/28 155/256/28 157/257/28 158/258/28
f 158/258/28 157/257/28 159/259/28 160/260/28
f 134/261/93 135/262/23 148/251/23 147/250/93
f 133/263/94 142/241/90 156/244/90 158/258/94
f 135/264/17 130/237/17 145/240/17 148/265/17
f 141/234/88 132/245/92 157/248/92 155/235/88
f 140/242/91 138/229/85 152/232/85 154/243/91
f 143/266/18 144/267/18 160/260/18 159/259/18
f 131/226/84 139/233/87 153/236/87 151/227/84
f 137/230/86 134/261/93 147/250/93 150/231/86
f 144/267/23 133/263/94 158/258/94 160/260/23
