# Blender 4.1.1
# www.blender.org
mtllib Plaque1.mtl
o Plaque
v -0.019025 0.003061 0.012840
v -0.022694 0.003061 0.010764
v -0.020860 0.003061 0.012562
v -0.022203 0.003061 0.011802
v -0.022694 -0.003061 0.010764
v -0.019025 -0.003061 0.012840
v -0.022203 -0.003061 0.011802
v -0.020860 -0.003061 0.012562
v -0.022694 0.003061 -0.010764
v -0.019025 0.003061 -0.012840
v -0.022203 0.003061 -0.011802
v -0.020860 0.003061 -0.012562
v -0.019025 -0.003061 -0.012840
v -0.022694 -0.003061 -0.010764
v -0.020860 -0.003061 -0.012562
v -0.022203 -0.003061 -0.011802
v 0.022694 0.003061 0.010764
v 0.019025 0.003061 0.012840
v 0.022203 0.003061 0.011802
v 0.020860 0.003061 0.012562
v 0.019025 -0.003061 0.012840
v 0.022694 -0.003061 0.010764
v 0.020860 -0.003061 0.012562
v 0.022203 -0.003061 0.011802
v 0.019025 0.003061 -0.012840
v 0.022694 0.003061 -0.010764
v 0.020860 0.003061 -0.012562
v 0.022203 0.003061 -0.011802
v 0.022694 -0.003061 -0.010764
v 0.019025 -0.003061 -0.012840
v 0.022203 -0.003061 -0.011802
v 0.020860 -0.003061 -0.012562
vn 0.0544 0.6906 0.7212
vn -0.0544 0.6906 0.7212
vn -0.0752 -0.0000 0.9972
vn 0.0752 -0.0000 0.9972
vn 0.7322 0.6609 -0.1646
vn 0.7322 0.6609 0.1646
vn 0.9756 -0.0000 0.2194
vn 0.9756 -0.0000 -0.2194
vn -0.0000 -1.0000 -0.0000
vn -0.7322 0.6609 0.1646
vn -0.7322 0.6609 -0.1646
vn -0.9756 -0.0000 -0.2194
vn -0.9756 -0.0000 0.2194
vn -0.0544 0.6906 -0.7212
vn 0.0544 0.6906 -0.7212
vn 0.0752 -0.0000 -0.9972
vn -0.0752 -0.0000 -0.9972
vn -0.2429 0.6685 0.7029
vn -0.3266 -0.0000 0.9452
vn -0.5596 0.6450 0.5204
vn -0.7323 -0.0000 0.6810
vn -0.3266 -0.0000 -0.9452
vn -0.2429 0.6685 -0.7029
vn -0.7323 -0.0000 -0.6810
vn -0.5596 0.6450 -0.5204
vn 0.7323 -0.0000 -0.6810
vn 0.5596 0.6450 -0.5204
vn 0.3266 -0.0000 -0.9452
vn 0.2429 0.6685 -0.7029
vn 0.3266 -0.0000 0.9452
vn 0.2429 0.6685 0.7029
vn 0.7323 -0.0000 0.6810
vn 0.5596 0.6450 0.5204
vt 0.918658 0.000977
vt 0.606327 0.000977
vt 0.606327 0.051222
vt 0.918658 0.051222
vt 0.948778 0.329296
vt 0.948778 0.506003
vt 0.999023 0.506003
vt 0.999023 0.329296
vt 0.948778 0.244970
vt 0.948778 0.068263
vt 0.944743 0.059742
vt 0.933718 0.053505
vt 0.591267 0.053505
vt 0.580243 0.059742
vt 0.576208 0.068263
vt 0.576208 0.244970
vt 0.580243 0.253490
vt 0.591267 0.259727
vt 0.606327 0.262010
vt 0.918658 0.262010
vt 0.933718 0.259727
vt 0.944743 0.253490
vt 0.576208 0.506003
vt 0.576208 0.329296
vt 0.525962 0.329296
vt 0.525962 0.506003
vt 0.606327 0.312256
vt 0.918658 0.312256
vt 0.591095 0.000977
vt 0.591095 0.051222
vt 0.578429 0.000977
vt 0.578429 0.051222
vt 0.576208 0.515431
vt 0.525962 0.515431
vt 0.591095 0.262010
vt 0.591095 0.312256
vt 0.578429 0.262010
vt 0.578429 0.312256
vt 0.525962 0.319869
vt 0.576208 0.319869
vt 0.999023 0.319869
vt 0.948778 0.319869
vt 0.946557 0.262010
vt 0.933890 0.262010
vt 0.933890 0.312256
vt 0.946557 0.312256
vt 0.933890 0.051222
vt 0.933890 0.000977
vt 0.946557 0.051222
vt 0.946557 0.000977
vt 0.999023 0.515431
vt 0.948778 0.515431
vt 0.944743 0.320776
vt 0.944743 0.514524
vt 0.933718 0.314539
vt 0.933718 0.520761
vt 0.918658 0.523044
vt 0.606327 0.523044
vt 0.591267 0.314539
vt 0.591267 0.520761
vt 0.580243 0.320776
vt 0.580243 0.514523
s 1
f 18/1/1 1/2/2 6/3/3 21/4/4
f 26/5/5 17/6/6 22/7/7 29/8/8
f 29/9/9 22/10/9 24/11/9 23/12/9 21/4/9 6/3/9 8/13/9 7/14/9 5/15/9 14/16/9 16/17/9 15/18/9 13/19/9 30/20/9 32/21/9 31/22/9
f 2/23/10 9/24/11 14/25/12 5/26/13
f 10/27/14 25/28/15 30/20/16 13/19/17
f 1/2/2 3/29/18 8/30/19 6/3/3
f 3/29/18 4/31/20 7/32/21 8/30/19
f 4/33/20 2/23/10 5/26/13 7/34/21
f 13/19/17 15/35/22 12/36/23 10/27/14
f 15/35/22 16/37/24 11/38/25 12/36/23
f 16/39/24 14/25/12 9/24/11 11/40/25
f 29/8/8 31/41/26 28/42/27 26/5/5
f 31/43/26 32/44/28 27/45/29 28/46/27
f 32/44/28 30/20/16 25/28/15 27/45/29
f 21/4/4 23/47/30 20/48/31 18/1/1
f 23/47/30 24/49/32 19/50/33 20/48/31
f 24/51/32 22/7/7 17/6/6 19/52/33
f 28/53/27 19/54/33 17/6/6 26/5/5
f 27/55/29 20/56/31 19/54/33 28/53/27
f 25/28/15 18/57/1 20/56/31 27/55/29
f 10/27/14 1/58/2 18/57/1 25/28/15
f 12/59/23 3/60/18 1/58/2 10/27/14
f 11/61/25 4/62/20 3/60/18 12/59/23
f 9/24/11 2/23/10 4/62/20 11/61/25
